<?xml version="1.0" encoding="UTF-8" standalone="no"?>
<!DOCTYPE svg PUBLIC "-//W3C//DTD SVG 1.1//EN" "http://www.w3.org/Graphics/SVG/1.1/DTD/svg11.dtd">
<svg xmlns="http://www.w3.org/2000/svg" version="1.1" viewBox="0.00 0.00 512.00 512.00">
<path fill="#db380e" d="
  M 234.97 159.83
  C 229.21 165.39 223.10 173.29 222.75 181.42
  Q 222.44 188.42 223.55 195.65
  C 224.63 202.68 225.86 209.96 227.76 216.81
  Q 235.78 245.68 248.69 271.46
  C 249.21 272.51 249.42 273.69 249.51 274.86
  Q 249.57 275.54 249.23 276.11
  Q 246.62 280.59 242.36 277.31
  Q 235.37 271.92 226.19 262.90
  C 211.60 248.54 198.46 232.19 190.44 214.07
  C 183.18 197.66 180.86 178.93 188.29 162.58
  Q 196.30 144.92 210.02 130.44
  C 226.04 113.54 245.44 100.55 264.17 87.24
  Q 275.62 79.10 284.54 69.87
  Q 287.86 66.43 290.14 62.28
  Q 304.97 35.30 300.77 5.03
  Q 300.35 1.96 303.06 0.61
  C 305.74 -0.73 307.87 1.12 309.19 3.34
  Q 316.07 14.91 319.45 27.68
  Q 327.85 59.36 311.42 86.34
  C 307.38 92.96 302.45 99.22 296.98 104.74
  C 293.23 108.54 289.69 112.58 285.69 116.10
  Q 268.91 130.86 252.04 144.41
  C 246.09 149.19 240.49 154.49 234.97 159.83
  Z"
/>
<path fill="#db380e" d="
  M 312.86 236.09
  C 315.47 247.78 312.16 259.67 305.60 269.98
  Q 296.51 284.31 281.41 295.84
  C 279.02 297.67 275.96 298.50 274.22 295.15
  C 273.56 293.87 273.75 291.97 274.35 290.73
  Q 279.83 279.40 281.60 266.35
  Q 282.65 258.56 277.88 252.38
  C 272.44 245.37 266.00 237.62 261.96 230.76
  Q 250.48 211.26 250.82 187.44
  C 250.98 176.21 258.37 164.55 266.22 156.49
  Q 279.36 142.98 297.90 131.78
  Q 322.20 117.11 349.10 106.44
  C 353.69 104.62 356.85 110.71 352.93 113.75
  Q 332.83 129.36 317.68 143.08
  C 309.08 150.86 300.43 159.35 294.21 169.25
  C 288.43 178.44 287.80 188.81 293.50 198.20
  Q 297.85 205.34 302.57 212.43
  Q 310.10 223.74 312.86 236.09
  Z"
/>
<path fill="#73a1fb" d="
  M 443.48 327.14
  C 438.19 342.47 422.88 353.97 408.62 361.30
  Q 388.61 371.57 364.55 377.36
  C 359.43 378.60 356.85 372.66 361.24 369.55
  C 374.88 359.93 387.86 349.78 399.03 337.57
  Q 401.60 334.77 403.87 331.76
  C 407.86 326.47 412.52 320.17 412.96 313.31
  C 414.26 293.01 385.81 287.88 370.80 287.17
  C 365.82 286.93 364.63 281.14 369.17 278.92
  Q 379.17 274.05 391.68 271.24
  C 402.49 268.82 414.76 269.09 424.60 274.44
  C 436.71 281.03 442.42 293.46 445.07 307.10
  Q 446.99 316.97 443.48 327.14
  Z"
/>
<path fill="#73a1fb" d="
  M 151.03 300.60
  C 153.92 301.29 156.75 302.15 159.72 302.55
  Q 176.89 304.86 194.53 305.44
  Q 244.36 307.08 294.12 303.35
  C 314.14 301.85 334.73 299.40 354.39 294.56
  C 359.32 293.35 361.74 299.36 357.75 302.30
  Q 351.09 307.20 342.70 311.22
  Q 328.10 318.22 312.31 322.53
  C 293.77 327.59 275.39 330.88 256.57 332.36
  Q 214.19 335.70 173.70 332.62
  Q 158.11 331.43 143.07 328.24
  C 132.68 326.03 122.53 322.71 114.26 316.71
  C 105.68 310.48 103.41 298.33 112.67 291.39
  Q 120.17 285.76 131.86 282.94
  C 151.59 278.18 172.10 276.67 192.56 276.70
  C 197.70 276.71 197.96 283.94 192.59 285.08
  C 179.42 287.88 166.62 291.36 154.72 297.09
  Q 152.50 298.15 150.81 299.77
  Q 150.15 300.39 151.03 300.60
  Z"
/>
<path fill="#73a1fb" d="
  M 170.31 349.52
  Q 172.56 350.85 175.08 351.39
  Q 188.81 354.35 205.23 355.19
  Q 226.32 356.27 246.34 355.13
  Q 283.34 353.03 319.61 344.33
  Q 321.18 343.95 323.00 345.21
  Q 333.33 352.36 343.16 359.26
  C 346.56 361.64 345.78 366.19 341.50 367.18
  C 311.41 374.12 279.68 379.70 248.48 382.20
  C 223.89 384.17 199.64 383.11 175.34 377.54
  Q 164.78 375.12 156.49 371.22
  C 152.19 369.20 147.28 366.43 144.58 362.37
  C 137.28 351.40 150.44 343.28 158.87 340.38
  Q 165.00 338.26 172.40 336.18
  C 177.71 334.68 180.17 341.83 174.93 344.18
  C 173.02 345.04 170.74 346.38 169.92 348.35
  A 0.93 0.93 0.0 0 0 170.31 349.52
  Z"
/>
<path fill="#73a1fb" d="
  M 188.22 399.28
  C 191.45 400.15 194.62 401.14 197.96 401.71
  Q 221.62 405.77 247.82 405.86
  Q 256.72 405.90 263.40 404.97
  Q 284.74 402.00 306.08 398.10
  A 4.52 4.51 55.3 0 1 309.26 398.68
  Q 321.63 406.20 335.00 414.40
  C 338.12 416.32 338.03 420.57 334.57 422.08
  Q 323.90 426.74 311.70 430.07
  Q 289.53 436.11 266.55 437.82
  Q 240.36 439.76 209.61 436.00
  Q 197.34 434.50 186.07 431.74
  C 178.26 429.82 169.80 426.79 163.63 421.59
  C 157.92 416.76 155.20 408.97 158.44 402.24
  C 162.75 393.29 175.07 390.53 184.85 389.79
  C 188.07 389.55 190.85 391.29 190.23 394.91
  Q 190.15 395.36 189.88 395.72
  L 187.89 398.34
  Q 187.35 399.05 188.22 399.28
  Z"
/>
<path fill="#73a1fb" d="
  M 104.34 447.76
  C 108.02 450.02 112.62 451.29 116.76 452.28
  Q 130.69 455.61 145.89 457.63
  Q 190.37 463.51 240.07 463.18
  Q 294.91 462.82 348.09 454.73
  Q 365.44 452.09 382.24 448.13
  Q 392.58 445.69 401.47 442.39
  C 403.63 441.59 408.44 439.38 407.24 436.26
  C 406.81 435.13 405.93 434.06 405.97 432.84
  C 406.11 428.90 410.06 427.37 413.06 429.69
  C 424.91 438.83 421.36 451.41 409.40 457.84
  C 404.08 460.69 398.47 463.31 392.76 465.31
  Q 376.65 470.96 361.14 474.26
  C 350.25 476.57 336.89 479.03 324.79 480.52
  C 314.88 481.75 305.25 483.03 295.35 483.80
  Q 273.85 485.47 264.50 485.84
  Q 206.13 488.14 152.50 484.53
  Q 126.49 482.78 107.01 478.93
  Q 92.50 476.06 82.47 471.55
  C 76.22 468.75 69.01 463.61 67.04 456.80
  Q 63.76 445.50 73.70 439.31
  Q 80.71 434.95 90.05 432.59
  C 107.63 428.15 125.72 427.08 143.95 425.78
  C 149.55 425.38 150.63 432.88 145.10 434.02
  C 132.74 436.56 120.43 439.32 109.01 444.17
  Q 106.39 445.28 104.29 447.08
  A 0.42 0.42 0.0 0 0 104.34 447.76
  Z"
/>
<path fill="#73a1fb" d="
  M 278.11 512.00
  L 266.02 512.00
  Q 204.33 511.30 142.82 499.29
  Q 139.14 498.57 139.28 494.65
  Q 139.29 494.57 139.30 494.49
  Q 139.93 490.66 143.71 490.81
  Q 216.43 493.67 284.30 492.65
  Q 308.98 492.28 334.29 490.46
  Q 345.16 489.68 354.17 488.34
  Q 383.31 484.00 409.12 472.83
  C 418.23 468.89 426.58 464.08 434.20 457.62
  Q 437.26 455.03 440.13 457.59
  C 443.29 460.43 438.94 468.35 437.08 471.24
  C 430.81 480.95 421.32 487.91 410.81 492.73
  Q 395.26 499.86 377.75 502.90
  Q 328.35 511.47 278.11 512.00
  Z"
/>
</svg>
