<?xml version="1.0" encoding="UTF-8" standalone="no"?>
<!DOCTYPE svg PUBLIC "-//W3C//DTD SVG 1.1//EN" "http://www.w3.org/Graphics/SVG/1.1/DTD/svg11.dtd">
<svg xmlns="http://www.w3.org/2000/svg" version="1.1" viewBox="0.00 0.00 363.00 363.00">
<g stroke-width="2.00" fill="none" stroke-linecap="butt">
<path stroke="#b6d99f" vector-effect="non-scaling-stroke" d="
  M 65.77 318.27
  Q 75.48 321.78 82.39 316.69
  C 89.68 311.32 90.80 300.61 85.19 293.91
  C 78.36 285.75 64.72 286.90 59.62 296.12
  Q 55.33 303.89 59.97 312.90"
/>
<path stroke="#b6d99f" vector-effect="non-scaling-stroke" d="
  M 310.56 140.25
  Q 310.72 141.10 310.49 142.01
  Q 304.45 165.50 292.12 186.36
  C 265.69 231.08 222.85 267.28 173.78 282.35
  C 152.41 288.91 131.22 295.05 110.49 302.66
  Q 109.03 303.19 108.08 304.17
  Q 107.60 304.65 108.27 304.54
  Q 128.83 301.15 150.75 301.78
  C 160.61 302.06 170.56 302.27 180.26 302.64
  C 194.90 303.20 209.40 303.23 223.32 302.85
  Q 243.90 302.29 264.16 298.18
  Q 281.61 294.65 296.97 286.79
  C 341.91 263.81 355.36 212.80 353.84 165.47
  Q 352.99 138.81 347.05 110.07
  Q 340.53 78.49 328.46 42.49
  Q 328.23 41.80 327.89 41.16
  Q 327.51 40.44 327.15 41.17
  Q 319.04 57.31 306.29 70.62
  C 279.54 98.56 241.80 118.02 203.53 121.99
  Q 187.41 123.66 170.38 124.36
  Q 152.07 125.11 137.06 128.16
  C 90.64 137.58 55.49 173.73 55.59 222.52
  C 55.64 245.33 65.28 269.48 87.06 279.48
  Q 87.83 279.83 88.68 279.65
  Q 121.14 273.03 153.54 264.47
  Q 171.98 259.61 186.24 254.27
  Q 234.54 236.18 273.07 196.51
  Q 294.76 174.17 308.12 145.86
  C 308.98 144.04 309.58 142.19 310.13 140.23
  Q 310.39 139.33 310.56 140.25"
/>
</g>
<path fill="#6db33f" d="
  M 65.77 318.27
  Q 75.48 321.78 82.39 316.69
  C 89.68 311.32 90.80 300.61 85.19 293.91
  C 78.36 285.75 64.72 286.90 59.62 296.12
  Q 55.33 303.89 59.97 312.90
  Q 56.51 310.03 55.26 308.77
  Q 9.32 262.38 2.65 197.98
  Q 1.62 188.01 1.85 178.01
  Q 2.87 132.26 24.64 93.32
  C 51.72 44.87 98.99 11.95 153.99 3.10
  Q 163.82 1.52 175.38 1.35
  C 186.08 1.20 196.91 1.23 207.45 2.83
  Q 266.73 11.82 309.57 54.45
  A 0.79 0.78 -49.6 0 0 310.76 54.35
  Q 321.80 38.98 329.10 21.57
  Q 329.39 20.87 329.63 21.59
  Q 337.90 46.53 345.10 72.18
  C 352.68 99.20 358.68 126.61 361.12 154.32
  C 361.93 163.55 361.97 174.67 361.70 182.63
  C 361.15 199.03 358.93 215.29 354.43 230.64
  Q 338.17 286.08 293.12 321.93
  Q 249.66 356.51 192.02 360.48
  C 190.09 360.62 188.22 360.38 186.31 360.77
  C 181.58 361.73 177.84 360.64 173.39 360.57
  C 167.51 360.49 159.73 359.46 155.50 358.83
  Q 105.18 351.41 65.77 318.27
  Z
  M 310.56 140.25
  Q 310.72 141.10 310.49 142.01
  Q 304.45 165.50 292.12 186.36
  C 265.69 231.08 222.85 267.28 173.78 282.35
  C 152.41 288.91 131.22 295.05 110.49 302.66
  Q 109.03 303.19 108.08 304.17
  Q 107.60 304.65 108.27 304.54
  Q 128.83 301.15 150.75 301.78
  C 160.61 302.06 170.56 302.27 180.26 302.64
  C 194.90 303.20 209.40 303.23 223.32 302.85
  Q 243.90 302.29 264.16 298.18
  Q 281.61 294.65 296.97 286.79
  C 341.91 263.81 355.36 212.80 353.84 165.47
  Q 352.99 138.81 347.05 110.07
  Q 340.53 78.49 328.46 42.49
  Q 328.23 41.80 327.89 41.16
  Q 327.51 40.44 327.15 41.17
  Q 319.04 57.31 306.29 70.62
  C 279.54 98.56 241.80 118.02 203.53 121.99
  Q 187.41 123.66 170.38 124.36
  Q 152.07 125.11 137.06 128.16
  C 90.64 137.58 55.49 173.73 55.59 222.52
  C 55.64 245.33 65.28 269.48 87.06 279.48
  Q 87.83 279.83 88.68 279.65
  Q 121.14 273.03 153.54 264.47
  Q 171.98 259.61 186.24 254.27
  Q 234.54 236.18 273.07 196.51
  Q 294.76 174.17 308.12 145.86
  C 308.98 144.04 309.58 142.19 310.13 140.23
  Q 310.39 139.33 310.56 140.25
  Z"
/>
<path fill="#ffffff" d="
  M 310.13 140.23
  C 309.58 142.19 308.98 144.04 308.12 145.86
  Q 294.76 174.17 273.07 196.51
  Q 234.54 236.18 186.24 254.27
  Q 171.98 259.61 153.54 264.47
  Q 121.14 273.03 88.68 279.65
  Q 87.83 279.83 87.06 279.48
  C 65.28 269.48 55.64 245.33 55.59 222.52
  C 55.49 173.73 90.64 137.58 137.06 128.16
  Q 152.07 125.11 170.38 124.36
  Q 187.41 123.66 203.53 121.99
  C 241.80 118.02 279.54 98.56 306.29 70.62
  Q 319.04 57.31 327.15 41.17
  Q 327.51 40.44 327.89 41.16
  Q 328.23 41.80 328.46 42.49
  Q 340.53 78.49 347.05 110.07
  Q 352.99 138.81 353.84 165.47
  C 355.36 212.80 341.91 263.81 296.97 286.79
  Q 281.61 294.65 264.16 298.18
  Q 243.90 302.29 223.32 302.85
  C 209.40 303.23 194.90 303.20 180.26 302.64
  C 170.56 302.27 160.61 302.06 150.75 301.78
  Q 128.83 301.15 108.27 304.54
  Q 107.60 304.65 108.08 304.17
  Q 109.03 303.19 110.49 302.66
  C 131.22 295.05 152.41 288.91 173.78 282.35
  C 222.85 267.28 265.69 231.08 292.12 186.36
  Q 304.45 165.50 310.49 142.01
  Q 310.72 141.10 310.56 140.25
  Q 310.39 139.33 310.13 140.23
  Z"
/>
<path fill="#ffffff" d="
  M 65.77 318.27
  L 59.97 312.90
  Q 55.33 303.89 59.62 296.12
  C 64.72 286.90 78.36 285.75 85.19 293.91
  C 90.80 300.61 89.68 311.32 82.39 316.69
  Q 75.48 321.78 65.77 318.27
  Z"
/>
</svg>
