<?xml version="1.0" standalone="no"?>
<!DOCTYPE svg PUBLIC "-//W3C//DTD SVG 20010904//EN"
 "http://www.w3.org/TR/2001/REC-SVG-20010904/DTD/svg10.dtd">
<svg version="1.0" xmlns="http://www.w3.org/2000/svg"
 width="225.000000pt" height="225.000000pt" viewBox="0 0 225.000000 225.000000"
 preserveAspectRatio="xMidYMid meet">

<g transform="translate(0.000000,225.000000) scale(0.100000,-0.100000)"
fill="#000000" stroke="none">
<path d="M1011 1869 c-29 -5 -72 -18 -95 -29 -32 -15 -35 -18 -11 -12 17 4 75
7 131 7 96 0 103 -2 177 -38 55 -27 90 -53 124 -92 47 -53 49 -55 101 -55 l53
0 -32 45 c-34 47 -110 110 -167 140 -40 19 -154 45 -197 44 -16 -1 -54 -5 -84
-10z"/>
<path d="M1182 1622 c-11 -11 -28 -60 -42 -118 -41 -179 -48 -184 -252 -184
l-143 0 -32 -52 -31 -53 181 -3 c148 -2 190 0 224 13 62 24 96 69 123 163 l24
82 62 -130 c59 -123 64 -130 92 -130 38 0 49 15 112 145 l53 110 24 -105 c13
-58 26 -115 29 -127 4 -20 10 -23 57 -23 l54 0 -55 208 c-30 114 -60 210 -66
214 -20 13 -53 8 -70 -10 -9 -11 -39 -70 -67 -133 -57 -128 -65 -141 -75 -113
-18 50 -106 230 -121 246 -21 23 -58 23 -81 0z"/>
<path d="M1345 1135 c-97 -119 -272 -180 -420 -145 -67 15 -51 3 25 -21 58
-17 89 -21 164 -17 83 3 102 8 169 41 54 27 91 55 136 102 33 36 61 70 61 75
0 6 -22 10 -49 10 -46 0 -51 -3 -86 -45z"/>
<path d="M1260 702 c0 -60 3 -111 6 -114 3 -3 13 -4 22 -1 15 4 17 15 14 76
-5 84 5 82 38 -11 21 -56 26 -63 48 -60 20 2 29 15 51 73 l26 70 3 -71 c2 -62
6 -73 22 -77 19 -5 20 1 20 110 l0 114 -31 -3 c-29 -3 -34 -8 -58 -75 -14 -39
-29 -74 -32 -78 -4 -3 -19 30 -35 75 -28 78 -30 80 -61 80 l-33 0 0 -108z"/>
<path d="M1550 701 c0 -90 3 -110 16 -115 9 -3 20 -4 25 0 5 3 9 54 9 115 l0
109 -25 0 -25 0 0 -109z"/>
<path d="M1640 700 c0 -67 4 -110 10 -110 6 0 13 0 18 0 4 0 9 35 12 77 l5 78
43 -77 c38 -70 46 -78 72 -78 l30 0 0 110 c0 103 -1 110 -20 110 -18 0 -20 -7
-20 -82 -1 -95 -4 -94 -62 18 -28 55 -37 64 -60 64 l-28 0 0 -110z"/>
<path d="M1870 700 l0 -110 79 0 c74 0 81 2 100 26 16 20 21 41 21 83 -1 87
-30 111 -134 111 l-66 0 0 -110z m144 54 c21 -21 21 -92 -1 -116 -11 -12 -30
-18 -60 -18 l-43 0 0 75 0 75 44 0 c27 0 51 -6 60 -16z"/>
</g>
</svg>
