<?xml version="1.0" encoding="UTF-8" standalone="no"?>
<!DOCTYPE svg PUBLIC "-//W3C//DTD SVG 1.1//EN" "http://www.w3.org/Graphics/SVG/1.1/DTD/svg11.dtd">
<svg xmlns="http://www.w3.org/2000/svg" version="1.1" viewBox="0.00 0.00 687.00 631.00">
<g stroke-width="2.00" fill="none" stroke-linecap="butt">
<path stroke="#000001" stroke-opacity="0.525" vector-effect="non-scaling-stroke" d="
  M 281.66 35.24
  Q 278.47 25.92 270.24 20.54
  Q 268.76 19.58 263.28 16.95
  C 256.80 13.86 257.73 3.67 247.75 5.20
  C 239.69 6.44 233.73 10.60 227.40 15.36
  Q 225.72 16.63 223.73 17.62
  C 220.07 19.45 214.62 19.37 212.08 20.33
  C 204.74 23.12 201.29 28.92 201.12 36.68
  Q 201.09 38.11 200.24 39.73
  Q 194.28 51.00 195.03 63.96"
/>
<path stroke="#76767b" vector-effect="non-scaling-stroke" d="
  M 283.22 55.27
  Q 284.18 63.08 282.24 71.65"
/>
<path stroke="#7d7c80" vector-effect="non-scaling-stroke" d="
  M 282.24 71.65
  Q 280.72 77.51 277.33 83.37"
/>
<path stroke="#7e523e" vector-effect="non-scaling-stroke" d="
  M 277.33 83.37
  Q 282.98 67.39 275.98 52.36
  Q 275.77 51.90 275.28 52.03
  Q 272.01 52.88 268.88 52.21
  Q 259.86 50.29 247.55 46.72
  C 242.26 45.19 236.26 44.02 230.80 44.61
  C 218.01 45.97 219.20 59.63 209.78 65.21
  A 0.45 0.45 0.0 0 1 209.10 64.87
  C 208.85 62.68 208.20 59.89 206.23 58.61
  C 203.26 56.69 201.51 62.15 201.32 64.01
  Q 199.67 79.87 208.74 92.76"
/>
<path stroke="#76767b" vector-effect="non-scaling-stroke" d="
  M 208.74 92.76
  Q 196.70 81.27 195.06 64.55"
/>
<path stroke="#fbcebe" vector-effect="non-scaling-stroke" d="
  M 277.33 83.37
  Q 270.48 100.11 253.55 106.45
  Q 253.07 106.63 252.93 107.13
  Q 252.60 108.27 252.88 109.49"
/>
<path stroke="#f4c8b9" vector-effect="non-scaling-stroke" d="
  M 252.88 109.49
  Q 252.65 111.17 253.07 111.57"
/>
<path stroke="#a07eac" vector-effect="non-scaling-stroke" d="
  M 253.07 111.57
  Q 252.76 113.07 252.71 114.68
  Q 252.63 116.91 252.41 117.80
  C 249.49 129.32 233.32 130.26 229.01 119.22
  C 228.19 117.11 228.16 114.97 228.00 112.71"
/>
<path stroke="#f4c8b9" vector-effect="non-scaling-stroke" d="
  M 228.00 112.71
  Q 228.31 111.17 227.95 109.97"
/>
<path stroke="#fbcebe" vector-effect="non-scaling-stroke" d="
  M 227.95 109.97
  Q 228.22 108.40 227.84 107.04
  Q 227.70 106.55 227.22 106.38
  L 225.10 105.62"
/>
<path stroke="#f4c8b9" vector-effect="non-scaling-stroke" d="
  M 225.10 105.62
  Q 215.07 101.05 208.74 92.76"
/>
<path stroke="#eeecf3" stroke-opacity="0.525" vector-effect="non-scaling-stroke" d="
  M 510.95 113.45
  Q 511.00 113.74 511.17 114.02"
/>
<path stroke="#a6a6b0" vector-effect="non-scaling-stroke" d="
  M 511.17 114.02
  Q 458.67 113.89 406.00 113.97
  Q 403.16 113.98 401.21 115.03"
/>
<path stroke="#979699" vector-effect="non-scaling-stroke" d="
  M 401.21 115.03
  Q 389.90 119.18 389.88 130.99
  Q 389.83 161.67 389.83 192.35
  Q 389.83 196.75 391.89 200.83"
/>
<path stroke="#a6a6b0" vector-effect="non-scaling-stroke" d="
  M 391.89 200.83
  Q 391.70 201.17 391.50 201.17
  Q 381.99 201.25 357.84 201.22
  C 355.21 201.21 353.50 202.07 352.92 204.66"
/>
<path stroke="#edecef" vector-effect="non-scaling-stroke" d="
  M 352.92 204.66
  L 343.43 204.39
  Q 343.10 204.38 343.14 204.05
  Q 343.15 203.94 343.20 203.80"
/>
<path stroke="#fbcebe" vector-effect="non-scaling-stroke" d="
  M 343.20 203.80
  Q 344.05 203.17 344.10 202.23
  Q 344.12 201.72 343.73 201.39
  Q 341.15 199.14 337.77 198.37
  Q 335.59 197.87 333.56 197.40"
/>
<path stroke="#98a3e2" vector-effect="non-scaling-stroke" d="
  M 333.56 197.40
  L 371.38 129.67"
/>
<path stroke="#fbcebe" vector-effect="non-scaling-stroke" d="
  M 371.38 129.67
  Q 376.79 121.20 376.35 112.52
  Q 376.22 109.94 373.34 107.60
  A 1.26 1.25 -31.2 0 0 372.27 107.34
  Q 370.00 107.82 368.70 109.75
  Q 363.79 117.02 360.93 125.80"
/>
<path stroke="#98a3e2" vector-effect="non-scaling-stroke" d="
  M 360.93 125.80
  L 331.02 168.72"
/>
<path stroke="#f3f2fa" vector-effect="non-scaling-stroke" d="
  M 331.02 168.72
  Q 305.12 140.94 276.49 116.51
  Q 274.21 114.56 269.09 111.78
  Q 266.88 110.58 264.18 110.12
  C 260.25 109.46 257.27 108.75 252.88 109.49"
/>
<path stroke="#f3f2fa" vector-effect="non-scaling-stroke" d="
  M 282.24 71.65
  L 313.18 59.20"
/>
<path stroke="#f3f2fa" vector-effect="non-scaling-stroke" d="
  M 225.10 105.62
  L 213.24 114.72
  Q 213.03 114.89 213.18 115.11
  L 213.35 115.36
  A 0.29 0.28 56.0 0 0 213.74 115.44
  Q 220.28 111.06 227.95 109.97"
/>
<path stroke="#98a2e9" vector-effect="non-scaling-stroke" d="
  M 228.00 112.71
  Q 220.72 114.25 213.11 118.76"
/>
<path stroke="#919ddd" vector-effect="non-scaling-stroke" d="
  M 213.11 118.76
  Q 205.85 123.07 198.79 131.27
  Q 192.03 139.12 192.52 147.76"
/>
<path stroke="#98a2e9" vector-effect="non-scaling-stroke" d="
  M 192.52 147.76
  Q 191.32 152.98 191.31 157.50
  Q 191.29 197.09 191.30 236.86"
/>
<path stroke="#9398b7" vector-effect="non-scaling-stroke" d="
  M 191.30 236.86
  Q 191.02 246.55 191.55 251.75
  Q 192.70 263.23 200.34 273.29"
/>
<path stroke="#f1a69d" vector-effect="non-scaling-stroke" d="
  M 200.34 273.29
  Q 199.68 273.80 198.27 274.01"
/>
<path stroke="#f3f2fa" vector-effect="non-scaling-stroke" d="
  M 198.27 274.01
  Q 198.18 272.69 197.20 272.16
  Q 196.62 271.84 196.28 271.28
  Q 192.44 265.05 190.49 257.89
  Q 189.18 253.09 189.24 246.33
  Q 189.60 202.86 189.20 155.85
  C 189.17 151.85 190.28 148.18 190.44 144.31
  Q 190.82 135.05 197.35 129.17
  Q 197.46 129.07 197.36 128.96
  L 197.17 128.75
  Q 196.92 128.47 196.64 128.72
  C 158.86 161.38 126.15 203.13 105.31 248.47
  Q 104.68 249.85 105.96 249.03
  Q 107.14 248.27 108.58 248.18
  Q 117.63 247.63 126.06 250.79
  C 130.77 252.55 134.03 255.53 136.35 260.03
  Q 138.49 264.19 139.49 268.00
  Q 141.10 274.12 142.80 280.32
  C 144.34 285.96 146.59 291.23 151.98 294.20
  C 160.33 298.81 164.50 306.66 163.12 316.46
  Q 162.66 319.77 160.67 323.07
  Q 159.38 325.21 158.20 327.02
  Q 157.83 327.59 157.19 328.15
  Q 156.65 328.62 156.47 329.38
  Q 156.35 329.89 156.00 330.29
  Q 150.25 337.01 147.68 342.43
  C 146.09 345.79 145.54 349.23 147.53 352.68
  Q 149.19 355.57 150.91 358.51
  Q 156.23 367.66 153.20 377.39
  C 152.29 380.29 149.13 383.77 146.15 384.38
  Q 141.86 385.27 136.94 386.01
  C 132.80 386.64 130.14 387.93 126.99 390.30
  Q 123.82 392.70 122.00 395.72"
/>
<path stroke="#ba99f5" vector-effect="non-scaling-stroke" d="
  M 122.00 395.72
  L 119.39 395.72"
/>
<path stroke="#7fdaa8" vector-effect="non-scaling-stroke" d="
  M 119.39 395.72
  C 124.05 389.32 128.35 384.98 136.61 383.88
  C 142.10 383.15 147.56 382.88 150.51 377.25"
/>
<path stroke="#92b7aa" vector-effect="non-scaling-stroke" d="
  M 150.51 377.25
  Q 150.94 376.89 151.33 375.21"
/>
<path stroke="#7fdaa8" vector-effect="non-scaling-stroke" d="
  M 151.33 375.21
  C 153.93 366.29 150.70 360.22 146.14 352.94
  C 142.68 347.42 146.15 340.67 149.92 335.94
  Q 151.43 334.04 156.43 327.23
  Q 162.26 319.28 160.61 310.18"
/>
<path stroke="#92b7aa" vector-effect="non-scaling-stroke" d="
  M 160.61 310.18
  Q 160.51 309.33 160.23 308.77"
/>
<path stroke="#7fdaa8" vector-effect="non-scaling-stroke" d="
  M 160.23 308.77
  Q 158.34 302.48 153.61 298.87
  C 151.03 296.90 147.88 295.71 145.76 293.11
  C 141.57 287.95 140.13 279.51 138.46 273.00
  C 137.37 268.79 135.70 264.24 133.05 260.75
  C 129.09 255.53 121.49 253.34 115.20 252.94"
/>
<path stroke="#92b7aa" vector-effect="non-scaling-stroke" d="
  M 115.20 252.94
  Q 113.86 252.64 113.01 252.77"
/>
<path stroke="#7fdaa8" vector-effect="non-scaling-stroke" d="
  M 113.01 252.77
  Q 105.59 251.74 102.24 257.01
  Q 101.63 257.97 100.84 260.37
  Q 100.19 262.34 99.49 263.81"
/>
<path stroke="#f3f2fa" vector-effect="non-scaling-stroke" d="
  M 99.49 263.81
  Q 93.94 276.78 90.98 290.38
  A 0.17 0.16 -2.3 0 0 91.19 290.57
  Q 97.41 288.70 99.74 283.47
  A 1.01 0.99 -1.1 0 1 100.23 282.97
  Q 101.08 282.55 100.90 281.48
  Q 100.74 280.46 101.23 279.89"
/>
<path stroke="#7fdaa8" vector-effect="non-scaling-stroke" d="
  M 101.23 279.89
  C 101.33 289.30 95.89 292.88 87.47 293.87
  C 79.69 294.77 72.18 296.53 65.03 299.83
  Q 61.63 301.39 59.42 304.55"
/>
<path stroke="#92b7aa" vector-effect="non-scaling-stroke" d="
  M 59.42 304.55
  Q 58.91 304.35 58.75 306.05"
/>
<path stroke="#7fdaa8" vector-effect="non-scaling-stroke" d="
  M 58.75 306.05
  Q 57.82 309.69 60.44 313.34
  Q 62.73 316.53 64.88 319.82
  Q 73.28 332.68 66.35 346.40
  Q 63.31 352.41 61.47 359.04"
/>
<path stroke="#92b7aa" vector-effect="non-scaling-stroke" d="
  M 61.47 359.04
  Q 60.98 359.91 61.29 361.20"
/>
<path stroke="#7fdaa8" vector-effect="non-scaling-stroke" d="
  M 61.29 361.20
  Q 61.29 365.95 64.85 368.39
  C 68.76 371.07 73.26 373.95 76.18 377.45
  C 80.54 382.67 83.26 389.30 85.10 395.86"
/>
<path stroke="#ba99f5" vector-effect="non-scaling-stroke" d="
  M 85.10 395.86
  Q 82.40 395.74 79.76 395.78
  C 70.22 395.95 61.74 402.46 59.99 411.86
  C 58.12 421.89 63.26 431.39 72.71 434.86
  Q 76.31 436.19 81.88 436.14
  Q 106.98 435.95 133.02 436.11
  C 147.29 436.19 156.74 424.65 153.73 410.51"
/>
<path stroke="#f3f2fa" vector-effect="non-scaling-stroke" d="
  M 153.73 410.51
  Q 155.69 413.49 155.94 414.58
  C 158.82 427.38 149.95 440.12 136.37 440.28
  Q 131.13 440.34 126.31 440.10
  Q 125.66 440.06 126.02 440.61
  Q 127.29 442.52 128.65 444.33
  Q 139.85 459.20 151.19 471.81
  Q 191.35 516.45 240.24 551.31
  Q 262.30 567.04 288.75 579.78"
/>
<path stroke="#e1e1ea" stroke-opacity="0.525" vector-effect="non-scaling-stroke" d="
  M 288.75 579.78
  L 264.94 583.60"
/>
<path stroke="#9979a0" vector-effect="non-scaling-stroke" d="
  M 371.38 129.67
  L 360.93 125.80"
/>
<path stroke="#919ddd" vector-effect="non-scaling-stroke" d="
  M 331.02 168.72
  Q 330.83 169.19 330.61 169.43
  Q 330.22 169.83 329.84 169.43
  Q 307.97 146.70 283.66 125.19"
/>
<path stroke="#98a2e9" vector-effect="non-scaling-stroke" d="
  M 283.66 125.19
  Q 277.93 119.20 270.40 114.93
  Q 267.02 113.01 263.03 112.43
  Q 258.18 111.73 253.07 111.57"
/>
<path stroke="#3d52d0" vector-effect="non-scaling-stroke" d="
  M 283.66 125.19
  Q 288.71 135.27 289.46 142.00
  Q 290.04 147.22 289.65 162.04"
/>
<path stroke="#9fa8ee" vector-effect="non-scaling-stroke" d="
  M 289.65 162.04
  L 289.70 187.07"
/>
<path stroke="#3d52d0" vector-effect="non-scaling-stroke" d="
  M 289.70 187.07
  L 263.40 179.50
  A 4.83 4.83 0.0 0 1 260.97 177.89
  L 213.11 118.76"
/>
<path stroke="#e1e1ea" stroke-opacity="0.525" vector-effect="non-scaling-stroke" d="
  M 527.28 131.38
  Q 525.80 130.18 524.97 128.74"
/>
<path stroke="#4e4f5c" stroke-opacity="0.525" vector-effect="non-scaling-stroke" d="
  M 524.97 128.74
  Q 522.98 117.34 511.17 114.02"
/>
<path stroke="#9fa0ab" vector-effect="non-scaling-stroke" d="
  M 524.97 128.74
  Q 525.02 159.93 525.00 191.00
  Q 525.00 198.08 521.71 202.71"
/>
<path stroke="#9999a0" vector-effect="non-scaling-stroke" d="
  M 521.71 202.71
  Q 516.23 209.53 507.25 209.53
  Q 455.88 209.56 404.50 209.29
  Q 403.77 209.29 403.00 209.29
  Q 380.57 209.26 358.14 209.24
  C 354.88 209.24 352.87 208.11 352.92 204.66"
/>
<path stroke="#43434a" vector-effect="non-scaling-stroke" d="
  M 391.89 200.83
  Q 394.13 205.21 399.64 207.85
  Q 400.51 208.26 400.89 207.97
  Q 401.38 207.60 400.81 207.37
  C 394.73 204.85 391.61 198.51 391.62 191.95
  Q 391.64 160.79 391.54 132.60
  Q 391.53 127.42 393.07 123.93
  Q 395.42 118.66 401.21 115.03"
/>
<path stroke="#9999a0" vector-effect="non-scaling-stroke" d="
  M 468.91 161.06
  A 4.33 4.33 0.0 0 0 464.58 156.73
  A 4.33 4.33 0.0 0 0 460.25 161.06
  A 4.33 4.33 0.0 0 0 464.58 165.39
  A 4.33 4.33 0.0 0 0 468.91 161.06"
/>
<path stroke="#98a3e2" vector-effect="non-scaling-stroke" d="
  M 289.70 187.07
  L 319.21 195.66"
/>
<path stroke="#9979a0" vector-effect="non-scaling-stroke" d="
  M 319.21 195.66
  L 319.08 204.10"
/>
<path stroke="#8a96d2" vector-effect="non-scaling-stroke" d="
  M 319.08 204.10
  L 267.76 204.49"
/>
<path stroke="#3d52d0" vector-effect="non-scaling-stroke" d="
  M 267.76 204.49
  Q 261.28 204.75 254.88 204.70
  C 253.12 204.68 251.98 204.10 250.79 202.96
  Q 221.99 175.52 192.52 147.76"
/>
<path stroke="#9979a0" vector-effect="non-scaling-stroke" d="
  M 333.56 197.40
  L 321.30 195.62"
/>
<path stroke="#98a3e2" vector-effect="non-scaling-stroke" d="
  M 321.30 195.62
  L 289.65 162.04"
/>
<path stroke="#f8aca2" vector-effect="non-scaling-stroke" d="
  M 198.27 274.01
  Q 191.98 275.55 187.07 277.84
  Q 184.14 279.20 180.89 281.75"
/>
<path stroke="#f3f2fa" vector-effect="non-scaling-stroke" d="
  M 180.89 281.75
  Q 174.81 286.04 178.73 291.39
  Q 180.45 293.74 183.86 295.43
  Q 186.69 296.82 190.02 297.88
  Q 201.64 301.59 213.70 302.45"
/>
<path stroke="#dbdade" vector-effect="non-scaling-stroke" d="
  M 213.70 302.45
  L 171.02 412.87
  Q 170.94 413.07 171.14 413.14
  L 179.45 416.33
  Q 179.62 416.40 179.69 416.22
  L 211.01 335.20
  A 1.46 1.43 -87.2 0 1 211.94 334.34
  L 236.01 326.94
  Q 237.39 326.51 238.78 326.94
  L 262.72 334.29
  A 1.74 1.71 -1.7 0 1 263.81 335.30
  L 270.93 353.31"
/>
<path stroke="#9a9ebc" vector-effect="non-scaling-stroke" d="
  M 270.93 353.31
  L 226.98 423.77"
/>
<path stroke="#979699" vector-effect="non-scaling-stroke" d="
  M 226.98 423.77
  Q 222.94 426.90 219.40 431.65
  Q 216.95 434.93 216.93 438.59"
/>
<path stroke="#f3f2fa" vector-effect="non-scaling-stroke" d="
  M 216.93 438.59
  Q 214.49 441.45 215.96 444.53
  C 216.92 446.55 218.99 447.78 221.04 448.41
  Q 230.22 451.26 240.64 453.16
  Q 253.51 455.51 266.52 457.15
  Q 267.02 457.22 267.33 456.81
  Q 269.27 454.17 267.98 451.65"
/>
<path stroke="#979699" vector-effect="non-scaling-stroke" d="
  M 267.98 451.65
  C 273.58 438.24 259.23 436.52 250.51 437.86
  Q 249.95 437.94 249.92 437.38
  Q 249.85 435.68 250.49 434.85"
/>
<path stroke="#f3f2fa" vector-effect="non-scaling-stroke" d="
  M 250.49 434.85
  Q 264.46 423.00 277.17 410.25
  Q 282.64 404.77 288.36 398.82"
/>
<path stroke="#dbdade" vector-effect="non-scaling-stroke" d="
  M 288.36 398.82
  L 294.94 415.87
  A 0.60 0.60 0.0 0 0 295.72 416.21
  L 303.51 413.19
  A 0.38 0.37 69.4 0 0 303.72 412.71
  L 295.30 390.85"
/>
<path stroke="#f3f2fa" vector-effect="non-scaling-stroke" d="
  M 295.30 390.85
  Q 296.53 390.01 297.23 389.24
  Q 307.38 378.09 315.34 367.39
  Q 316.21 366.23 317.17 365.10
  Q 318.11 364.01 318.89 362.75
  Q 321.04 359.27 323.24 355.90
  C 326.47 350.94 328.86 346.13 331.20 340.99
  Q 333.50 335.97 332.52 331.44"
/>
<path stroke="#9a9ebc" vector-effect="non-scaling-stroke" d="
  M 332.52 331.44
  Q 332.77 329.20 333.02 326.86
  C 333.58 321.76 332.28 317.98 329.25 313.75
  Q 323.75 306.09 318.70 298.81
  Q 318.33 298.26 318.99 298.32
  L 333.21 299.58
  A 0.89 0.88 -88.2 0 1 334.01 300.44
  L 337.57 433.99"
/>
<path stroke="#979699" vector-effect="non-scaling-stroke" d="
  M 337.57 433.99
  Q 337.31 436.54 336.09 441.82
  Q 334.63 448.09 337.90 452.79"
/>
<path stroke="#f3f2fa" vector-effect="non-scaling-stroke" d="
  M 337.90 452.79
  Q 336.99 453.19 337.25 454.27
  Q 338.55 459.66 344.32 458.94
  Q 349.12 458.34 357.99 455.09
  Q 374.03 449.20 389.23 442.18
  A 0.99 0.99 0.0 0 0 389.80 441.24
  Q 389.68 439.19 388.72 437.18
  Q 388.09 435.86 387.57 436.54"
/>
<path stroke="#979699" vector-effect="non-scaling-stroke" d="
  M 387.57 436.54
  C 385.70 421.95 371.90 428.50 365.45 434.04
  Q 365.05 434.38 364.80 433.92
  Q 363.35 431.25 363.29 429.56"
/>
<path stroke="#f3f2fa" vector-effect="non-scaling-stroke" d="
  M 363.29 429.56
  L 369.13 401.25
  A 1.32 1.32 0.0 0 0 369.01 400.39
  Q 368.25 398.89 367.92 399.26
  Q 367.58 399.62 367.65 399.13
  Q 367.79 398.09 367.26 397.68"
/>
<path stroke="#9a9ebc" vector-effect="non-scaling-stroke" d="
  M 367.26 397.68
  C 372.86 368.33 377.68 335.70 377.63 305.14
  Q 377.62 298.68 376.91 291.50
  C 376.08 282.95 374.60 274.39 370.15 267.10
  Q 367.60 262.94 361.74 260.60
  Q 344.72 253.82 327.93 247.72"
/>
<path stroke="#edecef" vector-effect="non-scaling-stroke" d="
  M 327.93 247.72
  L 337.51 218.28
  A 0.59 0.58 8.8 0 1 338.07 217.88
  L 542.62 217.87
  A 0.76 0.76 0.0 0 1 543.35 218.43
  L 605.66 439.64
  A 0.50 0.50 0.0 0 0 606.27 439.99
  L 619.52 436.24
  A 0.55 0.55 0.0 0 0 619.90 435.56
  L 558.71 218.34
  Q 558.58 217.86 559.08 217.86
  L 591.42 217.85"
/>
<path stroke="#eeecf3" stroke-opacity="0.525" vector-effect="non-scaling-stroke" d="
  M 592.66 219.90
  Q 607.45 242.65 621.62 265.95
  Q 627.20 275.12 631.38 283.39
  C 644.62 309.52 657.49 337.15 659.67 366.52
  C 662.75 408.07 641.20 444.00 612.78 472.75
  Q 592.88 492.88 569.08 510.32
  Q 509.07 554.27 439.19 581.54
  C 423.55 587.65 407.00 592.49 390.44 594.96
  Q 344.09 601.89 300.58 584.61
  Q 294.74 582.29 288.75 579.78"
/>
<path stroke="#c19ffa" vector-effect="non-scaling-stroke" d="
  M 153.73 410.51
  Q 149.58 398.68 138.30 396.32
  C 133.76 395.37 127.41 395.81 122.00 395.72"
/>
<path stroke="#f3f2fa" vector-effect="non-scaling-stroke" d="
  M 528.78 133.43
  Q 527.78 133.92 527.83 135.75
  Q 528.18 149.43 527.95 193.74
  Q 527.92 199.20 523.32 203.70"
/>
<path stroke="#e6e6ea" vector-effect="non-scaling-stroke" d="
  M 523.32 203.70
  Q 522.02 203.80 521.71 202.71"
/>
<path stroke="#edecef" vector-effect="non-scaling-stroke" d="
  M 548.49 157.55
  L 546.00 160.06
  Q 545.26 160.82 545.65 161.80
  C 546.08 162.87 547.23 163.84 548.27 164.29
  Q 550.94 165.45 553.83 166.62
  Q 554.33 166.82 554.56 167.29
  Q 554.81 167.79 554.46 168.27
  Q 554.14 168.73 553.57 168.75
  L 540.75 169.09
  A 0.68 0.67 89.6 0 0 540.10 169.76
  Q 540.07 183.87 539.63 197.87
  C 539.56 200.11 538.81 201.73 540.86 203.47
  Q 541.94 204.38 540.53 204.38
  L 523.47 204.36
  Q 523.22 204.36 523.13 204.12
  Q 523.05 203.92 523.32 203.70"
/>
<path stroke="#a6a1ef" vector-effect="non-scaling-stroke" d="
  M 557.85 169.60
  L 541.34 169.73
  A 0.59 0.59 0.0 0 0 540.75 170.32
  Q 540.73 184.03 540.72 197.80
  Q 540.72 200.89 543.07 202.65
  Q 544.61 203.80 548.20 203.82
  Q 555.98 203.85 563.28 203.88"
/>
<path stroke="#929bde" vector-effect="non-scaling-stroke" d="
  M 563.28 203.88
  L 566.84 203.59"
/>
<path stroke="#a6a1ef" vector-effect="non-scaling-stroke" d="
  M 566.84 203.59
  Q 571.59 202.12 571.47 196.52"
/>
<path stroke="#edecef" vector-effect="non-scaling-stroke" d="
  M 571.47 196.52
  C 571.24 199.36 572.44 201.33 569.99 203.50
  A 0.47 0.47 0.0 0 0 570.30 204.32
  L 582.30 204.39"
/>
<path stroke="#8c92ac" vector-effect="non-scaling-stroke" d="
  M 327.93 247.72
  L 313.85 243.42"
/>
<path stroke="#edecef" vector-effect="non-scaling-stroke" d="
  M 313.85 243.42
  L 321.94 218.23
  Q 322.06 217.84 321.65 217.84
  L 289.73 217.87"
/>
<path stroke="#929bde" vector-effect="non-scaling-stroke" d="
  M 289.73 217.87
  L 268.25 217.91
  A 0.48 0.47 90.0 0 1 267.78 217.43
  L 267.76 204.49"
/>
<path stroke="#eec2ae" vector-effect="non-scaling-stroke" d="
  M 319.08 204.10
  L 343.20 203.80"
/>
<path stroke="#9fa8ee" vector-effect="non-scaling-stroke" d="
  M 289.73 217.87
  L 289.71 236.98"
/>
<path stroke="#3f4eab" vector-effect="non-scaling-stroke" d="
  M 289.71 236.98
  L 191.30 236.86"
/>
<path stroke="#fbcebe" vector-effect="non-scaling-stroke" d="
  M 321.30 195.62
  Q 320.63 196.04 319.21 195.66"
/>
<path stroke="#675df3" stroke-opacity="0.525" vector-effect="non-scaling-stroke" d="
  M 574.74 190.96
  C 581.98 186.93 580.22 177.14 571.87 175.75
  Q 571.28 175.65 571.28 175.05
  L 571.29 170.27
  A 0.58 0.58 0.0 0 0 570.82 169.70
  Q 569.94 169.51 568.72 169.78"
/>
<path stroke="#4153d2" stroke-opacity="0.525" vector-effect="non-scaling-stroke" d="
  M 568.72 169.78
  Q 568.57 169.79 567.96 169.43"
/>
<path stroke="#675df3" stroke-opacity="0.525" vector-effect="non-scaling-stroke" d="
  M 567.96 169.43
  Q 565.90 169.35 563.83 169.36
  C 562.03 169.37 560.11 170.01 557.81 169.22"
/>
<path stroke="#585dee" vector-effect="non-scaling-stroke" d="
  M 567.96 169.43
  Q 565.50 169.39 563.06 169.50
  Q 563.00 169.50 562.98 169.55
  Q 562.95 169.59 562.97 169.64
  Q 563.02 169.74 563.13 169.74
  Q 564.49 169.79 565.75 169.79
  Q 566.22 169.79 566.30 170.25
  Q 566.34 170.45 566.15 170.63
  Q 565.86 170.92 565.86 171.33
  Q 565.88 184.59 565.88 198.25
  C 565.88 199.35 565.35 200.43 564.52 201.40
  Q 563.52 202.55 563.28 203.88"
/>
<path stroke="#585dee" vector-effect="non-scaling-stroke" d="
  M 568.72 169.78
  Q 568.56 179.21 568.63 188.69
  Q 568.63 188.79 568.47 190.28
  Q 568.38 191.18 568.58 192.51
  Q 569.36 197.65 566.84 203.59"
/>
<path stroke="#b3adff" vector-effect="non-scaling-stroke" d="
  M 573.59 191.71
  Q 570.72 190.18 571.47 196.52"
/>
<path stroke="#675df3" stroke-opacity="0.525" vector-effect="non-scaling-stroke" d="
  M 571.33 179.01
  L 571.29 188.31
  A 0.14 0.14 0.0 0 0 571.42 188.45
  L 571.46 188.45
  A 4.73 4.66 -89.7 0 0 576.15 183.74
  L 576.15 183.62
  A 4.73 4.66 -89.7 0 0 571.52 178.87
  L 571.48 178.87
  A 0.14 0.14 0.0 0 0 571.33 179.01"
/>
<path stroke="#9a9ebc" vector-effect="non-scaling-stroke" d="
  M 313.85 243.42
  Q 302.12 240.19 290.29 239.73
  Q 289.79 239.71 289.77 239.21
  L 289.71 236.98"
/>
<path stroke="#9398b7" vector-effect="non-scaling-stroke" d="
  M 367.26 397.68
  L 361.43 426.39"
/>
<path stroke="#363c56" vector-effect="non-scaling-stroke" d="
  M 361.43 426.39
  Q 352.90 429.49 344.04 432.38
  Q 341.03 433.36 337.57 433.99"
/>
<path stroke="#9398b7" vector-effect="non-scaling-stroke" d="
  M 332.52 331.44
  Q 329.26 342.28 323.66 351.16
  Q 311.27 370.81 294.33 388.45"
/>
<path stroke="#7b809b" vector-effect="non-scaling-stroke" d="
  M 294.33 388.45
  L 287.62 395.72"
/>
<path stroke="#9398b7" vector-effect="non-scaling-stroke" d="
  M 287.62 395.72
  Q 270.00 414.05 250.86 430.76"
/>
<path stroke="#363c56" vector-effect="non-scaling-stroke" d="
  M 250.86 430.76
  L 226.98 423.77"
/>
<path stroke="#7b809b" vector-effect="non-scaling-stroke" d="
  M 270.93 353.31
  L 277.13 343.38"
/>
<path stroke="#9a9ebc" vector-effect="non-scaling-stroke" d="
  M 277.13 343.38
  L 284.49 331.53
  Q 284.65 331.28 284.42 331.10
  L 267.29 317.38"
/>
<path stroke="#7b809b" vector-effect="non-scaling-stroke" d="
  M 267.29 317.38
  L 252.63 305.55"
/>
<path stroke="#9a9ebc" vector-effect="non-scaling-stroke" d="
  M 252.63 305.55
  L 247.88 301.92"
/>
<path stroke="#97525f" vector-effect="non-scaling-stroke" d="
  M 247.88 301.92
  Q 247.60 301.84 247.46 301.50
  Q 247.29 301.07 246.94 300.79
  Q 240.76 295.85 234.62 290.88
  Q 233.80 290.22 232.74 290.15
  Q 212.74 288.73 200.34 273.29"
/>
<path stroke="#25a55d" vector-effect="non-scaling-stroke" d="
  M 113.01 252.77
  Q 115.23 286.10 114.96 319.33
  A 0.38 0.38 0.0 0 1 114.38 319.65
  Q 94.65 307.72 71.76 304.75
  Q 67.93 304.26 59.42 304.55"
/>
<path stroke="#86e0ad" vector-effect="non-scaling-stroke" d="
  M 101.23 279.89
  L 99.49 263.81"
/>
<path stroke="#25a55d" vector-effect="non-scaling-stroke" d="
  M 115.20 252.94
  Q 115.13 253.54 115.16 253.99
  Q 117.52 292.63 116.27 333.61
  Q 116.25 334.40 116.75 333.79
  Q 132.06 314.76 155.27 309.33
  C 156.89 308.95 158.57 308.99 160.23 308.77"
/>
<path stroke="#25a55d" vector-effect="non-scaling-stroke" d="
  M 160.61 310.18
  Q 133.32 314.90 116.91 336.65
  A 4.22 4.19 64.8 0 0 116.07 339.02
  Q 115.39 357.20 112.55 375.73
  Q 112.45 376.40 113.09 376.18
  Q 127.27 371.39 142.80 373.55
  C 145.67 373.95 148.41 374.76 151.33 375.21"
/>
<path stroke="#25a55d" vector-effect="non-scaling-stroke" d="
  M 150.51 377.25
  Q 131.24 371.52 112.61 378.41
  A 1.20 1.18 86.8 0 0 111.87 379.25
  L 107.88 395.74"
/>
<path stroke="#6064aa" vector-effect="non-scaling-stroke" d="
  M 107.88 395.74
  L 105.54 395.86"
/>
<path stroke="#25a55d" vector-effect="non-scaling-stroke" d="
  M 105.54 395.86
  Q 110.54 381.07 112.05 365.34
  A 1.14 1.13 -74.6 0 0 111.41 364.20
  C 106.61 361.90 101.35 360.56 96.05 360.01
  Q 78.67 358.21 61.29 361.20"
/>
<path stroke="#25a55d" vector-effect="non-scaling-stroke" d="
  M 61.47 359.04
  Q 76.37 357.21 92.25 357.86
  Q 102.69 358.28 111.96 362.28
  Q 112.46 362.49 112.52 361.95
  Q 114.57 342.23 114.90 322.79
  A 1.47 1.46 -74.5 0 0 114.18 321.51
  Q 97.50 311.70 78.75 307.77
  Q 70.23 305.99 58.75 306.05"
/>
<path stroke="#f8aca2" vector-effect="non-scaling-stroke" d="
  M 247.88 301.92
  Q 246.15 302.55 244.97 302.07"
/>
<path stroke="#d98e80" vector-effect="non-scaling-stroke" d="
  M 244.97 302.07
  Q 229.41 302.66 214.09 301.22"
/>
<path stroke="#f1a69d" vector-effect="non-scaling-stroke" d="
  M 214.09 301.22
  C 204.73 299.92 195.49 298.32 186.83 294.41
  Q 183.26 292.79 181.17 290.55
  Q 177.87 287.00 180.89 281.75"
/>
<path stroke="#d4d4d9" vector-effect="non-scaling-stroke" d="
  M 214.09 301.22
  L 213.70 302.45"
/>
<path stroke="#dbdade" vector-effect="non-scaling-stroke" d="
  M 244.97 302.07
  Q 244.50 302.44 243.66 302.36
  Q 243.56 302.35 243.58 302.45
  Q 243.61 302.59 243.63 302.72
  Q 243.73 303.21 243.23 303.21
  L 224.24 303.12
  A 1.18 1.17 10.6 0 0 223.12 303.88
  L 220.40 310.93
  Q 220.17 311.51 220.77 311.70
  L 236.75 316.61
  A 2.15 2.15 0.0 0 0 238.03 316.61
  L 254.15 311.67
  Q 254.58 311.54 254.44 311.11
  L 252.63 305.55"
/>
<path stroke="#dbdade" vector-effect="non-scaling-stroke" d="
  M 267.29 317.38
  Q 271.64 331.03 277.13 343.38"
/>
<path stroke="#dbdade" vector-effect="non-scaling-stroke" d="
  M 216.60 320.78
  L 215.74 322.98
  Q 215.52 323.54 216.09 323.36
  L 220.80 321.89
  Q 221.62 321.63 220.80 321.39
  L 217.44 320.38
  Q 216.83 320.19 216.60 320.78"
/>
<path stroke="#dbdade" vector-effect="non-scaling-stroke" d="
  M 257.51 320.33
  L 253.77 321.43
  Q 253.13 321.61 253.76 321.81
  L 258.92 323.44
  Q 259.28 323.55 259.14 323.21
  L 258.12 320.63
  A 0.51 0.50 71.0 0 0 257.51 320.33"
/>
<path stroke="#d4d4d9" vector-effect="non-scaling-stroke" d="
  M 295.30 390.85
  Q 295.17 389.69 294.33 388.45"
/>
<path stroke="#4d87a8" vector-effect="non-scaling-stroke" d="
  M 105.54 395.86
  L 85.10 395.86"
/>
<path stroke="#4d87a8" vector-effect="non-scaling-stroke" d="
  M 119.39 395.72
  L 107.88 395.74"
/>
<path stroke="#d4d4d9" vector-effect="non-scaling-stroke" d="
  M 288.36 398.82
  Q 287.59 397.61 287.62 395.72"
/>
<path stroke="#909094" vector-effect="non-scaling-stroke" d="
  M 250.49 434.85
  L 250.86 430.76"
/>
<path stroke="#909094" vector-effect="non-scaling-stroke" d="
  M 363.29 429.56
  L 361.43 426.39"
/>
<path stroke="#909094" vector-effect="non-scaling-stroke" d="
  M 267.98 451.65
  Q 267.70 452.11 267.25 452.06
  Q 246.94 449.72 227.07 444.92
  C 222.80 443.89 218.56 442.80 216.93 438.59"
/>
<path stroke="#909094" vector-effect="non-scaling-stroke" d="
  M 387.57 436.54
  Q 387.60 437.11 387.27 437.26
  Q 374.43 443.35 358.00 449.44
  Q 351.12 452.00 343.99 453.69
  Q 340.93 454.42 337.90 452.79"
/>
</g>
<path fill="#04050c" fill-opacity="0.051" d="
  M 281.66 35.24
  Q 278.47 25.92 270.24 20.54
  Q 268.76 19.58 263.28 16.95
  C 256.80 13.86 257.73 3.67 247.75 5.20
  C 239.69 6.44 233.73 10.60 227.40 15.36
  Q 225.72 16.63 223.73 17.62
  C 220.07 19.45 214.62 19.37 212.08 20.33
  C 204.74 23.12 201.29 28.92 201.12 36.68
  Q 201.09 38.11 200.24 39.73
  Q 194.28 51.00 195.03 63.96
  Q 194.27 63.86 194.34 62.85
  Q 194.38 62.16 193.78 62.38
  Q 193.67 62.42 193.58 62.34
  Q 193.26 62.05 193.22 61.63
  Q 192.77 56.85 193.41 53.03
  Q 193.80 50.65 193.82 48.48
  Q 193.84 46.16 194.60 44.18
  Q 196.33 39.74 198.33 35.40
  C 199.17 33.59 199.25 32.09 199.04 30.17
  C 198.89 28.79 199.63 28.17 199.97 26.95
  Q 201.60 21.23 206.18 17.97
  Q 210.16 15.15 216.47 14.49
  Q 218.37 14.29 221.11 13.29
  Q 223.57 12.40 225.62 10.94
  Q 229.39 8.28 233.15 5.56
  C 235.67 3.74 238.83 2.71 241.72 1.41
  Q 242.95 0.86 244.31 0.67
  C 248.14 0.14 251.37 -0.56 254.45 2.16
  Q 256.38 3.86 257.33 6.06
  Q 258.23 8.14 259.76 9.57
  Q 262.79 12.39 265.89 13.76
  Q 275.05 17.81 279.60 26.20
  Q 280.03 26.99 280.24 27.93
  Q 280.45 28.88 280.60 29.85
  Q 280.66 30.23 280.99 30.44
  Q 281.95 31.04 281.62 32.27
  Q 281.41 33.04 281.88 33.64
  A 1.29 1.26 -64.4 0 1 282.16 34.47
  Q 282.16 35.10 281.66 35.24
  Z"
/>
<path fill="#000000" d="
  M 281.66 35.24
  Q 282.17 36.77 282.73 40.75
  Q 283.15 43.65 281.31 45.17
  Q 280.95 45.47 281.05 45.93
  L 283.22 55.27
  Q 284.18 63.08 282.24 71.65
  Q 280.72 77.51 277.33 83.37
  Q 282.98 67.39 275.98 52.36
  Q 275.77 51.90 275.28 52.03
  Q 272.01 52.88 268.88 52.21
  Q 259.86 50.29 247.55 46.72
  C 242.26 45.19 236.26 44.02 230.80 44.61
  C 218.01 45.97 219.20 59.63 209.78 65.21
  A 0.45 0.45 0.0 0 1 209.10 64.87
  C 208.85 62.68 208.20 59.89 206.23 58.61
  C 203.26 56.69 201.51 62.15 201.32 64.01
  Q 199.67 79.87 208.74 92.76
  Q 196.70 81.27 195.06 64.55
  Q 194.86 64.58 195.03 63.96
  Q 194.28 51.00 200.24 39.73
  Q 201.09 38.11 201.12 36.68
  C 201.29 28.92 204.74 23.12 212.08 20.33
  C 214.62 19.37 220.07 19.45 223.73 17.62
  Q 225.72 16.63 227.40 15.36
  C 233.73 10.60 239.69 6.44 247.75 5.20
  C 257.73 3.67 256.80 13.86 263.28 16.95
  Q 268.76 19.58 270.24 20.54
  Q 278.47 25.92 281.66 35.24
  Z"
/>
<path fill="#fca47c" d="
  M 277.33 83.37
  Q 270.48 100.11 253.55 106.45
  Q 253.07 106.63 252.93 107.13
  Q 252.60 108.27 252.88 109.49
  Q 252.65 111.17 253.07 111.57
  Q 252.76 113.07 252.71 114.68
  Q 252.63 116.91 252.41 117.80
  C 249.49 129.32 233.32 130.26 229.01 119.22
  C 228.19 117.11 228.16 114.97 228.00 112.71
  Q 228.31 111.17 227.95 109.97
  Q 228.22 108.40 227.84 107.04
  Q 227.70 106.55 227.22 106.38
  L 225.10 105.62
  Q 215.07 101.05 208.74 92.76
  Q 199.67 79.87 201.32 64.01
  C 201.51 62.15 203.26 56.69 206.23 58.61
  C 208.20 59.89 208.85 62.68 209.10 64.87
  A 0.45 0.45 0.0 0 0 209.78 65.21
  C 219.20 59.63 218.01 45.97 230.80 44.61
  C 236.26 44.02 242.26 45.19 247.55 46.72
  Q 259.86 50.29 268.88 52.21
  Q 272.01 52.88 275.28 52.03
  Q 275.77 51.90 275.98 52.36
  Q 282.98 67.39 277.33 83.37
  Z"
/>
<path fill="#faf8ff" d="
  M 510.95 113.45
  Q 511.00 113.74 511.17 114.02
  Q 458.67 113.89 406.00 113.97
  Q 403.16 113.98 401.21 115.03
  Q 389.90 119.18 389.88 130.99
  Q 389.83 161.67 389.83 192.35
  Q 389.83 196.75 391.89 200.83
  Q 391.70 201.17 391.50 201.17
  Q 381.99 201.25 357.84 201.22
  C 355.21 201.21 353.50 202.07 352.92 204.66
  L 343.43 204.39
  Q 343.10 204.38 343.14 204.05
  Q 343.15 203.94 343.20 203.80
  Q 344.05 203.17 344.10 202.23
  Q 344.12 201.72 343.73 201.39
  Q 341.15 199.14 337.77 198.37
  Q 335.59 197.87 333.56 197.40
  L 371.38 129.67
  Q 376.79 121.20 376.35 112.52
  Q 376.22 109.94 373.34 107.60
  A 1.26 1.25 -31.2 0 0 372.27 107.34
  Q 370.00 107.82 368.70 109.75
  Q 363.79 117.02 360.93 125.80
  L 331.02 168.72
  Q 305.12 140.94 276.49 116.51
  Q 274.21 114.56 269.09 111.78
  Q 266.88 110.58 264.18 110.12
  C 260.25 109.46 257.27 108.75 252.88 109.49
  Q 252.60 108.27 252.93 107.13
  Q 253.07 106.63 253.55 106.45
  Q 270.48 100.11 277.33 83.37
  Q 280.72 77.51 282.24 71.65
  L 313.18 59.20
  Q 313.69 59.15 314.72 59.05
  Q 315.41 58.97 316.09 58.76
  Q 335.46 52.69 355.34 49.76
  Q 398.29 43.44 437.15 59.97
  C 464.65 71.66 489.72 91.67 510.64 113.57
  Q 510.68 113.62 510.74 113.58
  Q 510.85 113.51 510.95 113.45
  Z"
/>
<path fill="#ececf5" d="
  M 283.22 55.27
  Q 298.08 55.69 313.18 59.20
  L 282.24 71.65
  Q 284.18 63.08 283.22 55.27
  Z"
/>
<path fill="#ececf5" d="
  M 195.06 64.55
  Q 196.70 81.27 208.74 92.76
  Q 215.07 101.05 225.10 105.62
  L 213.24 114.72
  Q 213.03 114.89 213.18 115.11
  L 213.35 115.36
  A 0.29 0.28 56.0 0 0 213.74 115.44
  Q 220.28 111.06 227.95 109.97
  Q 228.31 111.17 228.00 112.71
  Q 220.72 114.25 213.11 118.76
  Q 205.85 123.07 198.79 131.27
  Q 192.03 139.12 192.52 147.76
  Q 191.32 152.98 191.31 157.50
  Q 191.29 197.09 191.30 236.86
  Q 191.02 246.55 191.55 251.75
  Q 192.70 263.23 200.34 273.29
  Q 199.68 273.80 198.27 274.01
  Q 198.18 272.69 197.20 272.16
  Q 196.62 271.84 196.28 271.28
  Q 192.44 265.05 190.49 257.89
  Q 189.18 253.09 189.24 246.33
  Q 189.60 202.86 189.20 155.85
  C 189.17 151.85 190.28 148.18 190.44 144.31
  Q 190.82 135.05 197.35 129.17
  Q 197.46 129.07 197.36 128.96
  L 197.17 128.75
  Q 196.92 128.47 196.64 128.72
  C 158.86 161.38 126.15 203.13 105.31 248.47
  Q 104.68 249.85 105.96 249.03
  Q 107.14 248.27 108.58 248.18
  Q 117.63 247.63 126.06 250.79
  C 130.77 252.55 134.03 255.53 136.35 260.03
  Q 138.49 264.19 139.49 268.00
  Q 141.10 274.12 142.80 280.32
  C 144.34 285.96 146.59 291.23 151.98 294.20
  C 160.33 298.81 164.50 306.66 163.12 316.46
  Q 162.66 319.77 160.67 323.07
  Q 159.38 325.21 158.20 327.02
  Q 157.83 327.59 157.19 328.15
  Q 156.65 328.62 156.47 329.38
  Q 156.35 329.89 156.00 330.29
  Q 150.25 337.01 147.68 342.43
  C 146.09 345.79 145.54 349.23 147.53 352.68
  Q 149.19 355.57 150.91 358.51
  Q 156.23 367.66 153.20 377.39
  C 152.29 380.29 149.13 383.77 146.15 384.38
  Q 141.86 385.27 136.94 386.01
  C 132.80 386.64 130.14 387.93 126.99 390.30
  Q 123.82 392.70 122.00 395.72
  L 119.39 395.72
  C 124.05 389.32 128.35 384.98 136.61 383.88
  C 142.10 383.15 147.56 382.88 150.51 377.25
  Q 150.94 376.89 151.33 375.21
  C 153.93 366.29 150.70 360.22 146.14 352.94
  C 142.68 347.42 146.15 340.67 149.92 335.94
  Q 151.43 334.04 156.43 327.23
  Q 162.26 319.28 160.61 310.18
  Q 160.51 309.33 160.23 308.77
  Q 158.34 302.48 153.61 298.87
  C 151.03 296.90 147.88 295.71 145.76 293.11
  C 141.57 287.95 140.13 279.51 138.46 273.00
  C 137.37 268.79 135.70 264.24 133.05 260.75
  C 129.09 255.53 121.49 253.34 115.20 252.94
  Q 113.86 252.64 113.01 252.77
  Q 105.59 251.74 102.24 257.01
  Q 101.63 257.97 100.84 260.37
  Q 100.19 262.34 99.49 263.81
  Q 93.94 276.78 90.98 290.38
  A 0.17 0.16 -2.3 0 0 91.19 290.57
  Q 97.41 288.70 99.74 283.47
  A 1.01 0.99 -1.1 0 1 100.23 282.97
  Q 101.08 282.55 100.90 281.48
  Q 100.74 280.46 101.23 279.89
  C 101.33 289.30 95.89 292.88 87.47 293.87
  C 79.69 294.77 72.18 296.53 65.03 299.83
  Q 61.63 301.39 59.42 304.55
  Q 58.91 304.35 58.75 306.05
  Q 57.82 309.69 60.44 313.34
  Q 62.73 316.53 64.88 319.82
  Q 73.28 332.68 66.35 346.40
  Q 63.31 352.41 61.47 359.04
  Q 60.98 359.91 61.29 361.20
  Q 61.29 365.95 64.85 368.39
  C 68.76 371.07 73.26 373.95 76.18 377.45
  C 80.54 382.67 83.26 389.30 85.10 395.86
  Q 82.40 395.74 79.76 395.78
  C 70.22 395.95 61.74 402.46 59.99 411.86
  C 58.12 421.89 63.26 431.39 72.71 434.86
  Q 76.31 436.19 81.88 436.14
  Q 106.98 435.95 133.02 436.11
  C 147.29 436.19 156.74 424.65 153.73 410.51
  Q 155.69 413.49 155.94 414.58
  C 158.82 427.38 149.95 440.12 136.37 440.28
  Q 131.13 440.34 126.31 440.10
  Q 125.66 440.06 126.02 440.61
  Q 127.29 442.52 128.65 444.33
  Q 139.85 459.20 151.19 471.81
  Q 191.35 516.45 240.24 551.31
  Q 262.30 567.04 288.75 579.78
  L 264.94 583.60
  Q 236.26 586.88 212.50 583.26
  Q 175.41 577.62 146.10 554.59
  C 124.67 537.76 107.24 515.39 93.08 491.88
  Q 73.70 459.70 57.58 421.58
  Q 33.18 363.90 13.27 299.47
  Q 10.15 289.36 5.93 268.61
  Q 1.15 245.07 0.00 225.62
  L 0.00 214.75
  Q 0.37 211.90 0.58 209.00
  C 4.43 156.00 43.23 122.31 87.99 100.22
  C 121.74 83.57 158.16 72.18 195.06 64.55
  Z"
/>
<path fill="#faf8ff" d="
  M 225.10 105.62
  L 227.22 106.38
  Q 227.70 106.55 227.84 107.04
  Q 228.22 108.40 227.95 109.97
  Q 220.28 111.06 213.74 115.44
  A 0.29 0.28 56.0 0 1 213.35 115.36
  L 213.18 115.11
  Q 213.03 114.89 213.24 114.72
  L 225.10 105.62
  Z"
/>
<path fill="#fca47c" d="
  M 371.38 129.67
  L 360.93 125.80
  Q 363.79 117.02 368.70 109.75
  Q 370.00 107.82 372.27 107.34
  A 1.26 1.25 -31.2 0 1 373.34 107.60
  Q 376.22 109.94 376.35 112.52
  Q 376.79 121.20 371.38 129.67
  Z"
/>
<path fill="#ececf5" d="
  M 331.02 168.72
  Q 330.83 169.19 330.61 169.43
  Q 330.22 169.83 329.84 169.43
  Q 307.97 146.70 283.66 125.19
  Q 277.93 119.20 270.40 114.93
  Q 267.02 113.01 263.03 112.43
  Q 258.18 111.73 253.07 111.57
  Q 252.65 111.17 252.88 109.49
  C 257.27 108.75 260.25 109.46 264.18 110.12
  Q 266.88 110.58 269.09 111.78
  Q 274.21 114.56 276.49 116.51
  Q 305.12 140.94 331.02 168.72
  Z"
/>
<path fill="#4457dc" d="
  M 283.66 125.19
  Q 288.71 135.27 289.46 142.00
  Q 290.04 147.22 289.65 162.04
  L 289.70 187.07
  L 263.40 179.50
  A 4.83 4.83 0.0 0 1 260.97 177.89
  L 213.11 118.76
  Q 220.72 114.25 228.00 112.71
  C 228.16 114.97 228.19 117.11 229.01 119.22
  C 233.32 130.26 249.49 129.32 252.41 117.80
  Q 252.63 116.91 252.71 114.68
  Q 252.76 113.07 253.07 111.57
  Q 258.18 111.73 263.03 112.43
  Q 267.02 113.01 270.40 114.93
  Q 277.93 119.20 283.66 125.19
  Z"
/>
<path fill="#04050c" fill-opacity="0.051" d="
  M 527.28 131.38
  Q 525.80 130.18 524.97 128.74
  Q 522.98 117.34 511.17 114.02
  Q 511.00 113.74 510.95 113.45
  Q 511.57 113.14 512.26 113.06
  Q 518.46 112.32 522.55 116.66
  Q 524.30 118.50 525.46 120.73
  Q 527.09 123.87 527.81 126.73
  Q 528.40 129.05 527.28 131.38
  Z"
/>
<path fill="#525360" d="
  M 511.17 114.02
  Q 522.98 117.34 524.97 128.74
  Q 525.02 159.93 525.00 191.00
  Q 525.00 198.08 521.71 202.71
  Q 516.23 209.53 507.25 209.53
  Q 455.88 209.56 404.50 209.29
  Q 403.77 209.29 403.00 209.29
  Q 380.57 209.26 358.14 209.24
  C 354.88 209.24 352.87 208.11 352.92 204.66
  C 353.50 202.07 355.21 201.21 357.84 201.22
  Q 381.99 201.25 391.50 201.17
  Q 391.70 201.17 391.89 200.83
  Q 394.13 205.21 399.64 207.85
  Q 400.51 208.26 400.89 207.97
  Q 401.38 207.60 400.81 207.37
  C 394.73 204.85 391.61 198.51 391.62 191.95
  Q 391.64 160.79 391.54 132.60
  Q 391.53 127.42 393.07 123.93
  Q 395.42 118.66 401.21 115.03
  Q 403.16 113.98 406.00 113.97
  Q 458.67 113.89 511.17 114.02
  Z
  M 468.91 161.06
  A 4.33 4.33 0.0 0 0 464.58 156.73
  A 4.33 4.33 0.0 0 0 460.25 161.06
  A 4.33 4.33 0.0 0 0 464.58 165.39
  A 4.33 4.33 0.0 0 0 468.91 161.06
  Z"
/>
<path fill="#333333" d="
  M 401.21 115.03
  Q 395.42 118.66 393.07 123.93
  Q 391.53 127.42 391.54 132.60
  Q 391.64 160.79 391.62 191.95
  C 391.61 198.51 394.73 204.85 400.81 207.37
  Q 401.38 207.60 400.89 207.97
  Q 400.51 208.26 399.64 207.85
  Q 394.13 205.21 391.89 200.83
  Q 389.83 196.75 389.83 192.35
  Q 389.83 161.67 389.88 130.99
  Q 389.90 119.18 401.21 115.03
  Z"
/>
<path fill="#354dc4" d="
  M 213.11 118.76
  L 260.97 177.89
  A 4.83 4.83 0.0 0 0 263.40 179.50
  L 289.70 187.07
  L 319.21 195.66
  L 319.08 204.10
  L 267.76 204.49
  Q 261.28 204.75 254.88 204.70
  C 253.12 204.68 251.98 204.10 250.79 202.96
  Q 221.99 175.52 192.52 147.76
  Q 192.03 139.12 198.79 131.27
  Q 205.85 123.07 213.11 118.76
  Z"
/>
<path fill="#354dc4" d="
  M 283.66 125.19
  Q 307.97 146.70 329.84 169.43
  Q 330.22 169.83 330.61 169.43
  Q 330.83 169.19 331.02 168.72
  L 360.93 125.80
  L 371.38 129.67
  L 333.56 197.40
  L 321.30 195.62
  L 289.65 162.04
  Q 290.04 147.22 289.46 142.00
  Q 288.71 135.27 283.66 125.19
  Z"
/>
<path fill="#faf8ff" d="
  M 198.27 274.01
  Q 191.98 275.55 187.07 277.84
  Q 184.14 279.20 180.89 281.75
  Q 174.81 286.04 178.73 291.39
  Q 180.45 293.74 183.86 295.43
  Q 186.69 296.82 190.02 297.88
  Q 201.64 301.59 213.70 302.45
  L 171.02 412.87
  Q 170.94 413.07 171.14 413.14
  L 179.45 416.33
  Q 179.62 416.40 179.69 416.22
  L 211.01 335.20
  A 1.46 1.43 -87.2 0 1 211.94 334.34
  L 236.01 326.94
  Q 237.39 326.51 238.78 326.94
  L 262.72 334.29
  A 1.74 1.71 -1.7 0 1 263.81 335.30
  L 270.93 353.31
  L 226.98 423.77
  Q 222.94 426.90 219.40 431.65
  Q 216.95 434.93 216.93 438.59
  Q 214.49 441.45 215.96 444.53
  C 216.92 446.55 218.99 447.78 221.04 448.41
  Q 230.22 451.26 240.64 453.16
  Q 253.51 455.51 266.52 457.15
  Q 267.02 457.22 267.33 456.81
  Q 269.27 454.17 267.98 451.65
  C 273.58 438.24 259.23 436.52 250.51 437.86
  Q 249.95 437.94 249.92 437.38
  Q 249.85 435.68 250.49 434.85
  Q 264.46 423.00 277.17 410.25
  Q 282.64 404.77 288.36 398.82
  L 294.94 415.87
  A 0.60 0.60 0.0 0 0 295.72 416.21
  L 303.51 413.19
  A 0.38 0.37 69.4 0 0 303.72 412.71
  L 295.30 390.85
  Q 296.53 390.01 297.23 389.24
  Q 307.38 378.09 315.34 367.39
  Q 316.21 366.23 317.17 365.10
  Q 318.11 364.01 318.89 362.75
  Q 321.04 359.27 323.24 355.90
  C 326.47 350.94 328.86 346.13 331.20 340.99
  Q 333.50 335.97 332.52 331.44
  Q 332.77 329.20 333.02 326.86
  C 333.58 321.76 332.28 317.98 329.25 313.75
  Q 323.75 306.09 318.70 298.81
  Q 318.33 298.26 318.99 298.32
  L 333.21 299.58
  A 0.89 0.88 -88.2 0 1 334.01 300.44
  L 337.57 433.99
  Q 337.31 436.54 336.09 441.82
  Q 334.63 448.09 337.90 452.79
  Q 336.99 453.19 337.25 454.27
  Q 338.55 459.66 344.32 458.94
  Q 349.12 458.34 357.99 455.09
  Q 374.03 449.20 389.23 442.18
  A 0.99 0.99 0.0 0 0 389.80 441.24
  Q 389.68 439.19 388.72 437.18
  Q 388.09 435.86 387.57 436.54
  C 385.70 421.95 371.90 428.50 365.45 434.04
  Q 365.05 434.38 364.80 433.92
  Q 363.35 431.25 363.29 429.56
  L 369.13 401.25
  A 1.32 1.32 0.0 0 0 369.01 400.39
  Q 368.25 398.89 367.92 399.26
  Q 367.58 399.62 367.65 399.13
  Q 367.79 398.09 367.26 397.68
  C 372.86 368.33 377.68 335.70 377.63 305.14
  Q 377.62 298.68 376.91 291.50
  C 376.08 282.95 374.60 274.39 370.15 267.10
  Q 367.60 262.94 361.74 260.60
  Q 344.72 253.82 327.93 247.72
  L 337.51 218.28
  A 0.59 0.58 8.8 0 1 338.07 217.88
  L 542.62 217.87
  A 0.76 0.76 0.0 0 1 543.35 218.43
  L 605.66 439.64
  A 0.50 0.50 0.0 0 0 606.27 439.99
  L 619.52 436.24
  A 0.55 0.55 0.0 0 0 619.90 435.56
  L 558.71 218.34
  Q 558.58 217.86 559.08 217.86
  L 591.42 217.85
  L 592.66 219.90
  Q 607.45 242.65 621.62 265.95
  Q 627.20 275.12 631.38 283.39
  C 644.62 309.52 657.49 337.15 659.67 366.52
  C 662.75 408.07 641.20 444.00 612.78 472.75
  Q 592.88 492.88 569.08 510.32
  Q 509.07 554.27 439.19 581.54
  C 423.55 587.65 407.00 592.49 390.44 594.96
  Q 344.09 601.89 300.58 584.61
  Q 294.74 582.29 288.75 579.78
  Q 262.30 567.04 240.24 551.31
  Q 191.35 516.45 151.19 471.81
  Q 139.85 459.20 128.65 444.33
  Q 127.29 442.52 126.02 440.61
  Q 125.66 440.06 126.31 440.10
  Q 131.13 440.34 136.37 440.28
  C 149.95 440.12 158.82 427.38 155.94 414.58
  Q 155.69 413.49 153.73 410.51
  Q 149.58 398.68 138.30 396.32
  C 133.76 395.37 127.41 395.81 122.00 395.72
  Q 123.82 392.70 126.99 390.30
  C 130.14 387.93 132.80 386.64 136.94 386.01
  Q 141.86 385.27 146.15 384.38
  C 149.13 383.77 152.29 380.29 153.20 377.39
  Q 156.23 367.66 150.91 358.51
  Q 149.19 355.57 147.53 352.68
  C 145.54 349.23 146.09 345.79 147.68 342.43
  Q 150.25 337.01 156.00 330.29
  Q 156.35 329.89 156.47 329.38
  Q 156.65 328.62 157.19 328.15
  Q 157.83 327.59 158.20 327.02
  Q 159.38 325.21 160.67 323.07
  Q 162.66 319.77 163.12 316.46
  C 164.50 306.66 160.33 298.81 151.98 294.20
  C 146.59 291.23 144.34 285.96 142.80 280.32
  Q 141.10 274.12 139.49 268.00
  Q 138.49 264.19 136.35 260.03
  C 134.03 255.53 130.77 252.55 126.06 250.79
  Q 117.63 247.63 108.58 248.18
  Q 107.14 248.27 105.96 249.03
  Q 104.68 249.85 105.31 248.47
  C 126.15 203.13 158.86 161.38 196.64 128.72
  Q 196.92 128.47 197.17 128.75
  L 197.36 128.96
  Q 197.46 129.07 197.35 129.17
  Q 190.82 135.05 190.44 144.31
  C 190.28 148.18 189.17 151.85 189.20 155.85
  Q 189.60 202.86 189.24 246.33
  Q 189.18 253.09 190.49 257.89
  Q 192.44 265.05 196.28 271.28
  Q 196.62 271.84 197.20 272.16
  Q 198.18 272.69 198.27 274.01
  Z"
/>
<path fill="#ececf5" d="
  M 524.97 128.74
  Q 525.80 130.18 527.28 131.38
  L 528.78 133.43
  Q 527.78 133.92 527.83 135.75
  Q 528.18 149.43 527.95 193.74
  Q 527.92 199.20 523.32 203.70
  Q 522.02 203.80 521.71 202.71
  Q 525.00 198.08 525.00 191.00
  Q 525.02 159.93 524.97 128.74
  Z"
/>
<path fill="#faf8ff" d="
  M 528.78 133.43
  L 548.49 157.55
  L 546.00 160.06
  Q 545.26 160.82 545.65 161.80
  C 546.08 162.87 547.23 163.84 548.27 164.29
  Q 550.94 165.45 553.83 166.62
  Q 554.33 166.82 554.56 167.29
  Q 554.81 167.79 554.46 168.27
  Q 554.14 168.73 553.57 168.75
  L 540.75 169.09
  A 0.68 0.67 89.6 0 0 540.10 169.76
  Q 540.07 183.87 539.63 197.87
  C 539.56 200.11 538.81 201.73 540.86 203.47
  Q 541.94 204.38 540.53 204.38
  L 523.47 204.36
  Q 523.22 204.36 523.13 204.12
  Q 523.05 203.92 523.32 203.70
  Q 527.92 199.20 527.95 193.74
  Q 528.18 149.43 527.83 135.75
  Q 527.78 133.92 528.78 133.43
  Z"
/>
<path fill="#dfdfdf" d="
  M 557.85 169.60
  L 541.34 169.73
  A 0.59 0.59 0.0 0 0 540.75 170.32
  Q 540.73 184.03 540.72 197.80
  Q 540.72 200.89 543.07 202.65
  Q 544.61 203.80 548.20 203.82
  Q 555.98 203.85 563.28 203.88
  L 566.84 203.59
  Q 571.59 202.12 571.47 196.52
  C 571.24 199.36 572.44 201.33 569.99 203.50
  A 0.47 0.47 0.0 0 0 570.30 204.32
  L 582.30 204.39
  L 612.73 204.33
  A 0.44 0.44 0.0 0 1 613.17 204.77
  L 613.17 217.25
  Q 613.17 217.86 612.55 217.86
  L 591.42 217.85
  L 559.08 217.86
  Q 558.58 217.86 558.71 218.34
  L 619.90 435.56
  A 0.55 0.55 0.0 0 1 619.52 436.24
  L 606.27 439.99
  A 0.50 0.50 0.0 0 1 605.66 439.64
  L 543.35 218.43
  A 0.76 0.76 0.0 0 0 542.62 217.87
  L 338.07 217.88
  A 0.59 0.58 8.8 0 0 337.51 218.28
  L 327.93 247.72
  L 313.85 243.42
  L 321.94 218.23
  Q 322.06 217.84 321.65 217.84
  L 289.73 217.87
  L 268.25 217.91
  A 0.48 0.47 90.0 0 1 267.78 217.43
  L 267.76 204.49
  L 319.08 204.10
  L 343.20 203.80
  Q 343.15 203.94 343.14 204.05
  Q 343.10 204.38 343.43 204.39
  L 352.92 204.66
  C 352.87 208.11 354.88 209.24 358.14 209.24
  Q 380.57 209.26 403.00 209.29
  Q 403.77 209.29 404.50 209.29
  Q 455.88 209.56 507.25 209.53
  Q 516.23 209.53 521.71 202.71
  Q 522.02 203.80 523.32 203.70
  Q 523.05 203.92 523.13 204.12
  Q 523.22 204.36 523.47 204.36
  L 540.53 204.38
  Q 541.94 204.38 540.86 203.47
  C 538.81 201.73 539.56 200.11 539.63 197.87
  Q 540.07 183.87 540.10 169.76
  A 0.68 0.67 89.6 0 1 540.75 169.09
  L 553.57 168.75
  Q 554.14 168.73 554.46 168.27
  Q 554.81 167.79 554.56 167.29
  Q 554.33 166.82 553.83 166.62
  Q 550.94 165.45 548.27 164.29
  C 547.23 163.84 546.08 162.87 545.65 161.80
  Q 545.26 160.82 546.00 160.06
  L 548.49 157.55
  Q 551.55 156.84 549.88 153.42
  C 548.91 151.42 547.26 150.41 545.65 149.04
  A 1.13 1.13 0.0 0 1 546.04 147.10
  C 549.22 146.11 552.56 145.78 555.84 146.79
  C 559.71 147.99 574.05 152.01 570.61 158.54
  A 1.78 1.78 0.0 0 1 569.58 159.40
  L 567.53 160.04
  A 0.78 0.77 -17.7 0 0 567.02 161.01
  L 567.62 162.95
  A 1.29 1.29 0.0 0 1 566.52 164.62
  C 563.49 164.93 559.15 164.98 556.85 167.24
  Q 556.48 167.61 556.69 168.09
  Q 556.98 168.75 557.85 169.60
  Z"
/>
<path fill="#4457dc" d="
  M 192.52 147.76
  Q 221.99 175.52 250.79 202.96
  C 251.98 204.10 253.12 204.68 254.88 204.70
  Q 261.28 204.75 267.76 204.49
  L 267.78 217.43
  A 0.48 0.47 90.0 0 0 268.25 217.91
  L 289.73 217.87
  L 289.71 236.98
  L 191.30 236.86
  Q 191.29 197.09 191.31 157.50
  Q 191.32 152.98 192.52 147.76
  Z"
/>
<circle fill="#dfdfdf" cx="464.58" cy="161.06" r="4.33"/>
<path fill="#faf8ff" d="
  M 289.65 162.04
  L 321.30 195.62
  Q 320.63 196.04 319.21 195.66
  L 289.70 187.07
  L 289.65 162.04
  Z"
/>
<path fill="#04050c" fill-opacity="0.051" d="
  M 574.74 190.96
  C 581.98 186.93 580.22 177.14 571.87 175.75
  Q 571.28 175.65 571.28 175.05
  L 571.29 170.27
  A 0.58 0.58 0.0 0 0 570.82 169.70
  Q 569.94 169.51 568.72 169.78
  Q 568.57 169.79 567.96 169.43
  Q 565.90 169.35 563.83 169.36
  C 562.03 169.37 560.11 170.01 557.81 169.22
  Q 559.20 167.98 561.00 167.85
  Q 563.44 167.67 571.44 168.25
  Q 572.12 168.30 572.12 168.99
  L 572.12 173.29
  A 1.83 1.83 0.0 0 0 573.97 175.12
  C 576.21 175.10 576.49 176.68 578.17 177.37
  A 2.60 2.59 -7.5 0 1 579.19 178.15
  Q 581.77 181.47 580.56 185.37
  Q 579.95 187.34 579.11 188.91
  Q 578.02 190.94 575.16 191.25
  Q 575.01 191.26 574.92 191.14
  Q 574.86 191.07 574.74 190.96
  Z"
/>
<path fill="#6c62ff" d="
  M 557.85 169.60
  Q 557.83 169.41 557.81 169.22
  C 560.11 170.01 562.03 169.37 563.83 169.36
  Q 565.90 169.35 567.96 169.43
  Q 565.50 169.39 563.06 169.50
  Q 563.00 169.50 562.98 169.55
  Q 562.95 169.59 562.97 169.64
  Q 563.02 169.74 563.13 169.74
  Q 564.49 169.79 565.75 169.79
  Q 566.22 169.79 566.30 170.25
  Q 566.34 170.45 566.15 170.63
  Q 565.86 170.92 565.86 171.33
  Q 565.88 184.59 565.88 198.25
  C 565.88 199.35 565.35 200.43 564.52 201.40
  Q 563.52 202.55 563.28 203.88
  Q 555.98 203.85 548.20 203.82
  Q 544.61 203.80 543.07 202.65
  Q 540.72 200.89 540.72 197.80
  Q 540.73 184.03 540.75 170.32
  A 0.59 0.59 0.0 0 1 541.34 169.73
  L 557.85 169.60
  Z"
/>
<path fill="#4457dc" d="
  M 567.96 169.43
  Q 568.57 169.79 568.72 169.78
  Q 568.56 179.21 568.63 188.69
  Q 568.63 188.79 568.47 190.28
  Q 568.38 191.18 568.58 192.51
  Q 569.36 197.65 566.84 203.59
  L 563.28 203.88
  Q 563.52 202.55 564.52 201.40
  C 565.35 200.43 565.88 199.35 565.88 198.25
  Q 565.88 184.59 565.86 171.33
  Q 565.86 170.92 566.15 170.63
  Q 566.34 170.45 566.30 170.25
  Q 566.22 169.79 565.75 169.79
  Q 564.49 169.79 563.13 169.74
  Q 563.02 169.74 562.97 169.64
  Q 562.95 169.59 562.98 169.55
  Q 563.00 169.50 563.06 169.50
  Q 565.50 169.39 567.96 169.43
  Z"
/>
<path fill="#6c62ff" d="
  M 574.74 190.96
  Q 574.09 191.18 573.59 191.71
  Q 570.72 190.18 571.47 196.52
  Q 571.59 202.12 566.84 203.59
  Q 569.36 197.65 568.58 192.51
  Q 568.38 191.18 568.47 190.28
  Q 568.63 188.79 568.63 188.69
  Q 568.56 179.21 568.72 169.78
  Q 569.94 169.51 570.82 169.70
  A 0.58 0.58 0.0 0 1 571.29 170.27
  L 571.28 175.05
  Q 571.28 175.65 571.87 175.75
  C 580.22 177.14 581.98 186.93 574.74 190.96
  Z
  M 571.33 179.01
  L 571.29 188.31
  A 0.14 0.14 0.0 0 0 571.42 188.45
  L 571.46 188.45
  A 4.73 4.66 -89.7 0 0 576.15 183.74
  L 576.15 183.62
  A 4.73 4.66 -89.7 0 0 571.52 178.87
  L 571.48 178.87
  A 0.14 0.14 0.0 0 0 571.33 179.01
  Z"
/>
<path fill="#04050c" fill-opacity="0.051" d="
  M 571.33 179.01
  A 0.14 0.14 0.0 0 1 571.48 178.87
  L 571.52 178.87
  A 4.73 4.66 -89.7 0 1 576.15 183.62
  L 576.15 183.74
  A 4.73 4.66 -89.7 0 1 571.46 188.45
  L 571.42 188.45
  A 0.14 0.14 0.0 0 1 571.29 188.31
  L 571.33 179.01
  Z"
/>
<path fill="#faf8ff" d="
  M 573.59 191.71
  L 582.30 204.39
  L 570.30 204.32
  A 0.47 0.47 0.0 0 1 569.99 203.50
  C 572.44 201.33 571.24 199.36 571.47 196.52
  Q 570.72 190.18 573.59 191.71
  Z"
/>
<path fill="#fca47c" d="
  M 321.30 195.62
  L 333.56 197.40
  Q 335.59 197.87 337.77 198.37
  Q 341.15 199.14 343.73 201.39
  Q 344.12 201.72 344.10 202.23
  Q 344.05 203.17 343.20 203.80
  L 319.08 204.10
  L 319.21 195.66
  Q 320.63 196.04 321.30 195.62
  Z"
/>
<path fill="#faf8ff" d="
  M 313.85 243.42
  Q 302.12 240.19 290.29 239.73
  Q 289.79 239.71 289.77 239.21
  L 289.71 236.98
  L 289.73 217.87
  L 321.65 217.84
  Q 322.06 217.84 321.94 218.23
  L 313.85 243.42
  Z"
/>
<path fill="#04050c" fill-opacity="0.051" d="
  M 592.66 219.90
  Q 597.40 220.28 598.22 223.37
  A 1.87 1.85 10.7 0 0 598.93 224.40
  Q 599.93 225.10 600.11 226.19
  Q 600.18 226.61 600.48 226.92
  Q 602.30 228.76 603.07 231.28
  A 2.28 2.27 -81.9 0 0 603.96 232.47
  Q 604.96 233.15 605.12 234.23
  Q 605.24 234.98 605.87 235.40
  Q 607.00 236.13 607.16 237.37
  Q 607.23 237.96 607.74 238.28
  Q 608.95 239.03 609.11 240.30
  Q 609.18 240.86 609.65 241.18
  Q 610.94 242.04 611.13 243.36
  Q 611.20 243.82 611.58 244.08
  Q 612.09 244.43 612.12 245.05
  Q 612.15 245.98 612.95 246.47
  Q 614.02 247.14 614.11 248.29
  Q 614.16 248.86 614.64 249.18
  Q 615.94 250.02 616.13 251.35
  Q 616.20 251.82 616.59 252.09
  Q 617.13 252.46 617.11 253.09
  Q 617.08 253.84 617.71 254.25
  Q 618.92 255.03 619.15 256.31
  Q 619.27 256.99 619.85 257.38
  Q 621.04 258.16 621.15 259.42
  Q 621.18 259.81 621.51 260.02
  Q 622.16 260.43 622.12 261.18
  Q 622.08 261.84 622.64 262.19
  Q 623.96 263.02 624.14 264.40
  Q 624.19 264.80 624.53 265.03
  Q 625.16 265.45 625.12 266.20
  Q 625.09 266.83 625.63 267.18
  Q 626.94 268.02 627.14 269.38
  Q 627.21 269.81 627.57 270.06
  Q 628.15 270.46 628.11 271.15
  A 1.18 1.17 -72.1 0 0 628.65 272.21
  Q 629.96 273.02 630.13 274.38
  Q 630.19 274.81 630.55 275.05
  Q 631.16 275.45 631.11 276.16
  Q 631.07 276.58 631.37 276.87
  L 632.75 278.26
  Q 633.16 278.67 633.15 279.24
  Q 633.13 280.02 633.89 280.29
  Q 634.47 280.49 634.19 281.04
  Q 634.12 281.19 634.10 281.36
  Q 634.06 281.69 634.35 281.87
  Q 635.08 282.31 635.11 283.17
  Q 635.13 283.64 635.50 283.92
  Q 636.01 284.32 636.06 284.93
  Q 636.10 285.53 636.52 285.96
  Q 638.36 287.87 639.11 290.38
  Q 639.24 290.82 639.61 291.08
  Q 640.16 291.48 640.09 292.13
  Q 640.02 292.70 640.51 293.01
  Q 641.19 293.45 641.10 294.23
  Q 641.05 294.68 641.43 294.93
  Q 642.06 295.34 642.08 296.08
  Q 642.09 296.49 642.34 296.82
  Q 643.54 298.39 644.12 300.34
  Q 644.25 300.81 644.64 301.10
  Q 645.15 301.50 645.09 302.11
  Q 645.03 302.70 645.52 303.02
  Q 646.16 303.44 646.12 304.19
  Q 646.09 304.83 646.64 305.15
  Q 647.15 305.44 647.09 306.02
  Q 647.02 306.57 647.44 306.94
  Q 648.45 307.83 648.10 309.21
  Q 647.98 309.67 648.40 309.91
  Q 649.12 310.32 649.07 311.12
  Q 649.04 311.71 649.54 312.03
  Q 650.18 312.45 650.09 313.18
  A 0.84 0.84 0.0 0 0 650.48 313.99
  Q 651.17 314.43 651.11 315.21
  Q 651.08 315.65 651.42 315.94
  Q 652.47 316.81 652.09 318.22
  A 0.60 0.60 0.0 0 0 652.38 318.91
  Q 653.11 319.31 653.07 320.11
  Q 653.04 320.71 653.55 321.05
  Q 654.14 321.44 654.10 322.12
  Q 654.07 322.66 654.49 323.02
  Q 655.43 323.81 655.11 325.03
  A 0.84 0.83 -62.8 0 0 655.38 325.89
  Q 656.47 326.80 656.10 328.25
  Q 655.99 328.65 656.35 328.86
  Q 657.11 329.32 657.11 330.21
  Q 657.11 330.78 657.59 331.10
  Q 657.79 331.23 657.92 331.43
  Q 658.27 331.96 658.12 332.59
  Q 657.87 333.58 658.66 334.17
  A 1.26 1.26 0.0 0 1 659.13 335.51
  Q 658.85 336.58 659.70 337.21
  A 1.19 1.17 26.0 0 1 660.14 338.45
  Q 659.83 339.61 660.78 340.28
  A 0.97 0.96 -64.5 0 1 661.14 341.32
  Q 660.80 342.46 661.69 343.16
  Q 662.12 343.50 662.12 344.06
  L 662.12 346.06
  Q 662.12 346.58 662.50 346.94
  Q 663.42 347.80 663.11 349.16
  Q 663.01 349.62 663.38 349.91
  C 665.09 351.29 663.18 353.01 664.74 354.27
  Q 665.12 354.58 665.12 355.08
  L 665.12 358.13
  Q 665.12 358.63 665.47 358.97
  L 665.78 359.28
  Q 666.12 359.62 666.12 360.11
  L 666.12 364.17
  Q 666.12 364.62 666.44 364.95
  L 666.71 365.22
  Q 667.12 365.63 667.12 366.20
  L 667.12 372.26
  Q 667.12 372.62 667.38 372.88
  L 667.84 373.35
  A 0.95 0.91 -68.8 0 1 668.12 374.02
  L 668.12 393.89
  Q 668.12 394.37 667.78 394.72
  L 667.47 395.03
  Q 667.12 395.38 667.12 395.87
  L 667.12 401.89
  Q 667.12 402.37 666.78 402.72
  L 666.47 403.03
  Q 666.12 403.38 666.12 403.87
  L 666.12 406.80
  Q 666.12 407.37 665.71 407.78
  L 665.47 408.03
  Q 665.12 408.38 665.12 408.87
  L 665.12 411.80
  Q 665.12 412.37 664.71 412.78
  L 664.43 413.07
  A 1.20 1.18 61.2 0 0 664.11 414.20
  Q 664.39 415.35 663.47 416.02
  A 1.06 1.06 0.0 0 0 663.07 417.13
  Q 663.54 418.99 662.38 420.12
  Q 661.99 420.50 662.11 421.04
  Q 662.41 422.37 661.35 423.14
  A 0.71 0.71 0.0 0 0 661.09 423.90
  Q 661.45 425.17 660.49 425.99
  Q 660.07 426.34 660.08 426.88
  Q 660.10 427.69 659.37 428.10
  A 0.60 0.59 -22.7 0 0 659.09 428.77
  Q 659.47 430.19 658.41 431.07
  Q 658.08 431.35 658.11 431.79
  Q 658.17 432.57 657.49 433.01
  Q 657.04 433.30 657.10 433.82
  Q 657.18 434.56 656.52 434.98
  Q 656.02 435.29 656.09 435.87
  Q 656.18 436.54 655.59 436.91
  Q 654.99 437.29 655.08 438.00
  Q 655.14 438.45 654.81 438.72
  Q 654.47 439.00 654.44 439.43
  L 654.18 443.22
  A 1.03 1.00 -20.4 0 1 653.87 443.87
  L 653.36 444.36
  Q 653.08 444.64 653.11 445.03
  Q 653.17 445.78 652.55 446.19
  Q 652.17 446.44 652.14 446.90
  Q 652.07 448.09 650.79 448.91
  Q 650.09 449.36 650.10 450.19
  Q 650.11 450.81 649.59 451.15
  Q 649.18 451.42 649.12 451.91
  Q 648.95 453.21 647.71 453.99
  Q 647.25 454.28 647.16 454.83
  Q 646.93 456.23 645.58 457.11
  Q 645.16 457.39 645.12 457.90
  Q 645.03 459.09 643.93 459.80
  Q 643.40 460.14 643.21 460.75
  Q 642.66 462.60 640.61 464.03
  Q 640.23 464.29 640.14 464.78
  Q 640.11 464.97 640.12 465.17
  A 0.93 0.89 66.1 0 1 639.86 465.88
  L 637.46 468.28
  Q 637.10 468.64 637.12 469.15
  Q 637.13 469.32 637.08 469.49
  Q 637.01 469.71 636.85 469.87
  Q 635.24 471.57 633.36 473.28
  Q 633.07 473.55 632.96 473.92
  Q 632.83 474.39 632.36 474.32
  Q 632.16 474.28 632.18 474.49
  Q 632.30 475.46 631.21 476.56
  Q 627.58 480.23 624.45 483.26
  Q 624.12 483.58 624.12 484.04
  L 624.12 484.46
  Q 624.12 484.72 623.93 484.90
  Q 617.82 490.86 611.99 496.75
  Q 611.62 497.12 611.07 497.13
  Q 610.59 497.14 610.24 497.49
  Q 606.12 501.61 602.01 505.73
  Q 601.75 505.99 601.42 506.09
  Q 601.24 506.15 601.06 506.12
  Q 600.63 506.07 600.33 506.37
  Q 597.61 509.15 594.95 511.78
  Q 594.74 512.00 594.44 512.09
  Q 594.26 512.14 594.06 512.12
  Q 593.66 512.08 593.37 512.36
  L 590.09 515.64
  Q 589.71 516.02 589.18 516.09
  Q 588.86 516.13 588.57 516.26
  Q 588.28 516.39 588.06 516.64
  Q 586.54 518.36 584.94 519.81
  Q 584.58 520.14 584.11 520.05
  Q 583.25 519.88 583.12 520.75
  Q 582.03 521.67 581.09 522.73
  Q 580.77 523.10 580.30 523.02
  Q 579.35 522.87 579.11 523.74
  Q 578.03 524.68 577.09 525.73
  Q 576.77 526.10 576.30 526.02
  Q 575.35 525.87 575.11 526.74
  Q 574.03 527.68 573.09 528.73
  Q 572.77 529.10 572.30 529.02
  Q 571.35 528.87 571.11 529.74
  Q 570.02 530.69 569.07 531.77
  Q 568.67 532.21 568.09 532.09
  Q 567.38 531.93 567.09 532.58
  A 2.63 2.59 12.8 0 1 564.67 534.08
  Q 564.13 534.07 564.11 534.60
  Q 564.10 535.16 563.54 535.26
  Q 563.22 535.31 563.12 535.60
  Q 562.85 536.34 562.10 536.11
  Q 561.46 535.92 561.13 536.47
  Q 560.13 538.11 558.70 538.16
  Q 558.25 538.18 558.05 538.58
  Q 557.35 539.95 555.91 540.15
  Q 555.35 540.23 555.03 540.70
  Q 554.19 541.90 552.88 542.17
  Q 552.27 542.30 551.92 542.82
  Q 551.19 543.89 550.05 544.10
  Q 549.25 544.25 548.80 544.93
  Q 548.08 546.02 546.93 546.12
  Q 546.38 546.16 546.08 546.62
  Q 545.23 547.91 543.91 548.14
  Q 543.26 548.25 542.90 548.81
  Q 542.10 550.03 540.83 550.15
  Q 540.43 550.18 540.21 550.52
  Q 539.80 551.15 539.06 551.12
  Q 538.41 551.08 538.06 551.64
  Q 537.23 552.94 535.86 553.14
  Q 535.43 553.20 535.19 553.56
  Q 534.79 554.16 534.08 554.11
  Q 533.41 554.07 533.06 554.64
  Q 532.22 555.95 530.85 556.14
  Q 530.43 556.20 530.19 556.55
  Q 529.82 557.10 529.16 557.12
  Q 528.28 557.15 527.81 557.90
  Q 527.11 559.02 525.91 559.12
  Q 525.41 559.16 525.15 559.60
  Q 524.79 560.20 524.09 560.09
  Q 523.55 560.00 523.32 560.50
  Q 522.92 561.37 521.96 561.11
  Q 521.42 560.95 521.16 561.46
  Q 520.37 562.99 518.68 563.20
  Q 518.24 563.26 518.05 563.66
  Q 517.68 564.41 516.85 564.09
  A 0.55 0.55 0.0 0 0 516.12 564.51
  Q 515.97 565.34 515.14 565.14
  Q 514.59 565.00 514.21 565.40
  L 512.81 566.83
  Q 512.45 567.20 511.95 567.10
  Q 511.21 566.94 511.07 567.67
  Q 510.93 568.33 510.28 568.13
  Q 509.98 568.03 509.59 568.07
  A 0.53 0.52 -86.9 0 0 509.13 568.49
  Q 508.93 569.43 507.93 569.10
  Q 507.33 568.91 507.12 569.50
  Q 506.78 570.45 505.76 570.11
  Q 505.27 569.94 505.16 570.45
  Q 504.95 571.41 503.97 571.11
  Q 503.26 570.89 503.09 571.62
  Q 502.92 572.35 502.18 572.12
  Q 501.39 571.87 501.02 572.61
  Q 500.65 573.34 499.85 573.12
  Q 499.31 572.97 499.09 573.48
  Q 498.71 574.36 497.79 574.12
  Q 497.30 573.99 497.11 574.45
  Q 496.73 575.34 495.78 575.12
  Q 495.29 575.01 495.10 575.47
  Q 494.72 576.37 493.78 576.12
  Q 493.30 575.99 493.11 576.45
  Q 492.74 577.33 491.78 577.12
  Q 491.30 577.01 491.10 577.47
  Q 490.71 578.38 489.75 578.11
  Q 489.30 577.99 489.15 578.43
  Q 488.81 579.46 487.73 579.11
  Q 487.27 578.95 487.17 579.43
  Q 486.96 580.42 485.96 580.11
  Q 485.26 579.89 485.09 580.61
  Q 484.92 581.35 484.18 581.12
  Q 483.39 580.87 483.02 581.61
  Q 482.65 582.34 481.84 582.12
  Q 481.31 581.97 481.09 582.48
  Q 480.70 583.39 479.74 583.10
  A 0.51 0.51 0.0 0 0 479.13 583.40
  Q 478.74 584.38 477.68 584.10
  Q 477.29 583.99 477.17 584.38
  Q 476.88 585.28 475.96 585.09
  Q 475.43 584.99 475.14 585.44
  Q 474.48 586.47 473.20 586.10
  Q 472.40 585.87 472.02 586.61
  Q 471.63 587.35 470.80 587.11
  Q 470.32 586.97 470.12 587.43
  Q 469.70 588.41 468.67 588.10
  Q 468.29 587.99 468.17 588.37
  Q 467.88 589.29 466.94 589.09
  Q 466.44 588.99 466.16 589.42
  Q 465.47 590.50 464.14 590.08
  A 0.92 0.92 0.0 0 0 463.05 590.54
  Q 462.67 591.32 461.78 591.14
  Q 461.22 591.03 461.01 591.57
  Q 460.71 592.36 459.88 592.11
  Q 459.43 591.98 459.18 592.38
  Q 458.50 593.49 457.17 593.10
  A 0.81 0.81 0.0 0 0 456.24 593.47
  Q 455.84 594.16 455.02 594.13
  Q 454.49 594.11 454.16 594.52
  Q 453.45 595.42 452.25 595.11
  Q 451.55 594.93 451.18 595.55
  Q 450.81 596.17 450.11 596.10
  Q 449.59 596.05 449.25 596.46
  Q 448.44 597.45 447.15 597.10
  A 0.81 0.81 0.0 0 0 446.23 597.48
  Q 445.83 598.19 445.05 598.10
  Q 444.65 598.06 444.37 598.35
  L 443.96 598.79
  A 1.22 1.22 0.0 0 1 442.79 599.12
  Q 441.67 598.84 441.02 599.70
  A 1.15 1.14 -64.1 0 1 439.79 600.13
  Q 438.67 599.83 438.03 600.70
  A 1.17 1.15 -63.7 0 1 436.78 601.13
  Q 435.67 600.83 435.03 601.70
  A 1.16 1.16 0.0 0 1 433.79 602.13
  Q 432.66 601.83 432.01 602.72
  A 1.12 1.10 -64.2 0 1 430.84 603.14
  Q 429.64 602.82 428.94 603.79
  Q 428.57 604.30 427.97 604.13
  Q 426.78 603.79 426.06 604.71
  A 1.07 1.07 0.0 0 1 425.22 605.12
  L 423.57 605.12
  Q 423.24 605.12 423.15 605.44
  L 423.02 605.95
  Q 422.97 606.11 422.80 606.11
  L 419.70 606.12
  Q 419.24 606.12 419.12 606.56
  L 419.02 606.95
  Q 418.97 607.11 418.80 607.11
  L 415.70 607.12
  Q 415.24 607.12 415.12 607.56
  L 415.02 607.95
  Q 414.97 608.11 414.80 608.11
  L 411.73 608.12
  Q 411.25 608.12 411.08 608.58
  Q 410.98 608.86 410.67 608.99
  Q 410.39 609.12 410.08 609.12
  L 407.70 609.12
  A 0.65 0.65 0.0 0 0 407.09 609.54
  Q 407.00 609.80 406.76 609.95
  Q 406.49 610.12 406.18 610.12
  L 402.74 610.12
  Q 402.25 610.12 402.08 610.58
  Q 401.98 610.87 401.66 611.00
  Q 401.36 611.12 401.05 611.12
  L 396.74 611.12
  Q 396.25 611.12 396.09 611.57
  Q 395.99 611.84 395.72 611.98
  Q 395.44 612.12 395.12 612.12
  L 389.74 612.12
  Q 389.25 612.12 389.09 612.57
  Q 388.98 612.86 388.67 612.99
  Q 388.39 613.12 388.08 613.12
  L 377.73 613.12
  Q 377.25 613.12 377.09 613.57
  Q 376.99 613.85 376.69 613.99
  Q 376.40 614.12 376.08 614.12
  L 358.29 614.12
  Q 357.90 614.12 357.89 613.73
  L 357.88 613.47
  Q 357.87 613.12 357.52 613.12
  L 346.53 613.12
  Q 346.10 613.12 345.91 612.74
  L 345.76 612.45
  Q 345.56 612.07 345.14 612.08
  Q 342.32 612.15 339.64 612.11
  Q 339.24 612.11 338.88 611.90
  Q 338.75 611.83 338.72 611.69
  Q 338.58 611.12 338.00 611.12
  L 334.50 611.12
  Q 333.97 611.12 333.82 610.60
  Q 333.78 610.45 333.66 610.34
  Q 333.42 610.12 333.08 610.12
  Q 331.51 610.10 329.77 610.13
  Q 329.24 610.14 328.85 609.86
  Q 328.70 609.75 328.70 609.57
  Q 328.68 609.12 328.22 609.12
  L 325.50 609.12
  Q 324.97 609.12 324.83 608.61
  Q 324.78 608.45 324.65 608.33
  Q 324.40 608.11 324.08 608.11
  Q 322.99 608.10 321.78 608.13
  Q 321.27 608.15 320.87 607.86
  Q 320.73 607.76 320.72 607.58
  Q 320.70 607.12 320.23 607.12
  L 317.50 607.12
  Q 316.94 607.12 316.72 606.59
  Q 316.62 606.37 316.43 606.19
  A 0.63 0.63 0.0 0 0 315.81 606.05
  Q 314.32 606.53 313.62 605.43
  A 0.85 0.84 -24.5 0 0 312.67 605.08
  Q 311.30 605.49 310.62 604.43
  A 0.85 0.84 64.8 0 0 309.66 604.08
  Q 308.30 604.50 307.63 603.45
  A 0.88 0.87 -24.2 0 0 306.65 603.08
  Q 305.29 603.49 304.62 602.44
  Q 304.29 601.92 303.70 602.09
  Q 302.28 602.50 301.58 601.40
  A 0.67 0.66 65.7 0 0 300.82 601.11
  Q 300.11 601.32 299.82 600.62
  A 1.04 1.04 0.0 0 0 298.49 600.05
  Q 297.39 600.48 296.79 599.63
  Q 296.59 599.35 296.25 599.35
  L 294.71 599.35
  Q 294.13 599.35 294.13 598.77
  Q 294.13 598.64 294.15 598.52
  Q 294.27 597.97 293.74 598.12
  Q 293.06 598.30 292.79 597.65
  Q 292.58 597.12 292.02 597.12
  L 290.51 597.12
  A 0.75 0.74 -11.2 0 1 289.82 596.66
  Q 289.52 595.92 288.72 596.11
  Q 288.24 596.23 287.88 595.89
  Q 287.83 595.84 287.82 595.78
  Q 287.63 594.97 286.84 595.14
  Q 286.07 595.30 285.77 594.61
  Q 285.55 594.12 285.01 594.12
  L 284.55 594.12
  Q 284.02 594.12 283.81 593.63
  Q 283.69 593.35 283.50 593.21
  Q 283.11 592.93 282.63 592.96
  Q 281.74 593.02 281.71 592.66
  Q 281.63 591.98 280.96 592.13
  Q 280.10 592.33 279.75 591.58
  Q 279.53 591.12 279.01 591.12
  L 278.53 591.12
  Q 278.01 591.12 277.81 590.64
  Q 277.53 589.95 276.83 590.10
  A 0.86 0.83 -45.8 0 1 276.49 590.11
  Q 275.77 590.01 275.70 589.59
  Q 275.61 589.01 275.03 589.13
  Q 274.05 589.35 273.67 588.47
  A 0.64 0.63 -19.5 0 0 272.90 588.11
  Q 272.14 588.33 271.78 587.65
  Q 271.54 587.19 271.03 587.15
  Q 269.71 587.03 268.86 585.68
  Q 268.57 585.22 268.04 585.15
  Q 266.29 584.90 264.94 583.60
  L 288.75 579.78
  Q 294.74 582.29 300.58 584.61
  Q 344.09 601.89 390.44 594.96
  C 407.00 592.49 423.55 587.65 439.19 581.54
  Q 509.07 554.27 569.08 510.32
  Q 592.88 492.88 612.78 472.75
  C 641.20 444.00 662.75 408.07 659.67 366.52
  C 657.49 337.15 644.62 309.52 631.38 283.39
  Q 627.20 275.12 621.62 265.95
  Q 607.45 242.65 592.66 219.90
  Z"
/>
<path fill="#394479" d="
  M 289.71 236.98
  L 289.77 239.21
  Q 289.79 239.71 290.29 239.73
  Q 302.12 240.19 313.85 243.42
  L 327.93 247.72
  Q 344.72 253.82 361.74 260.60
  Q 367.60 262.94 370.15 267.10
  C 374.60 274.39 376.08 282.95 376.91 291.50
  Q 377.62 298.68 377.63 305.14
  C 377.68 335.70 372.86 368.33 367.26 397.68
  L 361.43 426.39
  Q 352.90 429.49 344.04 432.38
  Q 341.03 433.36 337.57 433.99
  L 334.01 300.44
  A 0.89 0.88 -88.2 0 0 333.21 299.58
  L 318.99 298.32
  Q 318.33 298.26 318.70 298.81
  Q 323.75 306.09 329.25 313.75
  C 332.28 317.98 333.58 321.76 333.02 326.86
  Q 332.77 329.20 332.52 331.44
  Q 329.26 342.28 323.66 351.16
  Q 311.27 370.81 294.33 388.45
  L 287.62 395.72
  Q 270.00 414.05 250.86 430.76
  L 226.98 423.77
  L 270.93 353.31
  L 277.13 343.38
  L 284.49 331.53
  Q 284.65 331.28 284.42 331.10
  L 267.29 317.38
  L 252.63 305.55
  L 247.88 301.92
  Q 247.60 301.84 247.46 301.50
  Q 247.29 301.07 246.94 300.79
  Q 240.76 295.85 234.62 290.88
  Q 233.80 290.22 232.74 290.15
  Q 212.74 288.73 200.34 273.29
  Q 192.70 263.23 191.55 251.75
  Q 191.02 246.55 191.30 236.86
  L 289.71 236.98
  Z"
/>
<path fill="#12c85b" d="
  M 113.01 252.77
  Q 115.23 286.10 114.96 319.33
  A 0.38 0.38 0.0 0 1 114.38 319.65
  Q 94.65 307.72 71.76 304.75
  Q 67.93 304.26 59.42 304.55
  Q 61.63 301.39 65.03 299.83
  C 72.18 296.53 79.69 294.77 87.47 293.87
  C 95.89 292.88 101.33 289.30 101.23 279.89
  L 99.49 263.81
  Q 100.19 262.34 100.84 260.37
  Q 101.63 257.97 102.24 257.01
  Q 105.59 251.74 113.01 252.77
  Z"
/>
<path fill="#38825f" d="
  M 113.01 252.77
  Q 113.86 252.64 115.20 252.94
  Q 115.13 253.54 115.16 253.99
  Q 117.52 292.63 116.27 333.61
  Q 116.25 334.40 116.75 333.79
  Q 132.06 314.76 155.27 309.33
  C 156.89 308.95 158.57 308.99 160.23 308.77
  Q 160.51 309.33 160.61 310.18
  Q 133.32 314.90 116.91 336.65
  A 4.22 4.19 64.8 0 0 116.07 339.02
  Q 115.39 357.20 112.55 375.73
  Q 112.45 376.40 113.09 376.18
  Q 127.27 371.39 142.80 373.55
  C 145.67 373.95 148.41 374.76 151.33 375.21
  Q 150.94 376.89 150.51 377.25
  Q 131.24 371.52 112.61 378.41
  A 1.20 1.18 86.8 0 0 111.87 379.25
  L 107.88 395.74
  L 105.54 395.86
  Q 110.54 381.07 112.05 365.34
  A 1.14 1.13 -74.6 0 0 111.41 364.20
  C 106.61 361.90 101.35 360.56 96.05 360.01
  Q 78.67 358.21 61.29 361.20
  Q 60.98 359.91 61.47 359.04
  Q 76.37 357.21 92.25 357.86
  Q 102.69 358.28 111.96 362.28
  Q 112.46 362.49 112.52 361.95
  Q 114.57 342.23 114.90 322.79
  A 1.47 1.46 -74.5 0 0 114.18 321.51
  Q 97.50 311.70 78.75 307.77
  Q 70.23 305.99 58.75 306.05
  Q 58.91 304.35 59.42 304.55
  Q 67.93 304.26 71.76 304.75
  Q 94.65 307.72 114.38 319.65
  A 0.38 0.38 0.0 0 0 114.96 319.33
  Q 115.23 286.10 113.01 252.77
  Z"
/>
<path fill="#12c85b" d="
  M 115.20 252.94
  C 121.49 253.34 129.09 255.53 133.05 260.75
  C 135.70 264.24 137.37 268.79 138.46 273.00
  C 140.13 279.51 141.57 287.95 145.76 293.11
  C 147.88 295.71 151.03 296.90 153.61 298.87
  Q 158.34 302.48 160.23 308.77
  C 158.57 308.99 156.89 308.95 155.27 309.33
  Q 132.06 314.76 116.75 333.79
  Q 116.25 334.40 116.27 333.61
  Q 117.52 292.63 115.16 253.99
  Q 115.13 253.54 115.20 252.94
  Z"
/>
<path fill="#faf8ff" d="
  M 99.49 263.81
  L 101.23 279.89
  Q 100.74 280.46 100.90 281.48
  Q 101.08 282.55 100.23 282.97
  A 1.01 0.99 -1.1 0 0 99.74 283.47
  Q 97.41 288.70 91.19 290.57
  A 0.17 0.16 -2.3 0 1 90.98 290.38
  Q 93.94 276.78 99.49 263.81
  Z"
/>
<path fill="#f55f44" d="
  M 200.34 273.29
  Q 212.74 288.73 232.74 290.15
  Q 233.80 290.22 234.62 290.88
  Q 240.76 295.85 246.94 300.79
  Q 247.29 301.07 247.46 301.50
  Q 247.60 301.84 247.88 301.92
  Q 246.15 302.55 244.97 302.07
  Q 229.41 302.66 214.09 301.22
  C 204.73 299.92 195.49 298.32 186.83 294.41
  Q 183.26 292.79 181.17 290.55
  Q 177.87 287.00 180.89 281.75
  Q 184.14 279.20 187.07 277.84
  Q 191.98 275.55 198.27 274.01
  Q 199.68 273.80 200.34 273.29
  Z"
/>
<path fill="#ececf5" d="
  M 180.89 281.75
  Q 177.87 287.00 181.17 290.55
  Q 183.26 292.79 186.83 294.41
  C 195.49 298.32 204.73 299.92 214.09 301.22
  L 213.70 302.45
  Q 201.64 301.59 190.02 297.88
  Q 186.69 296.82 183.86 295.43
  Q 180.45 293.74 178.73 291.39
  Q 174.81 286.04 180.89 281.75
  Z"
/>
<path fill="#bcbcbc" d="
  M 214.09 301.22
  Q 229.41 302.66 244.97 302.07
  Q 244.50 302.44 243.66 302.36
  Q 243.56 302.35 243.58 302.45
  Q 243.61 302.59 243.63 302.72
  Q 243.73 303.21 243.23 303.21
  L 224.24 303.12
  A 1.18 1.17 10.6 0 0 223.12 303.88
  L 220.40 310.93
  Q 220.17 311.51 220.77 311.70
  L 236.75 316.61
  A 2.15 2.15 0.0 0 0 238.03 316.61
  L 254.15 311.67
  Q 254.58 311.54 254.44 311.11
  L 252.63 305.55
  L 267.29 317.38
  Q 271.64 331.03 277.13 343.38
  L 270.93 353.31
  L 263.81 335.30
  A 1.74 1.71 -1.7 0 0 262.72 334.29
  L 238.78 326.94
  Q 237.39 326.51 236.01 326.94
  L 211.94 334.34
  A 1.46 1.43 -87.2 0 0 211.01 335.20
  L 179.69 416.22
  Q 179.62 416.40 179.45 416.33
  L 171.14 413.14
  Q 170.94 413.07 171.02 412.87
  L 213.70 302.45
  L 214.09 301.22
  Z
  M 216.60 320.78
  L 215.74 322.98
  Q 215.52 323.54 216.09 323.36
  L 220.80 321.89
  Q 221.62 321.63 220.80 321.39
  L 217.44 320.38
  Q 216.83 320.19 216.60 320.78
  Z
  M 257.51 320.33
  L 253.77 321.43
  Q 253.13 321.61 253.76 321.81
  L 258.92 323.44
  Q 259.28 323.55 259.14 323.21
  L 258.12 320.63
  A 0.51 0.50 71.0 0 0 257.51 320.33
  Z"
/>
<path fill="#faf8ff" d="
  M 247.88 301.92
  L 252.63 305.55
  L 254.44 311.11
  Q 254.58 311.54 254.15 311.67
  L 238.03 316.61
  A 2.15 2.15 0.0 0 1 236.75 316.61
  L 220.77 311.70
  Q 220.17 311.51 220.40 310.93
  L 223.12 303.88
  A 1.18 1.17 10.6 0 1 224.24 303.12
  L 243.23 303.21
  Q 243.73 303.21 243.63 302.72
  Q 243.61 302.59 243.58 302.45
  Q 243.56 302.35 243.66 302.36
  Q 244.50 302.44 244.97 302.07
  Q 246.15 302.55 247.88 301.92
  Z"
/>
<path fill="#12c85b" d="
  M 58.75 306.05
  Q 70.23 305.99 78.75 307.77
  Q 97.50 311.70 114.18 321.51
  A 1.47 1.46 -74.5 0 1 114.90 322.79
  Q 114.57 342.23 112.52 361.95
  Q 112.46 362.49 111.96 362.28
  Q 102.69 358.28 92.25 357.86
  Q 76.37 357.21 61.47 359.04
  Q 63.31 352.41 66.35 346.40
  Q 73.28 332.68 64.88 319.82
  Q 62.73 316.53 60.44 313.34
  Q 57.82 309.69 58.75 306.05
  Z"
/>
<path fill="#12c85b" d="
  M 160.61 310.18
  Q 162.26 319.28 156.43 327.23
  Q 151.43 334.04 149.92 335.94
  C 146.15 340.67 142.68 347.42 146.14 352.94
  C 150.70 360.22 153.93 366.29 151.33 375.21
  C 148.41 374.76 145.67 373.95 142.80 373.55
  Q 127.27 371.39 113.09 376.18
  Q 112.45 376.40 112.55 375.73
  Q 115.39 357.20 116.07 339.02
  A 4.22 4.19 64.8 0 1 116.91 336.65
  Q 133.32 314.90 160.61 310.18
  Z"
/>
<path fill="#faf8ff" d="
  M 267.29 317.38
  L 284.42 331.10
  Q 284.65 331.28 284.49 331.53
  L 277.13 343.38
  Q 271.64 331.03 267.29 317.38
  Z"
/>
<path fill="#faf8ff" d="
  M 215.74 322.98
  L 216.60 320.78
  Q 216.83 320.19 217.44 320.38
  L 220.80 321.39
  Q 221.62 321.63 220.80 321.89
  L 216.09 323.36
  Q 215.52 323.54 215.74 322.98
  Z"
/>
<path fill="#faf8ff" d="
  M 253.77 321.43
  L 257.51 320.33
  A 0.51 0.50 71.0 0 1 258.12 320.63
  L 259.14 323.21
  Q 259.28 323.55 258.92 323.44
  L 253.76 321.81
  Q 253.13 321.61 253.77 321.43
  Z"
/>
<path fill="#ececf5" d="
  M 332.52 331.44
  Q 333.50 335.97 331.20 340.99
  C 328.86 346.13 326.47 350.94 323.24 355.90
  Q 321.04 359.27 318.89 362.75
  Q 318.11 364.01 317.17 365.10
  Q 316.21 366.23 315.34 367.39
  Q 307.38 378.09 297.23 389.24
  Q 296.53 390.01 295.30 390.85
  Q 295.17 389.69 294.33 388.45
  Q 311.27 370.81 323.66 351.16
  Q 329.26 342.28 332.52 331.44
  Z"
/>
<path fill="#12c85b" d="
  M 105.54 395.86
  L 85.10 395.86
  C 83.26 389.30 80.54 382.67 76.18 377.45
  C 73.26 373.95 68.76 371.07 64.85 368.39
  Q 61.29 365.95 61.29 361.20
  Q 78.67 358.21 96.05 360.01
  C 101.35 360.56 106.61 361.90 111.41 364.20
  A 1.14 1.13 -74.6 0 1 112.05 365.34
  Q 110.54 381.07 105.54 395.86
  Z"
/>
<path fill="#12c85b" d="
  M 150.51 377.25
  C 147.56 382.88 142.10 383.15 136.61 383.88
  C 128.35 384.98 124.05 389.32 119.39 395.72
  L 107.88 395.74
  L 111.87 379.25
  A 1.20 1.18 86.8 0 1 112.61 378.41
  Q 131.24 371.52 150.51 377.25
  Z"
/>
<path fill="#bcbcbc" d="
  M 294.33 388.45
  Q 295.17 389.69 295.30 390.85
  L 303.72 412.71
  A 0.38 0.37 69.4 0 1 303.51 413.19
  L 295.72 416.21
  A 0.60 0.60 0.0 0 1 294.94 415.87
  L 288.36 398.82
  Q 287.59 397.61 287.62 395.72
  L 294.33 388.45
  Z"
/>
<path fill="#8845f4" d="
  M 119.39 395.72
  L 122.00 395.72
  C 127.41 395.81 133.76 395.37 138.30 396.32
  Q 149.58 398.68 153.73 410.51
  C 156.74 424.65 147.29 436.19 133.02 436.11
  Q 106.98 435.95 81.88 436.14
  Q 76.31 436.19 72.71 434.86
  C 63.26 431.39 58.12 421.89 59.99 411.86
  C 61.74 402.46 70.22 395.95 79.76 395.78
  Q 82.40 395.74 85.10 395.86
  L 105.54 395.86
  L 107.88 395.74
  L 119.39 395.72
  Z"
/>
<path fill="#ececf5" d="
  M 287.62 395.72
  Q 287.59 397.61 288.36 398.82
  Q 282.64 404.77 277.17 410.25
  Q 264.46 423.00 250.49 434.85
  L 250.86 430.76
  Q 270.00 414.05 287.62 395.72
  Z"
/>
<path fill="#ececf5" d="
  M 367.26 397.68
  Q 367.79 398.09 367.65 399.13
  Q 367.58 399.62 367.92 399.26
  Q 368.25 398.89 369.01 400.39
  A 1.32 1.32 0.0 0 1 369.13 401.25
  L 363.29 429.56
  L 361.43 426.39
  L 367.26 397.68
  Z"
/>
<path fill="#333333" d="
  M 226.98 423.77
  L 250.86 430.76
  L 250.49 434.85
  Q 249.85 435.68 249.92 437.38
  Q 249.95 437.94 250.51 437.86
  C 259.23 436.52 273.58 438.24 267.98 451.65
  Q 267.70 452.11 267.25 452.06
  Q 246.94 449.72 227.07 444.92
  C 222.80 443.89 218.56 442.80 216.93 438.59
  Q 216.95 434.93 219.40 431.65
  Q 222.94 426.90 226.98 423.77
  Z"
/>
<path fill="#333333" d="
  M 361.43 426.39
  L 363.29 429.56
  Q 363.35 431.25 364.80 433.92
  Q 365.05 434.38 365.45 434.04
  C 371.90 428.50 385.70 421.95 387.57 436.54
  Q 387.60 437.11 387.27 437.26
  Q 374.43 443.35 358.00 449.44
  Q 351.12 452.00 343.99 453.69
  Q 340.93 454.42 337.90 452.79
  Q 334.63 448.09 336.09 441.82
  Q 337.31 436.54 337.57 433.99
  Q 341.03 433.36 344.04 432.38
  Q 352.90 429.49 361.43 426.39
  Z"
/>
<path fill="#ececf5" d="
  M 337.90 452.79
  Q 340.93 454.42 343.99 453.69
  Q 351.12 452.00 358.00 449.44
  Q 374.43 443.35 387.27 437.26
  Q 387.60 437.11 387.57 436.54
  Q 388.09 435.86 388.72 437.18
  Q 389.68 439.19 389.80 441.24
  A 0.99 0.99 0.0 0 1 389.23 442.18
  Q 374.03 449.20 357.99 455.09
  Q 349.12 458.34 344.32 458.94
  Q 338.55 459.66 337.25 454.27
  Q 336.99 453.19 337.90 452.79
  Z"
/>
<path fill="#ececf5" d="
  M 216.93 438.59
  C 218.56 442.80 222.80 443.89 227.07 444.92
  Q 246.94 449.72 267.25 452.06
  Q 267.70 452.11 267.98 451.65
  Q 269.27 454.17 267.33 456.81
  Q 267.02 457.22 266.52 457.15
  Q 253.51 455.51 240.64 453.16
  Q 230.22 451.26 221.04 448.41
  C 218.99 447.78 216.92 446.55 215.96 444.53
  Q 214.49 441.45 216.93 438.59
  Z"
/>
</svg>
