<?xml version="1.0" encoding="UTF-8" standalone="no"?>
<!DOCTYPE svg PUBLIC "-//W3C//DTD SVG 1.1//EN" "http://www.w3.org/Graphics/SVG/1.1/DTD/svg11.dtd">
<svg xmlns="http://www.w3.org/2000/svg" version="1.1" viewBox="0.00 0.00 1448.00 1448.00">
<g stroke-width="2.00" fill="none" stroke-linecap="butt">
<path stroke="#896071" vector-effect="non-scaling-stroke" d="
  M 554.53 297.81
  Q 554.36 297.50 554.00 297.53
  Q 543.45 298.43 533.16 295.63
  Q 531.66 295.22 531.87 296.76
  L 532.24 299.53"
/>
<path stroke="#732f4e" vector-effect="non-scaling-stroke" d="
  M 532.24 299.53
  L 531.66 312.45"
/>
<path stroke="#896071" vector-effect="non-scaling-stroke" d="
  M 531.66 312.45
  Q 531.30 317.79 527.55 319.72
  C 523.55 321.79 522.38 315.62 521.43 313.26"
/>
<path stroke="#732f4e" vector-effect="non-scaling-stroke" d="
  M 521.43 313.26
  Q 521.14 310.72 518.69 308.88"
/>
<path stroke="#896071" vector-effect="non-scaling-stroke" d="
  M 518.69 308.88
  Q 516.96 306.56 514.44 306.42
  C 510.64 306.22 510.22 309.57 511.35 312.37
  Q 512.63 315.53 513.90 318.81
  Q 515.85 323.90 512.03 326.14
  Q 510.94 326.78 508.37 326.74
  Q 504.20 326.68 501.22 329.70"
/>
<path stroke="#f6767c" vector-effect="non-scaling-stroke" d="
  M 539.26 351.70
  L 523.80 346.73
  A 0.74 0.73 -75.6 0 0 522.86 347.29
  Q 522.70 348.09 523.61 348.93
  Q 530.10 354.91 539.20 353.73"
/>
<path stroke="#f6767c" vector-effect="non-scaling-stroke" d="
  M 540.95 355.53
  Q 540.51 356.49 543.94 356.38"
/>
<path stroke="#fecac8" vector-effect="non-scaling-stroke" d="
  M 543.94 356.38
  Q 540.82 356.22 539.67 358.94
  Q 533.64 373.10 527.67 387.19"
/>
<path stroke="#f6767c" vector-effect="non-scaling-stroke" d="
  M 527.67 387.19
  Q 526.32 387.17 524.97 387.64"
/>
<path stroke="#fecac8" vector-effect="non-scaling-stroke" d="
  M 524.97 387.64
  L 501.14 361.54
  Q 500.81 361.18 500.35 361.01
  L 499.73 360.78"
/>
<path stroke="#e7646d" vector-effect="non-scaling-stroke" d="
  M 518.69 308.88
  L 521.43 313.26"
/>
<path stroke="#e7646d" vector-effect="non-scaling-stroke" d="
  M 531.66 312.45
  Q 532.97 306.05 532.24 299.53"
/>
<path stroke="#f6767c" vector-effect="non-scaling-stroke" d="
  M 777.11 435.61
  Q 769.13 431.95 763.09 432.58
  Q 756.01 433.32 752.80 439.73"
/>
<path stroke="#e04559" vector-effect="non-scaling-stroke" d="
  M 752.80 439.73
  Q 738.51 426.54 723.87 413.37
  C 709.36 400.30 694.06 392.33 675.39 388.81
  Q 634.59 381.12 593.74 391.61
  Q 590.41 392.47 588.69 389.61
  Q 584.38 382.47 578.20 375.15
  Q 577.91 374.80 577.55 375.09
  L 577.36 375.25
  Q 576.66 375.82 577.13 376.58
  Q 585.76 390.79 592.32 406.21
  Q 592.52 406.66 592.88 407.00
  Q 593.31 407.40 593.50 407.97"
/>
<path stroke="#f6767c" vector-effect="non-scaling-stroke" d="
  M 607.55 446.60
  L 603.49 449.29"
/>
<path stroke="#e04559" vector-effect="non-scaling-stroke" d="
  M 603.49 449.29
  Q 603.55 447.49 601.49 447.49
  C 599.15 447.49 598.30 447.78 596.59 449.52
  Q 584.68 461.67 570.31 470.73
  C 566.14 473.35 561.70 475.59 557.28 477.79
  C 552.42 480.20 548.18 483.29 544.39 487.08
  Q 523.76 507.72 501.20 520.22
  C 495.69 523.27 488.06 524.42 484.90 517.41
  Q 479.63 505.75 472.27 484.58
  Q 472.07 484.01 471.54 483.79
  A 1.15 1.15 0.0 0 0 470.03 484.48
  C 466.08 495.83 469.88 507.28 475.38 517.38
  Q 480.80 527.33 486.64 536.17
  C 492.75 545.42 508.24 529.96 512.49 525.53
  Q 528.82 508.51 544.28 492.04
  C 549.70 486.27 557.94 480.52 565.89 479.36
  Q 568.61 478.96 570.79 478.72"
/>
<path stroke="#f6767c" vector-effect="non-scaling-stroke" d="
  M 570.79 478.72
  Q 578.05 482.65 585.20 485.87
  Q 588.01 487.14 590.27 484.77
  Q 597.32 477.38 609.39 466.35
  C 615.42 460.83 620.86 457.31 628.50 457.52
  Q 640.26 457.85 651.38 463.88"
/>
<path stroke="#aa6d98" vector-effect="non-scaling-stroke" d="
  M 651.38 463.88
  Q 640.07 468.91 628.30 468.54
  Q 626.06 468.48 624.82 469.15
  Q 623.06 470.11 622.19 471.76"
/>
<path stroke="#f79a6c" vector-effect="non-scaling-stroke" d="
  M 622.19 471.76
  L 611.52 481.32"
/>
<path stroke="#aa6d98" vector-effect="non-scaling-stroke" d="
  M 611.52 481.32
  Q 601.49 483.14 598.56 492.15"
/>
<path stroke="#e04559" vector-effect="non-scaling-stroke" d="
  M 598.56 492.15
  Q 593.82 492.86 590.40 489.60
  C 588.99 488.27 587.45 486.41 585.36 488.33
  C 569.62 502.76 558.44 522.04 547.55 540.86
  Q 535.52 561.66 517.02 575.59
  Q 510.98 580.13 504.01 583.01
  Q 482.51 591.86 466.88 575.10
  Q 439.50 545.74 434.23 505.18
  Q 430.69 478.00 435.56 450.84
  Q 436.78 444.06 437.92 437.13"
/>
<path stroke="#f7abb4" vector-effect="non-scaling-stroke" d="
  M 484.91 380.35
  Q 503.97 384.77 522.99 388.41
  Q 523.59 388.53 524.97 387.64"
/>
<path stroke="#f7abb4" vector-effect="non-scaling-stroke" d="
  M 527.67 387.19
  Q 529.42 388.46 531.62 388.08
  C 542.02 386.29 547.56 381.13 546.69 370.00
  Q 546.12 362.83 543.94 356.38"
/>
<path stroke="#e7646d" vector-effect="non-scaling-stroke" d="
  M 752.80 439.73
  C 752.50 443.16 753.01 447.91 756.85 449.01"
/>
<path stroke="#e04559" vector-effect="non-scaling-stroke" d="
  M 756.85 449.01
  L 761.62 455.20"
/>
<path stroke="#9b5b89" vector-effect="non-scaling-stroke" d="
  M 598.56 492.15
  Q 599.54 495.87 599.20 500.17"
/>
<path stroke="#e04559" vector-effect="non-scaling-stroke" d="
  M 599.20 500.17
  Q 598.35 500.97 597.01 501.72
  Q 595.75 502.43 595.02 503.42
  Q 577.57 527.18 549.81 563.31
  Q 549.11 564.23 549.72 564.92
  Q 550.05 565.29 550.54 565.21
  L 552.74 564.85"
/>
<path stroke="#732f4e" vector-effect="non-scaling-stroke" d="
  M 552.74 564.85
  Q 546.24 567.13 543.97 569.97
  C 531.95 585.05 518.77 600.53 504.46 612.08
  C 499.16 616.35 494.25 620.23 486.87 618.00
  C 480.43 616.05 474.79 612.19 469.24 608.26
  Q 468.83 607.97 468.31 608.21"
/>
<path stroke="#b2c1e3" vector-effect="non-scaling-stroke" d="
  M 783.97 471.30
  L 775.63 472.39"
/>
<path stroke="#9b5b89" vector-effect="non-scaling-stroke" d="
  M 775.63 472.39
  Q 771.98 470.68 767.50 472.83"
/>
<path stroke="#b2b19c" vector-effect="non-scaling-stroke" d="
  M 767.50 472.83
  L 622.19 471.76"
/>
<path stroke="#b08cac" vector-effect="non-scaling-stroke" d="
  M 831.46 459.57
  Q 831.43 459.75 831.28 459.95
  Q 831.06 460.25 830.69 460.24
  L 799.53 459.41
  Q 798.43 459.38 798.77 460.43
  Q 801.27 467.97 809.10 471.94"
/>
<path stroke="#fecac8" vector-effect="non-scaling-stroke" d="
  M 809.10 471.94
  Q 807.96 471.34 807.95 473.24
  C 807.95 474.69 809.39 476.47 810.17 477.77
  A 2.14 2.13 62.8 0 1 809.20 480.81
  Q 801.17 484.34 794.26 479.20"
/>
<path stroke="#f6767c" vector-effect="non-scaling-stroke" d="
  M 794.26 479.20
  Q 795.61 479.18 795.58 478.64
  C 795.33 473.55 794.30 467.84 792.82 463.18
  Q 789.49 452.66 777.26 450.83
  Q 771.23 449.93 756.85 449.01"
/>
<path stroke="#b08cac" vector-effect="non-scaling-stroke" d="
  M 657.43 460.14
  Q 654.58 462.66 651.38 463.88"
/>
<path stroke="#e7646d" vector-effect="non-scaling-stroke" d="
  M 570.79 478.72
  Q 583.02 465.54 596.14 454.93
  Q 599.77 451.99 603.49 449.29"
/>
<path stroke="#9eb9e3" vector-effect="non-scaling-stroke" d="
  M 881.66 811.98
  C 863.18 811.27 844.12 811.70 826.25 811.68
  Q 804.89 811.66 783.65 811.85"
/>
<path stroke="#3d578d" vector-effect="non-scaling-stroke" d="
  M 765.59 811.58
  L 676.68 811.80"
/>
<path stroke="#3d578d" vector-effect="non-scaling-stroke" d="
  M 598.51 685.54
  Q 598.90 684.74 598.91 683.75
  Q 599.15 610.56 599.29 537.38
  Q 599.29 537.24 599.23 537.14
  Q 599.11 536.94 599.06 536.98"
/>
<path stroke="#aa6d98" vector-effect="non-scaling-stroke" d="
  M 599.06 536.98
  L 599.20 500.17"
/>
<path stroke="#b2b19c" vector-effect="non-scaling-stroke" d="
  M 611.52 481.32
  L 611.47 797.89
  A 1.70 1.69 -90.0 0 0 613.16 799.59
  L 787.60 799.60"
/>
<path stroke="#9b5b89" vector-effect="non-scaling-stroke" d="
  M 787.60 799.60
  Q 793.29 800.20 795.25 800.01
  Q 796.52 799.88 796.24 799.09"
/>
<path stroke="#b2c1e3" vector-effect="non-scaling-stroke" d="
  M 796.24 799.09
  Q 796.32 798.89 796.50 799.46"
/>
<path stroke="#98a3ca" vector-effect="non-scaling-stroke" d="
  M 796.50 799.46
  Q 796.19 799.73 796.22 799.80
  A 0.99 0.98 -11.3 0 0 797.17 800.43
  Q 805.49 800.19 812.46 800.24"
/>
<path stroke="#b2c1e3" vector-effect="non-scaling-stroke" d="
  M 812.46 800.24
  Q 938.10 799.97 1063.75 800.03
  Q 1067.55 800.03 1067.54 796.30
  Q 1067.46 634.59 1066.64 473.84
  A 2.10 2.09 89.7 0 0 1064.54 471.75
  L 809.10 471.94"
/>
<path stroke="#e8895d" vector-effect="non-scaling-stroke" d="
  M 767.50 472.83
  L 760.48 484.07"
/>
<path stroke="#feba80" vector-effect="non-scaling-stroke" d="
  M 760.48 484.07
  Q 758.16 486.29 757.50 488.94"
/>
<path stroke="#e8895d" vector-effect="non-scaling-stroke" d="
  M 757.50 488.94
  Q 756.08 490.99 754.67 493.06
  Q 753.75 494.40 753.08 495.98
  Q 752.40 497.57 750.90 498.81
  A 1.20 1.16 84.7 0 0 750.61 499.17
  L 747.25 505.48"
/>
<path stroke="#feba80" vector-effect="non-scaling-stroke" d="
  M 747.25 505.48
  Q 745.56 506.76 745.30 508.80"
/>
<path stroke="#e8895d" vector-effect="non-scaling-stroke" d="
  M 745.30 508.80
  L 743.99 510.76"
/>
<path stroke="#feba80" vector-effect="non-scaling-stroke" d="
  M 743.99 510.76
  Q 742.11 512.65 741.09 515.35"
/>
<path stroke="#e8895d" vector-effect="non-scaling-stroke" d="
  M 741.09 515.35
  Q 740.56 517.45 739.10 519.01
  Q 738.92 519.20 738.84 519.46
  L 738.66 520.10
  Q 738.53 520.54 738.23 520.89
  Q 735.53 524.12 733.23 527.72
  C 732.48 528.88 732.46 530.36 731.40 531.29
  Q 731.07 531.58 730.84 531.94
  L 728.48 535.72
  Q 728.35 535.91 728.29 536.14
  Q 728.11 536.75 727.43 536.87
  Q 726.93 536.96 726.12 536.55
  Q 723.71 535.32 721.23 534.22"
/>
<path stroke="#feba80" vector-effect="non-scaling-stroke" d="
  M 721.23 534.22
  Q 718.00 531.77 714.30 531.77"
/>
<path stroke="#e8895d" vector-effect="non-scaling-stroke" d="
  M 714.30 531.77
  Q 706.35 529.74 698.46 531.73"
/>
<path stroke="#feba80" vector-effect="non-scaling-stroke" d="
  M 698.46 531.73
  Q 695.40 531.98 693.27 533.54"
/>
<path stroke="#e8895d" vector-effect="non-scaling-stroke" d="
  M 693.27 533.54
  Q 689.70 535.24 687.76 536.76
  Q 680.76 542.26 676.96 551.06
  Q 670.67 565.66 678.96 579.04
  Q 682.04 584.02 686.25 588.13"
/>
<path stroke="#ffc842" vector-effect="non-scaling-stroke" d="
  M 686.25 588.13
  Q 677.28 602.09 668.00 616.02
  Q 667.10 617.37 667.96 618.51
  A 1.34 1.33 -23.1 0 0 669.22 619.01
  Q 673.56 618.35 678.23 617.77
  Q 680.25 617.51 680.67 619.45
  Q 682.61 628.36 687.32 638.09
  C 688.11 639.73 690.63 640.53 691.57 638.50
  Q 691.93 637.73 692.17 636.97
  Q 698.71 616.07 705.54 595.25"
/>
<path stroke="#e8895d" vector-effect="non-scaling-stroke" d="
  M 705.54 595.25
  L 718.55 593.56
  Q 719.87 593.39 720.29 594.66
  L 729.19 621.79"
/>
<path stroke="#feba80" vector-effect="non-scaling-stroke" d="
  M 729.19 621.79
  Q 729.60 625.30 731.42 628.75"
/>
<path stroke="#e8895d" vector-effect="non-scaling-stroke" d="
  M 731.42 628.75
  Q 732.68 632.13 733.92 635.57
  Q 735.13 638.91 736.05 642.47
  Q 736.97 646.02 738.57 649.55
  Q 738.89 650.25 739.04 651.02
  C 739.31 652.36 739.51 653.58 740.02 654.86
  Q 741.74 659.23 743.33 663.59
  C 743.77 664.81 743.72 666.06 744.15 667.26
  Q 745.78 671.77 747.50 676.24
  C 747.96 677.45 747.79 678.62 748.26 679.86
  Q 749.85 684.13 751.56 688.40
  C 752.04 689.61 751.78 690.86 752.27 692.16
  Q 754.02 696.80 755.73 701.13
  C 756.03 701.87 755.74 702.63 756.00 703.40
  Q 757.57 707.97 759.51 712.67
  C 760.03 713.93 759.75 715.07 760.20 716.36
  Q 761.31 719.51 762.54 722.43
  Q 763.59 724.92 764.31 727.86
  Q 765.03 730.75 765.91 733.52"
/>
<path stroke="#feba80" vector-effect="non-scaling-stroke" d="
  M 765.91 733.52
  Q 766.70 738.54 769.24 743.46"
/>
<path stroke="#e8895d" vector-effect="non-scaling-stroke" d="
  M 769.24 743.46
  Q 770.61 747.23 772.13 751.00
  Q 772.22 751.22 772.06 751.51
  Q 771.84 751.90 772.00 752.31
  L 775.90 762.65
  Q 776.08 763.14 776.00 763.64
  Q 775.88 764.32 776.13 764.99
  Q 778.00 770.04 779.93 774.75
  Q 780.12 775.20 780.01 775.67
  Q 779.83 776.49 780.11 777.25
  Q 781.72 781.57 783.47 785.84
  Q 783.78 786.61 783.84 787.77
  Q 783.90 788.88 784.25 789.75
  Q 786.44 795.13 787.60 799.60"
/>
<path stroke="#f7abb4" vector-effect="non-scaling-stroke" d="
  M 794.26 479.20
  L 783.97 471.30"
/>
<path stroke="#aa6d98" vector-effect="non-scaling-stroke" d="
  M 783.97 471.30
  Q 783.90 470.26 783.57 470.21
  Q 778.00 461.99 769.84 460.67"
/>
<path stroke="#768da9" vector-effect="non-scaling-stroke" d="
  M 493.75 900.24
  Q 493.36 900.51 493.45 901.24
  Q 499.48 952.36 505.68 1002.76"
/>
<path stroke="#3d6da7" vector-effect="non-scaling-stroke" d="
  M 505.68 1002.76
  L 508.74 1035.03"
/>
<path stroke="#24467c" vector-effect="non-scaling-stroke" d="
  M 508.74 1035.03
  L 502.29 1047.78"
/>
<path stroke="#182236" vector-effect="non-scaling-stroke" d="
  M 502.29 1047.78
  Q 501.75 1046.65 500.37 1047.01
  Q 499.82 1047.15 499.51 1047.62
  Q 497.95 1049.98 496.39 1051.17
  Q 481.71 1062.36 463.75 1067.16
  Q 460.75 1067.96 455.03 1068.85"
/>
<path stroke="#24467c" vector-effect="non-scaling-stroke" d="
  M 455.03 1068.85
  Q 442.13 1067.16 436.37 1057.89
  Q 435.24 1056.08 434.45 1053.49
  Q 433.61 1050.74 432.91 1049.13
  Q 431.54 1046.00 431.30 1044.75
  Q 430.18 1038.86 429.22 1036.75"
/>
<path stroke="#3d6da7" vector-effect="non-scaling-stroke" d="
  M 429.22 1036.75
  L 426.94 1028.18"
/>
<path stroke="#24467c" vector-effect="non-scaling-stroke" d="
  M 426.94 1028.18
  Q 427.23 1025.66 426.07 1023.25"
/>
<path stroke="#3d6da7" vector-effect="non-scaling-stroke" d="
  M 426.07 1023.25
  Q 422.90 1013.59 421.29 1003.55"
/>
<path stroke="#768da9" vector-effect="non-scaling-stroke" d="
  M 421.29 1003.55
  C 419.79 995.57 418.19 987.41 417.41 979.33
  Q 417.27 977.92 416.89 975.75
  Q 415.29 966.55 413.37 949.22"
/>
<path stroke="#3d578d" vector-effect="non-scaling-stroke" d="
  M 413.37 949.22
  Q 413.67 947.02 412.82 945.03"
/>
<path stroke="#768da9" vector-effect="non-scaling-stroke" d="
  M 412.82 945.03
  Q 411.17 930.40 409.89 915.73
  Q 408.35 897.99 406.95 880.25
  Q 406.81 878.55 405.82 877.96"
/>
<path stroke="#82405d" vector-effect="non-scaling-stroke" d="
  M 599.06 536.98
  Q 578.42 555.24 552.74 564.85"
/>
<path stroke="#e7646d" vector-effect="non-scaling-stroke" d="
  M 768.49 484.21
  Q 766.40 485.95 765.78 488.73"
/>
<path stroke="#e7646d" vector-effect="non-scaling-stroke" d="
  M 759.51 499.06
  Q 758.12 499.85 758.16 501.43"
/>
<path stroke="#e7646d" vector-effect="non-scaling-stroke" d="
  M 751.51 512.28
  Q 749.67 514.00 749.24 516.20"
/>
<path stroke="#e7646d" vector-effect="non-scaling-stroke" d="
  M 747.48 518.81
  Q 745.80 520.35 745.78 521.99"
/>
<path stroke="#e7646d" vector-effect="non-scaling-stroke" d="
  M 743.82 525.02
  Q 741.63 527.27 741.17 529.73"
/>
<path stroke="#e7646d" vector-effect="non-scaling-stroke" d="
  M 739.53 532.09
  Q 737.45 534.16 736.72 536.92"
/>
<path stroke="#e7646d" vector-effect="non-scaling-stroke" d="
  M 734.62 539.99
  Q 733.04 541.23 733.59 544.03"
/>
<path stroke="#e7646d" vector-effect="non-scaling-stroke" d="
  M 738.62 568.90
  Q 737.66 570.23 737.81 572.19"
/>
<path stroke="#e8722f" vector-effect="non-scaling-stroke" d="
  M 736.59 575.56
  Q 732.18 583.98 724.84 589.81
  Q 723.20 591.12 723.99 592.76
  Q 726.99 598.95 736.81 617.87"
/>
<path stroke="#e7646d" vector-effect="non-scaling-stroke" d="
  M 741.49 632.27
  Q 741.62 635.60 743.51 638.72"
/>
<path stroke="#e7646d" vector-effect="non-scaling-stroke" d="
  M 745.75 645.27
  Q 745.91 648.40 747.55 650.97"
/>
<path stroke="#e7646d" vector-effect="non-scaling-stroke" d="
  M 750.21 658.50
  Q 750.04 661.41 751.94 664.23"
/>
<path stroke="#e7646d" vector-effect="non-scaling-stroke" d="
  M 754.21 670.72
  Q 754.07 674.00 756.22 677.21"
/>
<path stroke="#e7646d" vector-effect="non-scaling-stroke" d="
  M 758.18 682.75
  Q 758.49 686.41 760.20 689.49"
/>
<path stroke="#e7646d" vector-effect="non-scaling-stroke" d="
  M 762.01 694.52
  Q 762.16 698.77 764.48 702.45"
/>
<path stroke="#e7646d" vector-effect="non-scaling-stroke" d="
  M 766.19 707.25
  Q 766.41 711.04 768.50 714.72"
/>
<path stroke="#e7646d" vector-effect="non-scaling-stroke" d="
  M 770.18 719.49
  Q 770.24 723.43 772.59 727.23"
/>
<path stroke="#e7646d" vector-effect="non-scaling-stroke" d="
  M 774.86 733.40
  Q 774.83 736.33 776.18 738.25"
/>
<path stroke="#e7646d" vector-effect="non-scaling-stroke" d="
  M 778.73 745.20
  Q 778.12 745.51 778.51 746.18
  Q 779.03 747.09 779.20 748.13
  Q 779.36 749.08 780.52 751.50"
/>
<path stroke="#e7646d" vector-effect="non-scaling-stroke" d="
  M 783.17 759.00
  Q 783.33 762.19 784.98 764.96"
/>
<path stroke="#e7646d" vector-effect="non-scaling-stroke" d="
  M 786.48 769.26
  Q 786.74 773.57 789.02 777.21"
/>
<path stroke="#e7646d" vector-effect="non-scaling-stroke" d="
  M 791.01 783.02
  Q 791.12 785.73 792.57 788.22"
/>
<path stroke="#e7646d" vector-effect="non-scaling-stroke" d="
  M 769.24 743.46
  Q 768.38 738.29 765.91 733.52"
/>
<path stroke="#e7646d" vector-effect="non-scaling-stroke" d="
  M 731.42 628.75
  Q 730.90 625.10 729.19 621.79"
/>
<path stroke="#e8722f" vector-effect="non-scaling-stroke" d="
  M 705.54 595.25
  Q 694.49 594.22 686.25 588.13"
/>
<path stroke="#e7646d" vector-effect="non-scaling-stroke" d="
  M 693.27 533.54
  L 698.46 531.73"
/>
<path stroke="#e7646d" vector-effect="non-scaling-stroke" d="
  M 714.30 531.77
  L 721.23 534.22"
/>
<path stroke="#e7646d" vector-effect="non-scaling-stroke" d="
  M 741.09 515.35
  Q 743.35 513.56 743.99 510.76"
/>
<path stroke="#e7646d" vector-effect="non-scaling-stroke" d="
  M 745.30 508.80
  Q 746.96 507.38 747.25 505.48"
/>
<path stroke="#e7646d" vector-effect="non-scaling-stroke" d="
  M 757.50 488.94
  Q 759.52 486.69 760.48 484.07"
/>
<path stroke="#e5e1e6" vector-effect="non-scaling-stroke" d="
  M 812.46 800.24
  L 797.31 799.69
  Q 797.04 799.68 796.81 799.55
  Q 796.65 799.47 796.50 799.46"
/>
<path stroke="#e899a5" vector-effect="non-scaling-stroke" d="
  M 796.24 799.09
  L 792.57 788.22"
/>
<path stroke="#fecac8" vector-effect="non-scaling-stroke" d="
  M 792.57 788.22
  Q 792.38 785.52 791.01 783.02"
/>
<path stroke="#e899a5" vector-effect="non-scaling-stroke" d="
  M 791.01 783.02
  L 789.02 777.21"
/>
<path stroke="#fecac8" vector-effect="non-scaling-stroke" d="
  M 789.02 777.21
  Q 788.54 773.15 786.48 769.26"
/>
<path stroke="#e899a5" vector-effect="non-scaling-stroke" d="
  M 786.48 769.26
  L 784.98 764.96"
/>
<path stroke="#fecac8" vector-effect="non-scaling-stroke" d="
  M 784.98 764.96
  Q 784.74 761.94 783.17 759.00"
/>
<path stroke="#e899a5" vector-effect="non-scaling-stroke" d="
  M 783.17 759.00
  L 780.52 751.50"
/>
<path stroke="#fecac8" vector-effect="non-scaling-stroke" d="
  M 780.52 751.50
  Q 780.23 748.23 778.73 745.20"
/>
<path stroke="#e899a5" vector-effect="non-scaling-stroke" d="
  M 778.73 745.20
  L 776.18 738.25"
/>
<path stroke="#fecac8" vector-effect="non-scaling-stroke" d="
  M 776.18 738.25
  Q 776.13 735.89 774.86 733.40"
/>
<path stroke="#e899a5" vector-effect="non-scaling-stroke" d="
  M 774.86 733.40
  L 772.59 727.23"
/>
<path stroke="#fecac8" vector-effect="non-scaling-stroke" d="
  M 772.59 727.23
  Q 772.21 723.14 770.18 719.49"
/>
<path stroke="#e899a5" vector-effect="non-scaling-stroke" d="
  M 770.18 719.49
  L 768.50 714.72"
/>
<path stroke="#fecac8" vector-effect="non-scaling-stroke" d="
  M 768.50 714.72
  Q 767.95 710.75 766.19 707.25"
/>
<path stroke="#e899a5" vector-effect="non-scaling-stroke" d="
  M 766.19 707.25
  L 764.48 702.45"
/>
<path stroke="#fecac8" vector-effect="non-scaling-stroke" d="
  M 764.48 702.45
  Q 764.01 698.24 762.01 694.52"
/>
<path stroke="#e899a5" vector-effect="non-scaling-stroke" d="
  M 762.01 694.52
  L 760.20 689.49"
/>
<path stroke="#fecac8" vector-effect="non-scaling-stroke" d="
  M 760.20 689.49
  Q 759.85 685.99 758.18 682.75"
/>
<path stroke="#e899a5" vector-effect="non-scaling-stroke" d="
  M 758.18 682.75
  L 756.22 677.21"
/>
<path stroke="#fecac8" vector-effect="non-scaling-stroke" d="
  M 756.22 677.21
  Q 755.97 673.82 754.21 670.72"
/>
<path stroke="#e899a5" vector-effect="non-scaling-stroke" d="
  M 754.21 670.72
  L 751.94 664.23"
/>
<path stroke="#fecac8" vector-effect="non-scaling-stroke" d="
  M 751.94 664.23
  Q 751.61 661.18 750.21 658.50"
/>
<path stroke="#e899a5" vector-effect="non-scaling-stroke" d="
  M 750.21 658.50
  L 747.55 650.97"
/>
<path stroke="#fecac8" vector-effect="non-scaling-stroke" d="
  M 747.55 650.97
  Q 747.36 647.97 745.75 645.27"
/>
<path stroke="#e899a5" vector-effect="non-scaling-stroke" d="
  M 745.75 645.27
  L 743.51 638.72"
/>
<path stroke="#fecac8" vector-effect="non-scaling-stroke" d="
  M 743.51 638.72
  Q 743.22 635.35 741.49 632.27"
/>
<path stroke="#e899a5" vector-effect="non-scaling-stroke" d="
  M 741.49 632.27
  L 736.81 617.87"
/>
<path stroke="#ffd889" vector-effect="non-scaling-stroke" d="
  M 736.81 617.87
  Q 742.00 624.68 746.78 631.50
  Q 748.04 633.30 748.98 633.70
  C 751.05 634.59 753.00 633.33 753.57 631.25
  Q 755.61 623.81 752.82 615.37
  A 1.62 1.62 0.0 0 1 754.49 613.25
  L 783.56 615.64
  A 0.52 0.52 0.0 0 0 783.94 614.72
  L 736.59 575.56"
/>
<path stroke="#e899a5" vector-effect="non-scaling-stroke" d="
  M 736.59 575.56
  Q 737.45 574.11 737.81 572.19"
/>
<path stroke="#fecac8" vector-effect="non-scaling-stroke" d="
  M 737.81 572.19
  Q 738.65 571.20 738.62 568.90"
/>
<path stroke="#e899a5" vector-effect="non-scaling-stroke" d="
  M 738.62 568.90
  Q 740.85 556.26 733.59 544.03"
/>
<path stroke="#fecac8" vector-effect="non-scaling-stroke" d="
  M 733.59 544.03
  Q 733.44 542.40 734.41 541.42
  Q 734.99 540.84 734.62 539.99"
/>
<path stroke="#e899a5" vector-effect="non-scaling-stroke" d="
  M 734.62 539.99
  L 736.72 536.92"
/>
<path stroke="#fecac8" vector-effect="non-scaling-stroke" d="
  M 736.72 536.92
  Q 738.96 534.73 739.53 532.09"
/>
<path stroke="#e899a5" vector-effect="non-scaling-stroke" d="
  M 739.53 532.09
  L 741.17 529.73"
/>
<path stroke="#fecac8" vector-effect="non-scaling-stroke" d="
  M 741.17 529.73
  Q 743.05 527.49 743.82 525.02"
/>
<path stroke="#e899a5" vector-effect="non-scaling-stroke" d="
  M 743.82 525.02
  L 745.78 521.99"
/>
<path stroke="#fecac8" vector-effect="non-scaling-stroke" d="
  M 745.78 521.99
  Q 747.20 520.85 747.48 518.81"
/>
<path stroke="#e899a5" vector-effect="non-scaling-stroke" d="
  M 747.48 518.81
  L 749.24 516.20"
/>
<path stroke="#fecac8" vector-effect="non-scaling-stroke" d="
  M 749.24 516.20
  Q 751.01 514.50 751.51 512.28"
/>
<path stroke="#e899a5" vector-effect="non-scaling-stroke" d="
  M 751.51 512.28
  L 758.16 501.43"
/>
<path stroke="#fecac8" vector-effect="non-scaling-stroke" d="
  M 758.16 501.43
  Q 759.44 500.48 759.51 499.06"
/>
<path stroke="#e899a5" vector-effect="non-scaling-stroke" d="
  M 759.51 499.06
  L 765.78 488.73"
/>
<path stroke="#fecac8" vector-effect="non-scaling-stroke" d="
  M 765.78 488.73
  Q 767.75 486.80 768.49 484.21"
/>
<path stroke="#e899a5" vector-effect="non-scaling-stroke" d="
  M 768.49 484.21
  L 775.63 472.39"
/>
<path stroke="#97c7fc" vector-effect="non-scaling-stroke" d="
  M 1245.04 1065.31
  Q 1244.91 1065.93 1243.74 1065.41
  Q 1204.68 1047.99 1164.40 1039.42
  Q 1107.69 1027.35 1040.94 1018.82
  Q 967.79 1009.47 892.50 1005.16
  Q 846.96 1002.54 801.23 1001.32"
/>
<path stroke="#9eb9e3" vector-effect="non-scaling-stroke" d="
  M 767.90 824.21
  Q 768.11 822.46 767.07 820.80"
/>
<path stroke="#768da9" vector-effect="non-scaling-stroke" d="
  M 765.83 815.67
  L 767.07 820.80"
/>
<path stroke="#3d578d" vector-effect="non-scaling-stroke" d="
  M 767.07 820.80
  Q 766.96 822.88 767.90 824.21"
/>
<path stroke="#768da9" vector-effect="non-scaling-stroke" d="
  M 767.90 824.21
  Q 786.28 890.26 798.20 961.75
  Q 801.61 982.18 801.23 1001.32"
/>
<path stroke="#3665a5" vector-effect="non-scaling-stroke" d="
  M 801.23 1001.32
  L 798.67 1007.03"
/>
<path stroke="#182236" vector-effect="non-scaling-stroke" d="
  M 798.67 1007.03
  Q 795.51 1009.17 792.43 1010.93
  Q 789.28 1012.74 785.65 1013.61
  Q 767.62 1017.90 749.12 1015.53
  Q 747.70 1015.35 747.73 1015.62"
/>
<path stroke="#3d6da7" vector-effect="non-scaling-stroke" d="
  M 747.73 1015.62
  Q 743.66 1013.89 739.96 1011.46
  Q 737.53 1009.86 736.65 1007.60
  Q 735.20 1003.88 735.86 999.75
  Q 735.93 999.28 735.25 998.04"
/>
<path stroke="#768da9" vector-effect="non-scaling-stroke" d="
  M 735.25 998.04
  L 734.55 995.97"
/>
<path stroke="#70778f" vector-effect="non-scaling-stroke" d="
  M 734.55 995.97
  Q 734.50 993.45 733.58 991.28"
/>
<path stroke="#768da9" vector-effect="non-scaling-stroke" d="
  M 733.58 991.28
  L 730.37 979.73"
/>
<path stroke="#3d578d" vector-effect="non-scaling-stroke" d="
  M 730.37 979.73
  Q 730.77 978.17 729.77 976.54"
/>
<path stroke="#768da9" vector-effect="non-scaling-stroke" d="
  M 729.77 976.54
  L 727.18 967.49"
/>
<path stroke="#3d578d" vector-effect="non-scaling-stroke" d="
  M 727.18 967.49
  Q 727.15 964.84 726.00 962.52"
/>
<path stroke="#768da9" vector-effect="non-scaling-stroke" d="
  M 726.00 962.52
  L 723.20 953.23"
/>
<path stroke="#3d578d" vector-effect="non-scaling-stroke" d="
  M 723.20 953.23
  Q 722.74 948.81 720.78 944.75"
/>
<path stroke="#768da9" vector-effect="non-scaling-stroke" d="
  M 720.78 944.75
  L 718.99 938.47"
/>
<path stroke="#3d578d" vector-effect="non-scaling-stroke" d="
  M 718.99 938.47
  Q 718.48 934.23 716.59 930.29"
/>
<path stroke="#768da9" vector-effect="non-scaling-stroke" d="
  M 716.59 930.29
  L 714.45 923.50"
/>
<path stroke="#3d578d" vector-effect="non-scaling-stroke" d="
  M 714.45 923.50
  Q 714.59 921.11 713.18 918.53"
/>
<path stroke="#768da9" vector-effect="non-scaling-stroke" d="
  M 713.18 918.53
  L 710.44 910.22"
/>
<path stroke="#3d578d" vector-effect="non-scaling-stroke" d="
  M 710.44 910.22
  Q 710.42 907.81 709.21 905.55"
/>
<path stroke="#768da9" vector-effect="non-scaling-stroke" d="
  M 709.21 905.55
  L 706.24 896.75"
/>
<path stroke="#3d578d" vector-effect="non-scaling-stroke" d="
  M 706.24 896.75
  Q 706.08 893.48 704.29 890.30"
/>
<path stroke="#768da9" vector-effect="non-scaling-stroke" d="
  M 704.29 890.30
  L 702.45 884.72"
/>
<path stroke="#3d578d" vector-effect="non-scaling-stroke" d="
  M 702.45 884.72
  Q 701.98 881.00 700.20 877.55"
/>
<path stroke="#768da9" vector-effect="non-scaling-stroke" d="
  M 700.20 877.55
  Q 698.92 873.79 697.58 870.01
  Q 697.45 869.64 697.44 868.98
  C 697.43 868.12 696.95 867.58 696.75 866.99
  Q 692.82 855.51 688.94 844.03
  Q 688.74 843.46 687.93 843.41"
/>
<path stroke="#40658b" vector-effect="non-scaling-stroke" d="
  M 747.73 1015.62
  L 747.97 1031.46"
/>
<path stroke="#4c88d0" vector-effect="non-scaling-stroke" d="
  M 747.97 1031.46
  Q 747.43 1032.79 746.25 1032.74
  Q 627.33 1027.68 508.74 1035.03"
/>
<path stroke="#263e60" vector-effect="non-scaling-stroke" d="
  M 455.03 1068.85
  Q 450.83 1071.33 447.18 1072.92
  C 444.56 1074.07 442.27 1075.63 439.71 1076.67
  Q 437.52 1077.55 435.36 1078.85
  C 434.36 1079.45 432.85 1079.40 431.79 1080.10
  Q 426.98 1083.32 423.50 1084.87
  Q 420.59 1086.17 418.62 1087.19
  Q 415.84 1088.62 413.78 1089.57
  Q 411.93 1090.42 410.04 1091.53
  Q 408.17 1092.63 406.29 1093.48
  C 399.86 1096.37 388.90 1103.16 389.52 1111.42
  Q 389.70 1113.84 392.05 1116.85
  C 399.50 1126.39 410.07 1130.65 422.26 1129.68
  Q 426.32 1129.35 427.75 1129.11
  Q 435.27 1127.81 445.02 1124.54
  Q 445.96 1124.22 446.79 1124.17
  Q 447.61 1124.13 448.43 1123.88
  Q 452.76 1122.58 457.04 1120.74
  C 457.77 1120.43 458.41 1120.76 459.26 1120.39
  Q 464.60 1118.02 469.35 1116.18
  Q 473.80 1114.46 477.44 1112.37
  Q 477.87 1112.13 478.36 1112.06
  Q 478.85 1112.00 479.28 1111.79
  Q 491.76 1105.82 504.21 1098.14
  Q 511.46 1093.68 510.89 1085.25
  Q 509.63 1066.82 502.29 1047.78"
/>
<path stroke="#9eb9e3" vector-effect="non-scaling-stroke" d="
  M 700.20 877.55
  Q 700.62 881.25 702.45 884.72"
/>
<path stroke="#9eb9e3" vector-effect="non-scaling-stroke" d="
  M 704.29 890.30
  Q 704.51 893.70 706.24 896.75"
/>
<path stroke="#9eb9e3" vector-effect="non-scaling-stroke" d="
  M 709.21 905.55
  Q 709.08 907.83 710.44 910.22"
/>
<path stroke="#9eb9e3" vector-effect="non-scaling-stroke" d="
  M 713.18 918.53
  Q 713.01 921.09 714.45 923.50"
/>
<path stroke="#9eb9e3" vector-effect="non-scaling-stroke" d="
  M 716.59 930.29
  Q 716.50 932.04 716.86 932.75
  Q 717.49 933.97 717.82 935.98
  Q 718.01 937.11 718.99 938.47"
/>
<path stroke="#9eb9e3" vector-effect="non-scaling-stroke" d="
  M 720.78 944.75
  Q 721.12 949.16 723.20 953.23"
/>
<path stroke="#9eb9e3" vector-effect="non-scaling-stroke" d="
  M 726.00 962.52
  Q 725.60 965.12 727.18 967.49"
/>
<path stroke="#9eb9e3" vector-effect="non-scaling-stroke" d="
  M 729.77 976.54
  Q 729.41 978.36 730.37 979.73"
/>
<path stroke="#d1d9e6" vector-effect="non-scaling-stroke" d="
  M 733.58 991.28
  Q 733.17 993.40 734.55 995.97"
/>
<path stroke="#9ecffd" vector-effect="non-scaling-stroke" d="
  M 735.25 998.04
  Q 735.41 998.42 735.22 998.90
  A 0.80 0.78 11.2 0 1 734.47 999.39
  Q 705.97 998.92 677.49 998.97
  Q 648.86 999.02 614.75 999.34
  Q 572.05 999.75 505.68 1002.76"
/>
<path stroke="#9eb9e3" vector-effect="non-scaling-stroke" d="
  M 412.82 945.03
  Q 412.40 947.13 413.37 949.22"
/>
<path stroke="#9ecffd" vector-effect="non-scaling-stroke" d="
  M 421.29 1003.55
  L 421.10 1006.97
  A 0.77 0.76 -0.4 0 1 420.38 1007.70
  Q 328.63 1014.17 238.09 1028.23
  C 234.64 1028.76 228.59 1030.46 223.50 1030.47"
/>
<path stroke="#4c88d0" vector-effect="non-scaling-stroke" d="
  M 426.07 1023.25
  Q 425.40 1025.81 426.94 1028.18"
/>
<path stroke="#4c88d0" vector-effect="non-scaling-stroke" d="
  M 429.22 1036.75
  Q 429.03 1039.23 429.88 1041.48
  A 1.14 1.14 0.0 0 1 428.95 1043.02
  Q 393.62 1047.24 359.31 1054.83
  Q 358.53 1055.01 357.76 1055.29
  C 356.53 1055.73 355.12 1055.63 353.81 1055.91
  Q 347.75 1057.24 341.95 1059.05
  Q 340.53 1059.49 339.05 1059.84
  Q 334.34 1060.95 328.36 1063.36
  Q 327.41 1063.74 325.68 1064.16
  Q 324.23 1064.52 323.01 1064.99
  Q 312.84 1068.91 304.61 1073.12
  Q 303.03 1073.93 300.82 1075.43
  Q 299.08 1076.60 297.18 1077.79
  Q 293.99 1079.78 290.87 1083.96
  C 285.36 1091.35 290.83 1098.57 296.88 1103.01
  Q 308.23 1111.34 322.55 1116.04
  Q 340.14 1121.81 358.71 1126.17
  Q 367.13 1128.15 378.31 1130.19
  Q 425.29 1138.78 473.75 1142.93
  Q 650.15 1158.04 826.55 1142.43"
/>
<path stroke="#5ea7fa" vector-effect="non-scaling-stroke" d="
  M 892.44 1175.31
  Q 893.11 1174.51 892.07 1173.93
  C 884.88 1169.92 874.14 1169.46 865.71 1170.70
  A 1.01 1.00 -11.1 0 1 864.59 1169.95
  L 864.52 1169.63
  A 0.50 0.49 -22.3 0 1 864.76 1169.07
  Q 865.79 1168.48 867.00 1168.46
  Q 867.91 1168.45 867.29 1167.77
  Q 865.90 1166.26 863.89 1166.41
  Q 859.95 1166.71 856.14 1166.01
  Q 853.79 1165.59 851.30 1165.89
  Q 846.61 1166.46 842.10 1164.26
  Q 841.56 1164.00 840.98 1164.17
  L 837.16 1165.29
  A 1.56 1.56 0.0 0 1 835.17 1163.57
  Q 835.76 1159.49 836.15 1155.15
  Q 836.21 1154.53 835.92 1154.04
  A 1.40 1.40 0.0 0 0 833.56 1153.93
  Q 832.62 1155.27 831.13 1155.42
  Q 830.51 1155.49 830.05 1155.06
  Q 825.85 1151.11 826.36 1146.50
  Q 826.66 1143.77 826.55 1142.43"
/>
<path stroke="#4480cf" vector-effect="non-scaling-stroke" d="
  M 826.55 1142.43
  C 869.45 1137.78 915.21 1131.70 956.22 1120.75
  Q 974.56 1115.85 990.43 1107.19
  Q 998.69 1102.68 1002.92 1096.64
  C 1011.61 1084.24 990.17 1072.87 981.74 1069.06
  Q 965.47 1061.73 943.60 1056.67
  Q 906.59 1048.11 869.69 1043.89
  Q 866.17 1043.49 864.96 1040.80"
/>
<path stroke="#385d89" vector-effect="non-scaling-stroke" d="
  M 864.96 1040.80
  Q 859.89 1029.59 848.26 1027.39
  Q 825.47 1023.08 802.92 1023.28
  A 1.78 1.78 0.0 0 1 801.14 1021.80
  L 798.67 1007.03"
/>
<path stroke="#263e60" vector-effect="non-scaling-stroke" d="
  M 864.96 1040.80
  Q 867.66 1049.08 866.31 1057.50
  A 1.75 1.75 0.0 0 1 864.73 1058.98
  C 831.35 1062.01 798.13 1064.22 764.77 1063.60
  Q 759.96 1063.52 757.74 1062.39
  Q 754.03 1060.53 752.42 1057.01
  Q 747.24 1045.70 747.97 1031.46"
/>
<path stroke="#b2c1e3" vector-effect="non-scaling-stroke" d="
  M 210.40 537.46
  L 186.85 537.25
  A 2.79 2.78 -88.0 0 0 184.05 539.87
  Q 183.71 545.40 184.12 550.52
  A 2.22 2.22 0.0 0 0 186.33 552.57
  L 210.73 552.65"
/>
<path stroke="#b2c1e3" vector-effect="non-scaling-stroke" d="
  M 210.37 569.74
  L 186.75 569.97
  A 2.96 2.96 0.0 0 0 183.82 572.83
  Q 183.63 578.27 184.20 583.39
  A 2.70 2.69 86.6 0 0 186.90 585.79
  L 210.87 585.60"
/>
<path stroke="#4b72b6" vector-effect="non-scaling-stroke" d="
  M 210.24 651.78
  Q 209.43 652.19 208.75 652.22
  Q 193.87 652.76 178.95 652.62"
/>
<path stroke="#3d578d" vector-effect="non-scaling-stroke" d="
  M 178.95 652.62
  L 177.25 652.75"
/>
<path stroke="#24467c" vector-effect="non-scaling-stroke" d="
  M 210.51 652.26
  Q 210.54 653.00 209.50 653.07
  Q 205.56 653.36 201.64 653.11
  Q 196.65 652.80 193.82 652.86
  Q 186.39 653.02 178.95 652.62"
/>
<path stroke="#b2c1e3" vector-effect="non-scaling-stroke" d="
  M 264.87 536.67
  Q 254.66 536.78 244.15 537.11
  C 240.92 537.22 238.02 536.92 237.98 540.98
  Q 237.96 543.49 237.96 545.95
  C 237.97 549.79 237.60 552.63 242.24 552.67
  Q 253.62 552.77 264.93 552.87"
/>
<path stroke="#b2c1e3" vector-effect="non-scaling-stroke" d="
  M 264.89 569.67
  L 241.30 570.01
  Q 238.02 570.06 238.02 573.35
  L 238.04 582.23
  Q 238.05 585.63 241.45 585.66
  L 264.82 585.86"
/>
<path stroke="#3d578d" vector-effect="non-scaling-stroke" d="
  M 265.05 652.25
  Q 264.77 652.66 264.25 652.67
  Q 248.70 652.77 233.15 652.71
  Q 232.71 652.71 232.36 652.45
  L 232.05 652.21"
/>
<path stroke="#8a6e33" vector-effect="non-scaling-stroke" d="
  M 355.03 652.02
  L 354.92 652.36
  Q 354.79 652.72 354.41 652.72
  Q 339.91 652.78 325.94 652.71
  Q 325.58 652.71 325.30 652.50
  Q 324.91 652.21 324.92 651.78"
/>
<path stroke="#8a8461" vector-effect="non-scaling-stroke" d="
  M 315.53 652.29
  Q 314.87 652.55 314.13 652.56
  Q 300.09 652.75 286.04 652.71
  Q 285.71 652.71 285.49 652.57
  Q 285.26 652.41 285.06 652.19"
/>
<path stroke="#e5e1e6" vector-effect="non-scaling-stroke" d="
  M 1034.93 498.06
  A 2.30 2.30 0.0 0 0 1032.63 495.76
  L 803.47 495.76
  A 2.30 2.30 0.0 0 0 801.17 498.06
  L 801.17 505.56
  A 2.30 2.30 0.0 0 0 803.47 507.86
  L 1032.63 507.86
  A 2.30 2.30 0.0 0 0 1034.93 505.56
  L 1034.93 498.06"
/>
<path stroke="#e5e1e6" vector-effect="non-scaling-stroke" d="
  M 983.76 538.67
  A 1.43 1.43 0.0 0 0 982.33 537.24
  L 858.95 537.24
  A 1.43 1.43 0.0 0 0 857.52 538.67
  L 857.52 553.57
  A 1.43 1.43 0.0 0 0 858.95 555.00
  L 982.33 555.00
  A 1.43 1.43 0.0 0 0 983.76 553.57
  L 983.76 538.67"
/>
<path stroke="#ffefb8" vector-effect="non-scaling-stroke" d="
  M 853.08 612.73
  Q 852.85 614.37 853.90 616.26"
/>
<path stroke="#ffd889" vector-effect="non-scaling-stroke" d="
  M 853.90 616.26
  L 857.28 626.75
  A 1.28 1.28 0.0 0 0 858.87 627.58
  Q 905.36 613.38 952.49 623.01
  C 953.28 623.17 954.01 623.05 954.74 623.23
  Q 962.49 625.16 970.29 627.31
  A 1.84 1.84 0.0 0 0 972.53 626.10
  Q 975.76 615.98 978.84 605.94
  Q 979.05 605.24 979.32 604.58
  Q 980.14 602.54 978.10 601.97
  Q 929.85 588.33 881.45 595.49
  Q 866.01 597.78 851.33 602.21
  A 1.51 1.50 -17.5 0 0 850.33 604.11
  L 853.08 612.73"
/>
<path stroke="#ffc842" vector-effect="non-scaling-stroke" d="
  M 853.90 616.26
  Q 854.37 614.36 853.08 612.73"
/>
<path stroke="#e5e1e6" vector-effect="non-scaling-stroke" d="
  M 1028.55 671.02
  A 2.27 2.27 0.0 0 0 1026.28 668.75
  L 815.66 668.75
  A 2.27 2.27 0.0 0 0 813.39 671.02
  L 813.39 676.62
  A 2.27 2.27 0.0 0 0 815.66 678.89
  L 1026.28 678.89
  A 2.27 2.27 0.0 0 0 1028.55 676.62
  L 1028.55 671.02"
/>
<path stroke="#e5e1e6" vector-effect="non-scaling-stroke" d="
  M 993.21 696.79
  A 2.54 2.54 0.0 0 0 990.67 694.25
  L 852.19 694.25
  A 2.54 2.54 0.0 0 0 849.65 696.79
  L 849.65 701.33
  A 2.54 2.54 0.0 0 0 852.19 703.87
  L 990.67 703.87
  A 2.54 2.54 0.0 0 0 993.21 701.33
  L 993.21 696.79"
/>
<path stroke="#b2c1e3" vector-effect="non-scaling-stroke" d="
  M 991.67 737.07
  C 990.43 731.95 987.53 727.71 983.05 724.89
  Q 982.84 724.76 982.70 724.96
  L 982.52 725.22
  A 0.37 0.37 0.0 0 0 982.60 725.71
  Q 984.97 727.65 986.54 729.50
  Q 989.28 732.74 991.16 737.48
  Q 991.18 737.54 991.24 737.52
  L 991.48 737.43
  Q 991.73 737.33 991.67 737.07"
/>
<path stroke="#8a95a9" vector-effect="non-scaling-stroke" d="
  M 1015.05 738.22
  Q 1018.07 739.04 1020.29 741.07
  C 1021.55 742.22 1023.01 742.12 1024.48 741.53
  Q 1031.53 738.71 1037.99 735.37
  Q 1038.25 735.24 1038.13 734.97
  L 1037.99 734.65
  Q 1037.75 734.11 1037.20 734.34
  Q 1031.01 736.95 1024.99 739.83
  Q 1023.21 740.69 1021.62 739.65
  Q 1018.97 737.92 1015.78 736.97
  Q 1015.17 736.79 1014.89 737.36
  L 1014.77 737.60
  A 0.44 0.44 0.0 0 0 1015.05 738.22"
/>
<path stroke="#8a95a9" vector-effect="non-scaling-stroke" d="
  M 1007.07 741.63
  C 1007.91 739.43 1010.82 738.92 1012.67 737.77
  Q 1013.47 737.27 1012.53 737.26
  Q 1008.29 737.23 1005.70 740.59
  Q 1004.27 742.43 1005.86 744.28
  Q 1008.95 747.87 1010.95 752.15
  A 0.67 0.66 -20.7 0 0 1011.75 752.50
  L 1012.04 752.41
  Q 1013.00 752.10 1012.53 751.20
  Q 1010.39 747.14 1007.58 744.17
  A 2.42 2.42 0.0 0 1 1007.07 741.63"
/>
<path stroke="#8d8d8d" vector-effect="non-scaling-stroke" d="
  M 956.96 742.55
  C 960.59 739.97 964.44 738.90 967.94 742.18
  Q 970.99 745.04 970.53 750.11
  A 0.95 0.91 -64.6 0 0 970.76 750.80
  L 971.02 751.10
  A 0.40 0.40 0.0 0 0 971.71 750.90
  C 973.05 741.65 965.20 735.40 956.80 740.80
  Q 942.13 750.23 932.12 764.87
  A 0.51 0.51 0.0 0 0 932.39 765.64
  L 932.65 765.71
  Q 933.42 765.94 933.88 765.29
  Q 943.28 752.27 956.96 742.55"
/>
<path stroke="#8d8d8d" vector-effect="non-scaling-stroke" d="
  M 985.4580 750.6919
  A 5.53 0.92 -24.1 0 0 980.0343 752.1102
  A 5.53 0.92 -24.1 0 0 975.3620 755.2081
  A 5.53 0.92 -24.1 0 0 980.7857 753.7898
  A 5.53 0.92 -24.1 0 0 985.4580 750.6919"
/>
<path stroke="#8d8d8d" vector-effect="non-scaling-stroke" d="
  M 999.28 754.55
  C 997.89 758.42 999.65 762.56 1003.88 763.27
  Q 1006.69 763.75 1004.38 762.08
  C 1001.55 760.05 999.27 758.87 999.94 754.84
  A 0.27 0.26 -78.0 0 0 999.75 754.54
  L 999.45 754.46
  Q 999.32 754.42 999.28 754.55"
/>
<path stroke="#e04559" vector-effect="non-scaling-stroke" d="
  M 733.16 562.85
  A 26.37 26.37 0.0 0 0 706.79 536.48
  A 26.37 26.37 0.0 0 0 680.42 562.85
  A 26.37 26.37 0.0 0 0 706.79 589.22
  A 26.37 26.37 0.0 0 0 733.16 562.85"
/>
<path stroke="#ffefb8" vector-effect="non-scaling-stroke" d="
  M 311.67 582.14
  A 11.32 11.32 0.0 0 0 300.35 570.82
  A 11.32 11.32 0.0 0 0 289.03 582.14
  A 11.32 11.32 0.0 0 0 300.35 593.46
  A 11.32 11.32 0.0 0 0 311.67 582.14"
/>
<path stroke="#f7843e" vector-effect="non-scaling-stroke" d="
  M 350.78 582.42
  A 10.88 10.88 0.0 0 0 339.90 571.54
  A 10.88 10.88 0.0 0 0 329.02 582.42
  A 10.88 10.88 0.0 0 0 339.90 593.30
  A 10.88 10.88 0.0 0 0 350.78 582.42"
/>
<path stroke="#238b6a" vector-effect="non-scaling-stroke" d="
  M 1355.86 886.46
  C 1355.33 897.03 1358.73 907.82 1365.02 916.38
  A 0.57 0.56 -41.4 0 0 1365.89 916.43
  L 1366.08 916.22
  Q 1366.69 915.57 1366.17 914.85
  Q 1357.12 902.18 1357.01 886.60
  Q 1357.00 886.14 1356.54 886.14
  L 1356.18 886.14
  Q 1355.87 886.15 1355.86 886.46"
/>
<path stroke="#238b6a" vector-effect="non-scaling-stroke" d="
  M 1344.8873 915.6974
  A 4.98 0.90 -17.2 0 0 1339.8639 916.3102
  A 4.98 0.90 -17.2 0 0 1335.3727 918.6426
  A 4.98 0.90 -17.2 0 0 1340.3961 918.0298
  A 4.98 0.90 -17.2 0 0 1344.8873 915.6974"
/>
</g>
<path fill="#152a52" d="
  M 554.53 297.81
  Q 554.36 297.50 554.00 297.53
  Q 543.45 298.43 533.16 295.63
  Q 531.66 295.22 531.87 296.76
  L 532.24 299.53
  L 531.66 312.45
  Q 531.30 317.79 527.55 319.72
  C 523.55 321.79 522.38 315.62 521.43 313.26
  Q 521.14 310.72 518.69 308.88
  Q 516.96 306.56 514.44 306.42
  C 510.64 306.22 510.22 309.57 511.35 312.37
  Q 512.63 315.53 513.90 318.81
  Q 515.85 323.90 512.03 326.14
  Q 510.94 326.78 508.37 326.74
  Q 504.20 326.68 501.22 329.70
  Q 500.81 329.53 500.65 328.70
  Q 500.55 328.19 500.19 327.82
  C 487.49 314.98 491.28 297.79 499.13 283.10
  C 500.12 281.26 501.70 279.81 503.66 279.12
  C 505.36 278.53 506.55 277.73 507.34 276.02
  C 512.78 264.26 529.40 267.93 538.64 271.16
  C 547.34 274.19 555.88 272.34 563.44 267.40
  A 1.87 1.87 0.0 0 1 566.29 268.59
  Q 567.38 273.89 567.83 279.47
  C 568.58 288.69 564.84 294.68 555.77 297.01
  A 1.90 1.86 -72.1 0 0 554.97 297.43
  L 554.53 297.81
  Z"
/>
<path fill="#fc9590" d="
  M 554.53 297.81
  Q 554.52 298.50 554.68 299.20
  Q 558.90 318.13 556.90 338.49
  Q 555.82 349.41 545.74 349.88
  Q 544.20 349.95 542.51 349.87
  Q 539.13 349.72 539.26 351.70
  L 523.80 346.73
  A 0.74 0.73 -75.6 0 0 522.86 347.29
  Q 522.70 348.09 523.61 348.93
  Q 530.10 354.91 539.20 353.73
  Q 539.41 355.01 540.95 355.53
  Q 540.51 356.49 543.94 356.38
  Q 540.82 356.22 539.67 358.94
  Q 533.64 373.10 527.67 387.19
  Q 526.32 387.17 524.97 387.64
  L 501.14 361.54
  Q 500.81 361.18 500.35 361.01
  L 499.73 360.78
  Q 500.85 361.04 501.05 359.77
  Q 503.33 345.63 501.93 331.37
  Q 501.86 330.67 501.22 329.70
  Q 504.20 326.68 508.37 326.74
  Q 510.94 326.78 512.03 326.14
  Q 515.85 323.90 513.90 318.81
  Q 512.63 315.53 511.35 312.37
  C 510.22 309.57 510.64 306.22 514.44 306.42
  Q 516.96 306.56 518.69 308.88
  L 521.43 313.26
  C 522.38 315.62 523.55 321.79 527.55 319.72
  Q 531.30 317.79 531.66 312.45
  Q 532.97 306.05 532.24 299.53
  L 531.87 296.76
  Q 531.66 295.22 533.16 295.63
  Q 543.45 298.43 554.00 297.53
  Q 554.36 297.50 554.53 297.81
  Z"
/>
<path fill="#d1334a" d="
  M 532.24 299.53
  Q 532.97 306.05 531.66 312.45
  L 532.24 299.53
  Z"
/>
<path fill="#d1334a" d="
  M 518.69 308.88
  Q 521.14 310.72 521.43 313.26
  L 518.69 308.88
  Z"
/>
<path fill="#ef5668" d="
  M 539.26 351.70
  L 539.20 353.73
  Q 530.10 354.91 523.61 348.93
  Q 522.70 348.09 522.86 347.29
  A 0.74 0.73 -75.6 0 1 523.80 346.73
  L 539.26 351.70
  Z"
/>
<path fill="#ef5668" d="
  M 777.11 435.61
  Q 769.13 431.95 763.09 432.58
  Q 756.01 433.32 752.80 439.73
  Q 738.51 426.54 723.87 413.37
  C 709.36 400.30 694.06 392.33 675.39 388.81
  Q 634.59 381.12 593.74 391.61
  Q 590.41 392.47 588.69 389.61
  Q 584.38 382.47 578.20 375.15
  Q 577.91 374.80 577.55 375.09
  L 577.36 375.25
  Q 576.66 375.82 577.13 376.58
  Q 585.76 390.79 592.32 406.21
  Q 592.52 406.66 592.88 407.00
  Q 593.31 407.40 593.50 407.97
  Q 593.47 408.46 593.63 408.96
  Q 599.60 427.23 605.83 445.41
  Q 606.22 446.55 607.55 446.60
  L 603.49 449.29
  Q 603.55 447.49 601.49 447.49
  C 599.15 447.49 598.30 447.78 596.59 449.52
  Q 584.68 461.67 570.31 470.73
  C 566.14 473.35 561.70 475.59 557.28 477.79
  C 552.42 480.20 548.18 483.29 544.39 487.08
  Q 523.76 507.72 501.20 520.22
  C 495.69 523.27 488.06 524.42 484.90 517.41
  Q 479.63 505.75 472.27 484.58
  Q 472.07 484.01 471.54 483.79
  A 1.15 1.15 0.0 0 0 470.03 484.48
  C 466.08 495.83 469.88 507.28 475.38 517.38
  Q 480.80 527.33 486.64 536.17
  C 492.75 545.42 508.24 529.96 512.49 525.53
  Q 528.82 508.51 544.28 492.04
  C 549.70 486.27 557.94 480.52 565.89 479.36
  Q 568.61 478.96 570.79 478.72
  Q 578.05 482.65 585.20 485.87
  Q 588.01 487.14 590.27 484.77
  Q 597.32 477.38 609.39 466.35
  C 615.42 460.83 620.86 457.31 628.50 457.52
  Q 640.26 457.85 651.38 463.88
  Q 640.07 468.91 628.30 468.54
  Q 626.06 468.48 624.82 469.15
  Q 623.06 470.11 622.19 471.76
  L 611.52 481.32
  Q 601.49 483.14 598.56 492.15
  Q 593.82 492.86 590.40 489.60
  C 588.99 488.27 587.45 486.41 585.36 488.33
  C 569.62 502.76 558.44 522.04 547.55 540.86
  Q 535.52 561.66 517.02 575.59
  Q 510.98 580.13 504.01 583.01
  Q 482.51 591.86 466.88 575.10
  Q 439.50 545.74 434.23 505.18
  Q 430.69 478.00 435.56 450.84
  Q 436.78 444.06 437.92 437.13
  Q 444.73 426.00 446.66 423.21
  Q 462.16 400.79 482.69 382.88
  Q 483.30 382.35 483.84 381.66
  Q 484.46 380.85 484.91 380.35
  Q 503.97 384.77 522.99 388.41
  Q 523.59 388.53 524.97 387.64
  Q 526.32 387.17 527.67 387.19
  Q 529.42 388.46 531.62 388.08
  C 542.02 386.29 547.56 381.13 546.69 370.00
  Q 546.12 362.83 543.94 356.38
  Q 540.51 356.49 540.95 355.53
  C 569.34 353.80 597.97 352.25 626.11 352.82
  Q 652.32 353.34 678.27 357.01
  Q 706.31 360.98 727.74 378.78
  Q 755.33 401.71 777.11 435.61
  Z"
/>
<path fill="#ffffff" d="
  M 543.94 356.38
  Q 546.12 362.83 546.69 370.00
  C 547.56 381.13 542.02 386.29 531.62 388.08
  Q 529.42 388.46 527.67 387.19
  Q 533.64 373.10 539.67 358.94
  Q 540.82 356.22 543.94 356.38
  Z"
/>
<path fill="#ffffff" d="
  M 499.73 360.78
  L 500.35 361.01
  Q 500.81 361.18 501.14 361.54
  L 524.97 387.64
  Q 523.59 388.53 522.99 388.41
  Q 503.97 384.77 484.91 380.35
  Q 485.92 378.60 487.35 374.84
  Q 489.50 369.17 492.55 364.03
  Q 495.18 359.61 499.73 360.78
  Z"
/>
<path fill="#d1334a" d="
  M 752.80 439.73
  C 752.50 443.16 753.01 447.91 756.85 449.01
  L 761.62 455.20
  Q 759.74 454.57 755.99 454.63
  Q 750.49 454.71 746.22 451.56
  Q 739.58 446.66 728.00 434.94
  Q 716.32 423.11 710.94 418.62
  Q 686.49 398.21 652.48 400.14
  Q 620.74 401.94 594.43 407.18
  Q 594.16 407.24 593.96 407.42
  Q 593.70 407.68 593.50 407.97
  Q 593.31 407.40 592.88 407.00
  Q 592.52 406.66 592.32 406.21
  Q 585.76 390.79 577.13 376.58
  Q 576.66 375.82 577.36 375.25
  L 577.55 375.09
  Q 577.91 374.80 578.20 375.15
  Q 584.38 382.47 588.69 389.61
  Q 590.41 392.47 593.74 391.61
  Q 634.59 381.12 675.39 388.81
  C 694.06 392.33 709.36 400.30 723.87 413.37
  Q 738.51 426.54 752.80 439.73
  Z"
/>
<path fill="#fc9590" d="
  M 777.11 435.61
  Q 801.98 447.20 828.02 458.64
  Q 828.98 459.06 831.46 459.57
  Q 831.43 459.75 831.28 459.95
  Q 831.06 460.25 830.69 460.24
  L 799.53 459.41
  Q 798.43 459.38 798.77 460.43
  Q 801.27 467.97 809.10 471.94
  Q 807.96 471.34 807.95 473.24
  C 807.95 474.69 809.39 476.47 810.17 477.77
  A 2.14 2.13 62.8 0 1 809.20 480.81
  Q 801.17 484.34 794.26 479.20
  Q 795.61 479.18 795.58 478.64
  C 795.33 473.55 794.30 467.84 792.82 463.18
  Q 789.49 452.66 777.26 450.83
  Q 771.23 449.93 756.85 449.01
  C 753.01 447.91 752.50 443.16 752.80 439.73
  Q 756.01 433.32 763.09 432.58
  Q 769.13 431.95 777.11 435.61
  Z"
/>
<path fill="#d1334a" d="
  M 437.92 437.13
  Q 436.78 444.06 435.56 450.84
  Q 430.69 478.00 434.23 505.18
  Q 439.50 545.74 466.88 575.10
  Q 482.51 591.86 504.01 583.01
  Q 510.98 580.13 517.02 575.59
  Q 535.52 561.66 547.55 540.86
  C 558.44 522.04 569.62 502.76 585.36 488.33
  C 587.45 486.41 588.99 488.27 590.40 489.60
  Q 593.82 492.86 598.56 492.15
  Q 599.54 495.87 599.20 500.17
  Q 598.35 500.97 597.01 501.72
  Q 595.75 502.43 595.02 503.42
  Q 577.57 527.18 549.81 563.31
  Q 549.11 564.23 549.72 564.92
  Q 550.05 565.29 550.54 565.21
  L 552.74 564.85
  Q 546.24 567.13 543.97 569.97
  C 531.95 585.05 518.77 600.53 504.46 612.08
  C 499.16 616.35 494.25 620.23 486.87 618.00
  C 480.43 616.05 474.79 612.19 469.24 608.26
  Q 468.83 607.97 468.31 608.21
  Q 467.80 606.98 467.55 606.73
  C 441.39 580.38 424.85 548.94 419.49 511.52
  Q 414.96 479.97 429.98 451.43
  Q 434.64 442.57 437.92 437.13
  Z"
/>
<path fill="#fc9590" d="
  M 657.43 460.14
  Q 654.58 462.66 651.38 463.88
  Q 640.26 457.85 628.50 457.52
  C 620.86 457.31 615.42 460.83 609.39 466.35
  Q 597.32 477.38 590.27 484.77
  Q 588.01 487.14 585.20 485.87
  Q 578.05 482.65 570.79 478.72
  Q 583.02 465.54 596.14 454.93
  Q 599.77 451.99 603.49 449.29
  L 607.55 446.60
  Q 629.52 440.87 648.75 452.78
  Q 652.18 454.90 654.14 458.18
  Q 654.44 458.69 655.03 458.75
  Q 655.67 458.81 655.49 459.46
  Q 655.30 460.14 656.01 460.14
  L 657.43 460.14
  Z"
/>
<path fill="#d1334a" d="
  M 603.49 449.29
  Q 599.77 451.99 596.14 454.93
  Q 583.02 465.54 570.79 478.72
  Q 568.61 478.96 565.89 479.36
  C 557.94 480.52 549.70 486.27 544.28 492.04
  Q 528.82 508.51 512.49 525.53
  C 508.24 529.96 492.75 545.42 486.64 536.17
  Q 480.80 527.33 475.38 517.38
  C 469.88 507.28 466.08 495.83 470.03 484.48
  A 1.15 1.15 0.0 0 1 471.54 483.79
  Q 472.07 484.01 472.27 484.58
  Q 479.63 505.75 484.90 517.41
  C 488.06 524.42 495.69 523.27 501.20 520.22
  Q 523.76 507.72 544.39 487.08
  C 548.18 483.29 552.42 480.20 557.28 477.79
  C 561.70 475.59 566.14 473.35 570.31 470.73
  Q 584.68 461.67 596.59 449.52
  C 598.30 447.78 599.15 447.49 601.49 447.49
  Q 603.55 447.49 603.49 449.29
  Z"
/>
<path fill="#ef5668" d="
  M 756.85 449.01
  Q 771.23 449.93 777.26 450.83
  Q 789.49 452.66 792.82 463.18
  C 794.30 467.84 795.33 473.55 795.58 478.64
  Q 795.61 479.18 794.26 479.20
  L 783.97 471.30
  Q 783.90 470.26 783.57 470.21
  Q 778.00 461.99 769.84 460.67
  L 761.62 455.20
  L 756.85 449.01
  Z"
/>
<path fill="#6483c7" d="
  M 831.46 459.57
  Q 832.19 459.43 832.93 459.99
  Q 833.31 460.28 833.78 460.28
  L 1078.30 460.58
  A 1.22 1.22 0.0 0 1 1079.52 461.80
  L 1079.52 810.21
  A 1.17 1.15 87.0 0 1 1078.49 811.37
  Q 1078.28 811.39 1078.00 811.40
  Q 974.84 811.58 882.27 811.52
  Q 881.99 811.52 881.82 811.75
  Q 881.75 811.85 881.66 811.98
  C 863.18 811.27 844.12 811.70 826.25 811.68
  Q 804.89 811.66 783.65 811.85
  L 765.59 811.58
  L 676.68 811.80
  L 600.50 811.41
  A 1.43 1.43 0.0 0 1 599.07 809.98
  L 598.51 685.54
  Q 598.90 684.74 598.91 683.75
  Q 599.15 610.56 599.29 537.38
  Q 599.29 537.24 599.23 537.14
  Q 599.11 536.94 599.06 536.98
  L 599.20 500.17
  Q 599.54 495.87 598.56 492.15
  Q 601.49 483.14 611.52 481.32
  L 611.47 797.89
  A 1.70 1.69 -90.0 0 0 613.16 799.59
  L 787.60 799.60
  Q 793.29 800.20 795.25 800.01
  Q 796.52 799.88 796.24 799.09
  Q 796.32 798.89 796.50 799.46
  Q 796.19 799.73 796.22 799.80
  A 0.99 0.98 -11.3 0 0 797.17 800.43
  Q 805.49 800.19 812.46 800.24
  Q 938.10 799.97 1063.75 800.03
  Q 1067.55 800.03 1067.54 796.30
  Q 1067.46 634.59 1066.64 473.84
  A 2.10 2.09 89.7 0 0 1064.54 471.75
  L 809.10 471.94
  Q 801.27 467.97 798.77 460.43
  Q 798.43 459.38 799.53 459.41
  L 830.69 460.24
  Q 831.06 460.25 831.28 459.95
  Q 831.43 459.75 831.46 459.57
  Z"
/>
<path fill="#6483c7" d="
  M 657.43 460.14
  Q 657.52 460.13 657.92 460.55
  Q 658.26 460.91 658.76 460.91
  L 769.84 460.67
  Q 778.00 461.99 783.57 470.21
  Q 783.90 470.26 783.97 471.30
  L 775.63 472.39
  Q 771.98 470.68 767.50 472.83
  L 622.19 471.76
  Q 623.06 470.11 624.82 469.15
  Q 626.06 468.48 628.30 468.54
  Q 640.07 468.91 651.38 463.88
  Q 654.58 462.66 657.43 460.14
  Z"
/>
<path fill="#ffde70" d="
  M 767.50 472.83
  L 760.48 484.07
  Q 758.16 486.29 757.50 488.94
  Q 756.08 490.99 754.67 493.06
  Q 753.75 494.40 753.08 495.98
  Q 752.40 497.57 750.90 498.81
  A 1.20 1.16 84.7 0 0 750.61 499.17
  L 747.25 505.48
  Q 745.56 506.76 745.30 508.80
  L 743.99 510.76
  Q 742.11 512.65 741.09 515.35
  Q 740.56 517.45 739.10 519.01
  Q 738.92 519.20 738.84 519.46
  L 738.66 520.10
  Q 738.53 520.54 738.23 520.89
  Q 735.53 524.12 733.23 527.72
  C 732.48 528.88 732.46 530.36 731.40 531.29
  Q 731.07 531.58 730.84 531.94
  L 728.48 535.72
  Q 728.35 535.91 728.29 536.14
  Q 728.11 536.75 727.43 536.87
  Q 726.93 536.96 726.12 536.55
  Q 723.71 535.32 721.23 534.22
  Q 718.00 531.77 714.30 531.77
  Q 706.35 529.74 698.46 531.73
  Q 695.40 531.98 693.27 533.54
  Q 689.70 535.24 687.76 536.76
  Q 680.76 542.26 676.96 551.06
  Q 670.67 565.66 678.96 579.04
  Q 682.04 584.02 686.25 588.13
  Q 677.28 602.09 668.00 616.02
  Q 667.10 617.37 667.96 618.51
  A 1.34 1.33 -23.1 0 0 669.22 619.01
  Q 673.56 618.35 678.23 617.77
  Q 680.25 617.51 680.67 619.45
  Q 682.61 628.36 687.32 638.09
  C 688.11 639.73 690.63 640.53 691.57 638.50
  Q 691.93 637.73 692.17 636.97
  Q 698.71 616.07 705.54 595.25
  L 718.55 593.56
  Q 719.87 593.39 720.29 594.66
  L 729.19 621.79
  Q 729.60 625.30 731.42 628.75
  Q 732.68 632.13 733.92 635.57
  Q 735.13 638.91 736.05 642.47
  Q 736.97 646.02 738.57 649.55
  Q 738.89 650.25 739.04 651.02
  C 739.31 652.36 739.51 653.58 740.02 654.86
  Q 741.74 659.23 743.33 663.59
  C 743.77 664.81 743.72 666.06 744.15 667.26
  Q 745.78 671.77 747.50 676.24
  C 747.96 677.45 747.79 678.62 748.26 679.86
  Q 749.85 684.13 751.56 688.40
  C 752.04 689.61 751.78 690.86 752.27 692.16
  Q 754.02 696.80 755.73 701.13
  C 756.03 701.87 755.74 702.63 756.00 703.40
  Q 757.57 707.97 759.51 712.67
  C 760.03 713.93 759.75 715.07 760.20 716.36
  Q 761.31 719.51 762.54 722.43
  Q 763.59 724.92 764.31 727.86
  Q 765.03 730.75 765.91 733.52
  Q 766.70 738.54 769.24 743.46
  Q 770.61 747.23 772.13 751.00
  Q 772.22 751.22 772.06 751.51
  Q 771.84 751.90 772.00 752.31
  L 775.90 762.65
  Q 776.08 763.14 776.00 763.64
  Q 775.88 764.32 776.13 764.99
  Q 778.00 770.04 779.93 774.75
  Q 780.12 775.20 780.01 775.67
  Q 779.83 776.49 780.11 777.25
  Q 781.72 781.57 783.47 785.84
  Q 783.78 786.61 783.84 787.77
  Q 783.90 788.88 784.25 789.75
  Q 786.44 795.13 787.60 799.60
  L 613.16 799.59
  A 1.70 1.69 90.0 0 1 611.47 797.89
  L 611.52 481.32
  L 622.19 471.76
  L 767.50 472.83
  Z"
/>
<path fill="#ffffff" d="
  M 783.97 471.30
  L 794.26 479.20
  Q 801.17 484.34 809.20 480.81
  A 2.14 2.13 62.8 0 0 810.17 477.77
  C 809.39 476.47 807.95 474.69 807.95 473.24
  Q 807.96 471.34 809.10 471.94
  L 1064.54 471.75
  A 2.10 2.09 89.7 0 1 1066.64 473.84
  Q 1067.46 634.59 1067.54 796.30
  Q 1067.55 800.03 1063.75 800.03
  Q 938.10 799.97 812.46 800.24
  L 797.31 799.69
  Q 797.04 799.68 796.81 799.55
  Q 796.65 799.47 796.50 799.46
  Q 796.32 798.89 796.24 799.09
  L 792.57 788.22
  Q 792.38 785.52 791.01 783.02
  L 789.02 777.21
  Q 788.54 773.15 786.48 769.26
  L 784.98 764.96
  Q 784.74 761.94 783.17 759.00
  L 780.52 751.50
  Q 780.23 748.23 778.73 745.20
  L 776.18 738.25
  Q 776.13 735.89 774.86 733.40
  L 772.59 727.23
  Q 772.21 723.14 770.18 719.49
  L 768.50 714.72
  Q 767.95 710.75 766.19 707.25
  L 764.48 702.45
  Q 764.01 698.24 762.01 694.52
  L 760.20 689.49
  Q 759.85 685.99 758.18 682.75
  L 756.22 677.21
  Q 755.97 673.82 754.21 670.72
  L 751.94 664.23
  Q 751.61 661.18 750.21 658.50
  L 747.55 650.97
  Q 747.36 647.97 745.75 645.27
  L 743.51 638.72
  Q 743.22 635.35 741.49 632.27
  L 736.81 617.87
  Q 742.00 624.68 746.78 631.50
  Q 748.04 633.30 748.98 633.70
  C 751.05 634.59 753.00 633.33 753.57 631.25
  Q 755.61 623.81 752.82 615.37
  A 1.62 1.62 0.0 0 1 754.49 613.25
  L 783.56 615.64
  A 0.52 0.52 0.0 0 0 783.94 614.72
  L 736.59 575.56
  Q 737.45 574.11 737.81 572.19
  Q 738.65 571.20 738.62 568.90
  Q 740.85 556.26 733.59 544.03
  Q 733.44 542.40 734.41 541.42
  Q 734.99 540.84 734.62 539.99
  L 736.72 536.92
  Q 738.96 534.73 739.53 532.09
  L 741.17 529.73
  Q 743.05 527.49 743.82 525.02
  L 745.78 521.99
  Q 747.20 520.85 747.48 518.81
  L 749.24 516.20
  Q 751.01 514.50 751.51 512.28
  L 758.16 501.43
  Q 759.44 500.48 759.51 499.06
  L 765.78 488.73
  Q 767.75 486.80 768.49 484.21
  L 775.63 472.39
  L 783.97 471.30
  Z
  M 1034.93 498.06
  A 2.30 2.30 0.0 0 0 1032.63 495.76
  L 803.47 495.76
  A 2.30 2.30 0.0 0 0 801.17 498.06
  L 801.17 505.56
  A 2.30 2.30 0.0 0 0 803.47 507.86
  L 1032.63 507.86
  A 2.30 2.30 0.0 0 0 1034.93 505.56
  L 1034.93 498.06
  Z
  M 983.76 538.67
  A 1.43 1.43 0.0 0 0 982.33 537.24
  L 858.95 537.24
  A 1.43 1.43 0.0 0 0 857.52 538.67
  L 857.52 553.57
  A 1.43 1.43 0.0 0 0 858.95 555.00
  L 982.33 555.00
  A 1.43 1.43 0.0 0 0 983.76 553.57
  L 983.76 538.67
  Z
  M 853.08 612.73
  Q 852.85 614.37 853.90 616.26
  L 857.28 626.75
  A 1.28 1.28 0.0 0 0 858.87 627.58
  Q 905.36 613.38 952.49 623.01
  C 953.28 623.17 954.01 623.05 954.74 623.23
  Q 962.49 625.16 970.29 627.31
  A 1.84 1.84 0.0 0 0 972.53 626.10
  Q 975.76 615.98 978.84 605.94
  Q 979.05 605.24 979.32 604.58
  Q 980.14 602.54 978.10 601.97
  Q 929.85 588.33 881.45 595.49
  Q 866.01 597.78 851.33 602.21
  A 1.51 1.50 -17.5 0 0 850.33 604.11
  L 853.08 612.73
  Z
  M 1028.55 671.02
  A 2.27 2.27 0.0 0 0 1026.28 668.75
  L 815.66 668.75
  A 2.27 2.27 0.0 0 0 813.39 671.02
  L 813.39 676.62
  A 2.27 2.27 0.0 0 0 815.66 678.89
  L 1026.28 678.89
  A 2.27 2.27 0.0 0 0 1028.55 676.62
  L 1028.55 671.02
  Z
  M 993.21 696.79
  A 2.54 2.54 0.0 0 0 990.67 694.25
  L 852.19 694.25
  A 2.54 2.54 0.0 0 0 849.65 696.79
  L 849.65 701.33
  A 2.54 2.54 0.0 0 0 852.19 703.87
  L 990.67 703.87
  A 2.54 2.54 0.0 0 0 993.21 701.33
  L 993.21 696.79
  Z
  M 991.67 737.07
  C 990.43 731.95 987.53 727.71 983.05 724.89
  Q 982.84 724.76 982.70 724.96
  L 982.52 725.22
  A 0.37 0.37 0.0 0 0 982.60 725.71
  Q 984.97 727.65 986.54 729.50
  Q 989.28 732.74 991.16 737.48
  Q 991.18 737.54 991.24 737.52
  L 991.48 737.43
  Q 991.73 737.33 991.67 737.07
  Z
  M 1015.05 738.22
  Q 1018.07 739.04 1020.29 741.07
  C 1021.55 742.22 1023.01 742.12 1024.48 741.53
  Q 1031.53 738.71 1037.99 735.37
  Q 1038.25 735.24 1038.13 734.97
  L 1037.99 734.65
  Q 1037.75 734.11 1037.20 734.34
  Q 1031.01 736.95 1024.99 739.83
  Q 1023.21 740.69 1021.62 739.65
  Q 1018.97 737.92 1015.78 736.97
  Q 1015.17 736.79 1014.89 737.36
  L 1014.77 737.60
  A 0.44 0.44 0.0 0 0 1015.05 738.22
  Z
  M 1007.07 741.63
  C 1007.91 739.43 1010.82 738.92 1012.67 737.77
  Q 1013.47 737.27 1012.53 737.26
  Q 1008.29 737.23 1005.70 740.59
  Q 1004.27 742.43 1005.86 744.28
  Q 1008.95 747.87 1010.95 752.15
  A 0.67 0.66 -20.7 0 0 1011.75 752.50
  L 1012.04 752.41
  Q 1013.00 752.10 1012.53 751.20
  Q 1010.39 747.14 1007.58 744.17
  A 2.42 2.42 0.0 0 1 1007.07 741.63
  Z
  M 956.96 742.55
  C 960.59 739.97 964.44 738.90 967.94 742.18
  Q 970.99 745.04 970.53 750.11
  A 0.95 0.91 -64.6 0 0 970.76 750.80
  L 971.02 751.10
  A 0.40 0.40 0.0 0 0 971.71 750.90
  C 973.05 741.65 965.20 735.40 956.80 740.80
  Q 942.13 750.23 932.12 764.87
  A 0.51 0.51 0.0 0 0 932.39 765.64
  L 932.65 765.71
  Q 933.42 765.94 933.88 765.29
  Q 943.28 752.27 956.96 742.55
  Z
  M 985.4580 750.6919
  A 5.53 0.92 -24.1 0 0 980.0343 752.1102
  A 5.53 0.92 -24.1 0 0 975.3620 755.2081
  A 5.53 0.92 -24.1 0 0 980.7857 753.7898
  A 5.53 0.92 -24.1 0 0 985.4580 750.6919
  Z
  M 999.28 754.55
  C 997.89 758.42 999.65 762.56 1003.88 763.27
  Q 1006.69 763.75 1004.38 762.08
  C 1001.55 760.05 999.27 758.87 999.94 754.84
  A 0.27 0.26 -78.0 0 0 999.75 754.54
  L 999.45 754.46
  Q 999.32 754.42 999.28 754.55
  Z"
/>
<path fill="#d1334a" d="
  M 775.63 472.39
  L 768.49 484.21
  Q 766.40 485.95 765.78 488.73
  L 759.51 499.06
  Q 758.12 499.85 758.16 501.43
  L 751.51 512.28
  Q 749.67 514.00 749.24 516.20
  L 747.48 518.81
  Q 745.80 520.35 745.78 521.99
  L 743.82 525.02
  Q 741.63 527.27 741.17 529.73
  L 739.53 532.09
  Q 737.45 534.16 736.72 536.92
  L 734.62 539.99
  Q 733.04 541.23 733.59 544.03
  Q 740.85 556.26 738.62 568.90
  Q 737.66 570.23 737.81 572.19
  Q 737.45 574.11 736.59 575.56
  Q 732.18 583.98 724.84 589.81
  Q 723.20 591.12 723.99 592.76
  Q 726.99 598.95 736.81 617.87
  L 741.49 632.27
  Q 741.62 635.60 743.51 638.72
  L 745.75 645.27
  Q 745.91 648.40 747.55 650.97
  L 750.21 658.50
  Q 750.04 661.41 751.94 664.23
  L 754.21 670.72
  Q 754.07 674.00 756.22 677.21
  L 758.18 682.75
  Q 758.49 686.41 760.20 689.49
  L 762.01 694.52
  Q 762.16 698.77 764.48 702.45
  L 766.19 707.25
  Q 766.41 711.04 768.50 714.72
  L 770.18 719.49
  Q 770.24 723.43 772.59 727.23
  L 774.86 733.40
  Q 774.83 736.33 776.18 738.25
  L 778.73 745.20
  Q 778.12 745.51 778.51 746.18
  Q 779.03 747.09 779.20 748.13
  Q 779.36 749.08 780.52 751.50
  L 783.17 759.00
  Q 783.33 762.19 784.98 764.96
  L 786.48 769.26
  Q 786.74 773.57 789.02 777.21
  L 791.01 783.02
  Q 791.12 785.73 792.57 788.22
  L 796.24 799.09
  Q 796.52 799.88 795.25 800.01
  Q 793.29 800.20 787.60 799.60
  Q 786.44 795.13 784.25 789.75
  Q 783.90 788.88 783.84 787.77
  Q 783.78 786.61 783.47 785.84
  Q 781.72 781.57 780.11 777.25
  Q 779.83 776.49 780.01 775.67
  Q 780.12 775.20 779.93 774.75
  Q 778.00 770.04 776.13 764.99
  Q 775.88 764.32 776.00 763.64
  Q 776.08 763.14 775.90 762.65
  L 772.00 752.31
  Q 771.84 751.90 772.06 751.51
  Q 772.22 751.22 772.13 751.00
  Q 770.61 747.23 769.24 743.46
  Q 768.38 738.29 765.91 733.52
  Q 765.03 730.75 764.31 727.86
  Q 763.59 724.92 762.54 722.43
  Q 761.31 719.51 760.20 716.36
  C 759.75 715.07 760.03 713.93 759.51 712.67
  Q 757.57 707.97 756.00 703.40
  C 755.74 702.63 756.03 701.87 755.73 701.13
  Q 754.02 696.80 752.27 692.16
  C 751.78 690.86 752.04 689.61 751.56 688.40
  Q 749.85 684.13 748.26 679.86
  C 747.79 678.62 747.96 677.45 747.50 676.24
  Q 745.78 671.77 744.15 667.26
  C 743.72 666.06 743.77 664.81 743.33 663.59
  Q 741.74 659.23 740.02 654.86
  C 739.51 653.58 739.31 652.36 739.04 651.02
  Q 738.89 650.25 738.57 649.55
  Q 736.97 646.02 736.05 642.47
  Q 735.13 638.91 733.92 635.57
  Q 732.68 632.13 731.42 628.75
  Q 730.90 625.10 729.19 621.79
  L 720.29 594.66
  Q 719.87 593.39 718.55 593.56
  L 705.54 595.25
  Q 694.49 594.22 686.25 588.13
  Q 682.04 584.02 678.96 579.04
  Q 670.67 565.66 676.96 551.06
  Q 680.76 542.26 687.76 536.76
  Q 689.70 535.24 693.27 533.54
  L 698.46 531.73
  Q 706.35 529.74 714.30 531.77
  L 721.23 534.22
  Q 723.71 535.32 726.12 536.55
  Q 726.93 536.96 727.43 536.87
  Q 728.11 536.75 728.29 536.14
  Q 728.35 535.91 728.48 535.72
  L 730.84 531.94
  Q 731.07 531.58 731.40 531.29
  C 732.46 530.36 732.48 528.88 733.23 527.72
  Q 735.53 524.12 738.23 520.89
  Q 738.53 520.54 738.66 520.10
  L 738.84 519.46
  Q 738.92 519.20 739.10 519.01
  Q 740.56 517.45 741.09 515.35
  Q 743.35 513.56 743.99 510.76
  L 745.30 508.80
  Q 746.96 507.38 747.25 505.48
  L 750.61 499.17
  A 1.20 1.16 84.7 0 1 750.90 498.81
  Q 752.40 497.57 753.08 495.98
  Q 753.75 494.40 754.67 493.06
  Q 756.08 490.99 757.50 488.94
  Q 759.52 486.69 760.48 484.07
  L 767.50 472.83
  Q 771.98 470.68 775.63 472.39
  Z
  M 733.16 562.85
  A 26.37 26.37 0.0 0 0 706.79 536.48
  A 26.37 26.37 0.0 0 0 680.42 562.85
  A 26.37 26.37 0.0 0 0 706.79 589.22
  A 26.37 26.37 0.0 0 0 733.16 562.85
  Z"
/>
<path fill="#fc9590" d="
  M 760.48 484.07
  Q 759.52 486.69 757.50 488.94
  Q 758.16 486.29 760.48 484.07
  Z"
/>
<path fill="#fc9590" d="
  M 768.49 484.21
  Q 767.75 486.80 765.78 488.73
  Q 766.40 485.95 768.49 484.21
  Z"
/>
<rect fill="#cbc3cc" x="801.17" y="495.76" width="233.76" height="12.10" rx="2.30"/>
<path fill="#fc9590" d="
  M 759.51 499.06
  Q 759.44 500.48 758.16 501.43
  Q 758.12 499.85 759.51 499.06
  Z"
/>
<path fill="#ef5668" d="
  M 599.20 500.17
  L 599.06 536.98
  Q 578.42 555.24 552.74 564.85
  L 550.54 565.21
  Q 550.05 565.29 549.72 564.92
  Q 549.11 564.23 549.81 563.31
  Q 577.57 527.18 595.02 503.42
  Q 595.75 502.43 597.01 501.72
  Q 598.35 500.97 599.20 500.17
  Z"
/>
<path fill="#fc9590" d="
  M 747.25 505.48
  Q 746.96 507.38 745.30 508.80
  Q 745.56 506.76 747.25 505.48
  Z"
/>
<path fill="#fc9590" d="
  M 743.99 510.76
  Q 743.35 513.56 741.09 515.35
  Q 742.11 512.65 743.99 510.76
  Z"
/>
<path fill="#fc9590" d="
  M 751.51 512.28
  Q 751.01 514.50 749.24 516.20
  Q 749.67 514.00 751.51 512.28
  Z"
/>
<path fill="#6483c7" d="
  M 210.40 537.46
  L 186.85 537.25
  A 2.79 2.78 -88.0 0 0 184.05 539.87
  Q 183.71 545.40 184.12 550.52
  A 2.22 2.22 0.0 0 0 186.33 552.57
  L 210.73 552.65
  C 210.33 553.40 209.98 553.96 209.98 554.83
  Q 209.98 561.25 209.98 567.68
  A 2.17 2.15 -58.1 0 0 210.19 568.61
  Q 210.47 569.16 210.37 569.74
  L 186.75 569.97
  A 2.96 2.96 0.0 0 0 183.82 572.83
  Q 183.63 578.27 184.20 583.39
  A 2.70 2.69 86.6 0 0 186.90 585.79
  L 210.87 585.60
  Q 210.32 586.45 210.32 587.00
  Q 210.06 619.40 210.24 651.78
  Q 209.43 652.19 208.75 652.22
  Q 193.87 652.76 178.95 652.62
  L 177.25 652.75
  Q 177.62 651.75 177.62 651.25
  Q 177.74 549.21 177.56 520.00
  C 177.53 514.56 180.73 514.25 185.17 514.60
  Q 194.35 515.30 206.03 514.62
  Q 210.59 514.35 210.50 519.55
  Q 210.37 526.93 210.00 534.66
  C 209.95 535.74 210.34 536.44 210.40 537.46
  Z"
/>
<path fill="#6483c7" d="
  M 264.87 536.67
  Q 254.66 536.78 244.15 537.11
  C 240.92 537.22 238.02 536.92 237.98 540.98
  Q 237.96 543.49 237.96 545.95
  C 237.97 549.79 237.60 552.63 242.24 552.67
  Q 253.62 552.77 264.93 552.87
  Q 263.99 561.33 264.89 569.67
  L 241.30 570.01
  Q 238.02 570.06 238.02 573.35
  L 238.04 582.23
  Q 238.05 585.63 241.45 585.66
  L 264.82 585.86
  L 265.05 652.25
  Q 264.77 652.66 264.25 652.67
  Q 248.70 652.77 233.15 652.71
  Q 232.71 652.71 232.36 652.45
  L 232.05 652.21
  L 232.21 516.01
  A 1.14 1.14 0.0 0 1 233.35 514.87
  L 262.83 514.87
  Q 264.48 514.87 264.51 516.53
  L 264.87 536.67
  Z"
/>
<path fill="#fc9590" d="
  M 747.48 518.81
  Q 747.20 520.85 745.78 521.99
  Q 745.80 520.35 747.48 518.81
  Z"
/>
<path fill="#fc9590" d="
  M 743.82 525.02
  Q 743.05 527.49 741.17 529.73
  Q 741.63 527.27 743.82 525.02
  Z"
/>
<path fill="#fc9590" d="
  M 698.46 531.73
  L 693.27 533.54
  Q 695.40 531.98 698.46 531.73
  Z"
/>
<path fill="#fc9590" d="
  M 714.30 531.77
  Q 718.00 531.77 721.23 534.22
  L 714.30 531.77
  Z"
/>
<path fill="#fc9590" d="
  M 739.53 532.09
  Q 738.96 534.73 736.72 536.92
  Q 737.45 534.16 739.53 532.09
  Z"
/>
<path fill="#ffffff" d="
  M 264.87 536.67
  Q 264.03 544.90 264.93 552.87
  Q 253.62 552.77 242.24 552.67
  C 237.60 552.63 237.97 549.79 237.96 545.95
  Q 237.96 543.49 237.98 540.98
  C 238.02 536.92 240.92 537.22 244.15 537.11
  Q 254.66 536.78 264.87 536.67
  Z"
/>
<circle fill="#ef5668" cx="706.79" cy="562.85" r="26.37"/>
<path fill="#152a52" d="
  M 599.06 536.98
  Q 599.11 536.94 599.23 537.14
  Q 599.29 537.24 599.29 537.38
  Q 599.15 610.56 598.91 683.75
  Q 598.90 684.74 598.51 685.54
  C 598.01 684.87 597.62 684.12 596.98 683.58
  Q 582.64 671.29 568.39 659.09
  A 1.16 1.16 0.0 0 0 566.64 659.37
  Q 548.66 689.22 530.07 719.67
  C 520.72 735.00 511.93 750.69 503.73 766.74
  C 497.77 778.41 492.13 791.54 490.74 804.76
  Q 487.80 832.72 489.31 859.50
  Q 490.42 879.24 493.32 898.80
  Q 493.43 899.56 493.75 900.24
  Q 493.36 900.51 493.45 901.24
  Q 499.48 952.36 505.68 1002.76
  L 508.74 1035.03
  L 502.29 1047.78
  Q 501.75 1046.65 500.37 1047.01
  Q 499.82 1047.15 499.51 1047.62
  Q 497.95 1049.98 496.39 1051.17
  Q 481.71 1062.36 463.75 1067.16
  Q 460.75 1067.96 455.03 1068.85
  Q 442.13 1067.16 436.37 1057.89
  Q 435.24 1056.08 434.45 1053.49
  Q 433.61 1050.74 432.91 1049.13
  Q 431.54 1046.00 431.30 1044.75
  Q 430.18 1038.86 429.22 1036.75
  L 426.94 1028.18
  Q 427.23 1025.66 426.07 1023.25
  Q 422.90 1013.59 421.29 1003.55
  C 419.79 995.57 418.19 987.41 417.41 979.33
  Q 417.27 977.92 416.89 975.75
  Q 415.29 966.55 413.37 949.22
  Q 413.67 947.02 412.82 945.03
  Q 411.17 930.40 409.89 915.73
  Q 408.35 897.99 406.95 880.25
  Q 406.81 878.55 405.82 877.96
  Q 407.28 877.51 407.21 876.50
  Q 404.95 844.83 405.08 817.50
  Q 405.15 800.70 409.74 781.44
  Q 414.22 762.58 419.40 745.48
  Q 441.17 673.58 467.94 609.76
  Q 468.25 609.03 468.31 608.21
  Q 468.83 607.97 469.24 608.26
  C 474.79 612.19 480.43 616.05 486.87 618.00
  C 494.25 620.23 499.16 616.35 504.46 612.08
  C 518.77 600.53 531.95 585.05 543.97 569.97
  Q 546.24 567.13 552.74 564.85
  Q 578.42 555.24 599.06 536.98
  Z"
/>
<path fill="#ffffff" d="
  M 210.40 537.46
  L 210.00 550.97
  A 0.89 0.84 33.9 0 0 210.10 551.41
  L 210.73 552.65
  L 186.33 552.57
  A 2.22 2.22 0.0 0 1 184.12 550.52
  Q 183.71 545.40 184.05 539.87
  A 2.79 2.78 -88.0 0 1 186.85 537.25
  L 210.40 537.46
  Z"
/>
<rect fill="#cbc3cc" x="857.52" y="537.24" width="126.24" height="17.76" rx="1.43"/>
<path fill="#fc9590" d="
  M 734.62 539.99
  Q 734.99 540.84 734.41 541.42
  Q 733.44 542.40 733.59 544.03
  Q 733.04 541.23 734.62 539.99
  Z"
/>
<circle fill="#65affb" cx="1147.52" cy="581.90" r="24.35"/>
<path fill="#ffde70" d="
  M 315.53 652.29
  Q 314.87 652.55 314.13 652.56
  Q 300.09 652.75 286.04 652.71
  Q 285.71 652.71 285.49 652.57
  Q 285.26 652.41 285.06 652.19
  L 285.60 564.98
  A 1.00 0.99 -89.4 0 1 286.60 563.99
  L 313.72 564.16
  A 1.42 1.42 0.0 0 1 315.13 565.58
  Q 315.13 608.05 315.13 650.75
  Q 315.13 651.33 315.53 652.29
  Z
  M 311.67 582.14
  A 11.32 11.32 0.0 0 0 300.35 570.82
  A 11.32 11.32 0.0 0 0 289.03 582.14
  A 11.32 11.32 0.0 0 0 300.35 593.46
  A 11.32 11.32 0.0 0 0 311.67 582.14
  Z"
/>
<path fill="#ffb113" d="
  M 355.03 652.02
  L 354.92 652.36
  Q 354.79 652.72 354.41 652.72
  Q 339.91 652.78 325.94 652.71
  Q 325.58 652.71 325.30 652.50
  Q 324.91 652.21 324.92 651.78
  L 325.02 565.34
  A 1.26 1.26 0.0 0 1 326.27 564.08
  L 353.48 563.97
  A 1.27 1.27 0.0 0 1 354.76 565.23
  L 355.03 652.02
  Z
  M 350.78 582.42
  A 10.88 10.88 0.0 0 0 339.90 571.54
  A 10.88 10.88 0.0 0 0 329.02 582.42
  A 10.88 10.88 0.0 0 0 339.90 593.30
  A 10.88 10.88 0.0 0 0 350.78 582.42
  Z"
/>
<path fill="#fc9590" d="
  M 738.62 568.90
  Q 738.65 571.20 737.81 572.19
  Q 737.66 570.23 738.62 568.90
  Z"
/>
<path fill="#ffffff" d="
  M 210.37 569.74
  Q 209.74 576.77 210.01 584.01
  Q 210.02 584.49 210.87 585.60
  L 186.90 585.79
  A 2.70 2.69 86.6 0 1 184.20 583.39
  Q 183.63 578.27 183.82 572.83
  A 2.96 2.96 0.0 0 1 186.75 569.97
  L 210.37 569.74
  Z"
/>
<path fill="#ffffff" d="
  M 264.89 569.67
  L 264.82 585.86
  L 241.45 585.66
  Q 238.05 585.63 238.04 582.23
  L 238.02 573.35
  Q 238.02 570.06 241.30 570.01
  L 264.89 569.67
  Z"
/>
<circle fill="#ffffff" cx="300.35" cy="582.14" r="11.32"/>
<circle fill="#ef5668" cx="339.90" cy="582.42" r="10.88"/>
<path fill="#ffb113" d="
  M 736.59 575.56
  L 783.94 614.72
  A 0.52 0.52 0.0 0 1 783.56 615.64
  L 754.49 613.25
  A 1.62 1.62 0.0 0 0 752.82 615.37
  Q 755.61 623.81 753.57 631.25
  C 753.00 633.33 751.05 634.59 748.98 633.70
  Q 748.04 633.30 746.78 631.50
  Q 742.00 624.68 736.81 617.87
  Q 726.99 598.95 723.99 592.76
  Q 723.20 591.12 724.84 589.81
  Q 732.18 583.98 736.59 575.56
  Z"
/>
<path fill="#ffb113" d="
  M 686.25 588.13
  Q 694.49 594.22 705.54 595.25
  Q 698.71 616.07 692.17 636.97
  Q 691.93 637.73 691.57 638.50
  C 690.63 640.53 688.11 639.73 687.32 638.09
  Q 682.61 628.36 680.67 619.45
  Q 680.25 617.51 678.23 617.77
  Q 673.56 618.35 669.22 619.01
  A 1.34 1.33 -23.1 0 1 667.96 618.51
  Q 667.10 617.37 668.00 616.02
  Q 677.28 602.09 686.25 588.13
  Z"
/>
<path fill="#ffb113" d="
  M 853.90 616.26
  Q 854.37 614.36 853.08 612.73
  L 850.33 604.11
  A 1.51 1.50 -17.5 0 1 851.33 602.21
  Q 866.01 597.78 881.45 595.49
  Q 929.85 588.33 978.10 601.97
  Q 980.14 602.54 979.32 604.58
  Q 979.05 605.24 978.84 605.94
  Q 975.76 615.98 972.53 626.10
  A 1.84 1.84 0.0 0 1 970.29 627.31
  Q 962.49 625.16 954.74 623.23
  C 954.01 623.05 953.28 623.17 952.49 623.01
  Q 905.36 613.38 858.87 627.58
  A 1.28 1.28 0.0 0 1 857.28 626.75
  L 853.90 616.26
  Z"
/>
<path fill="#ffde70" d="
  M 853.08 612.73
  Q 854.37 614.36 853.90 616.26
  Q 852.85 614.37 853.08 612.73
  Z"
/>
<path fill="#fc9590" d="
  M 729.19 621.79
  Q 730.90 625.10 731.42 628.75
  Q 729.60 625.30 729.19 621.79
  Z"
/>
<path fill="#fc9590" d="
  M 741.49 632.27
  Q 743.22 635.35 743.51 638.72
  Q 741.62 635.60 741.49 632.27
  Z"
/>
<path fill="#fc9590" d="
  M 745.75 645.27
  Q 747.36 647.97 747.55 650.97
  Q 745.91 648.40 745.75 645.27
  Z"
/>
<path fill="#3261a5" d="
  M 210.24 651.78
  L 210.51 652.26
  Q 210.54 653.00 209.50 653.07
  Q 205.56 653.36 201.64 653.11
  Q 196.65 652.80 193.82 652.86
  Q 186.39 653.02 178.95 652.62
  Q 193.87 652.76 208.75 652.22
  Q 209.43 652.19 210.24 651.78
  Z"
/>
<path fill="#152a52" d="
  M 324.92 651.78
  Q 324.91 652.21 325.30 652.50
  Q 325.58 652.71 325.94 652.71
  Q 339.91 652.78 354.41 652.72
  Q 354.79 652.72 354.92 652.36
  L 355.03 652.02
  L 355.51 652.52
  Q 355.84 652.87 356.34 652.87
  L 365.04 652.86
  A 2.20 2.20 0.0 0 1 367.24 655.05
  L 367.29 667.46
  A 2.75 2.74 -0.2 0 1 364.54 670.22
  L 155.75 670.22
  Q 154.28 670.22 154.28 668.75
  L 154.37 653.95
  Q 154.38 653.07 155.26 653.06
  L 177.25 652.75
  L 178.95 652.62
  Q 186.39 653.02 193.82 652.86
  Q 196.65 652.80 201.64 653.11
  Q 205.56 653.36 209.50 653.07
  Q 210.54 653.00 210.51 652.26
  L 210.84 652.56
  Q 211.22 652.91 211.74 652.91
  Q 221.12 652.82 230.50 652.80
  Q 231.13 652.80 232.05 652.21
  L 232.36 652.45
  Q 232.71 652.71 233.15 652.71
  Q 248.70 652.77 264.25 652.67
  Q 264.77 652.66 265.05 652.25
  Q 265.40 652.77 266.00 652.77
  Q 274.88 652.79 283.75 652.83
  Q 284.14 652.84 285.06 652.19
  Q 285.26 652.41 285.49 652.57
  Q 285.71 652.71 286.04 652.71
  Q 300.09 652.75 314.13 652.56
  Q 314.87 652.55 315.53 652.29
  Q 315.74 652.50 315.99 652.66
  Q 316.26 652.82 316.57 652.82
  Q 320.29 652.75 323.78 652.71
  Q 324.17 652.71 324.47 652.46
  Q 324.81 652.18 324.92 651.78
  Z"
/>
<path fill="#fc9590" d="
  M 750.21 658.50
  Q 751.61 661.18 751.94 664.23
  Q 750.04 661.41 750.21 658.50
  Z"
/>
<rect fill="#cbc3cc" x="813.39" y="668.75" width="215.16" height="10.14" rx="2.27"/>
<path fill="#127755" d="
  M 1255.68 727.63
  Q 1256.44 728.17 1257.40 728.34
  C 1260.31 728.84 1263.35 728.87 1266.11 730.03
  C 1274.61 733.60 1280.39 741.78 1279.61 751.14
  C 1278.58 763.60 1267.42 770.16 1255.76 768.13
  Q 1253.19 767.68 1254.93 769.62
  C 1260.99 776.36 1263.44 784.51 1259.88 792.75
  C 1255.44 802.99 1243.98 806.17 1234.02 802.59
  C 1229.13 800.84 1225.65 796.06 1223.08 791.79
  Q 1222.89 791.46 1222.52 791.53
  A 0.65 0.65 0.0 0 0 1221.99 792.28
  C 1223.39 800.24 1224.99 808.47 1217.78 814.38
  C 1212.64 818.59 1206.85 820.84 1200.38 819.58
  C 1190.56 817.65 1183.78 811.31 1181.73 801.74
  Q 1181.25 799.47 1180.83 797.10
  A 0.73 0.72 70.6 0 0 1179.77 796.59
  C 1171.40 801.19 1160.81 802.67 1153.12 796.14
  C 1149.96 793.47 1147.11 789.68 1145.58 785.90
  C 1141.41 775.54 1146.09 767.40 1155.69 763.06
  Q 1158.92 761.60 1161.76 759.83
  A 0.42 0.42 0.0 0 0 1161.49 759.06
  C 1153.21 760.16 1146.03 759.26 1140.57 753.60
  C 1134.77 747.58 1133.60 737.82 1137.17 730.39
  Q 1141.52 721.32 1152.09 720.32
  C 1154.97 720.05 1157.84 720.71 1160.68 721.21
  Q 1161.67 721.38 1161.02 720.62
  C 1159.16 718.44 1156.94 716.61 1155.49 714.07
  C 1149.33 703.33 1153.98 691.11 1165.11 686.43
  C 1173.31 682.99 1182.35 685.69 1188.47 691.90
  Q 1190.03 693.48 1191.62 694.81
  Q 1192.46 695.51 1192.30 694.43
  Q 1192.07 692.77 1191.77 691.19
  Q 1189.20 677.79 1200.25 671.88
  C 1205.70 668.97 1212.84 668.75 1218.64 670.83
  Q 1232.68 675.84 1233.40 692.17
  A 0.78 0.77 71.6 0 0 1234.61 692.78
  Q 1244.04 686.28 1253.66 688.88
  C 1272.19 693.90 1278.81 721.13 1255.83 726.87
  Q 1254.94 727.09 1255.68 727.63
  Z"
/>
<path fill="#fc9590" d="
  M 754.21 670.72
  Q 755.97 673.82 756.22 677.21
  Q 754.07 674.00 754.21 670.72
  Z"
/>
<path fill="#fc9590" d="
  M 758.18 682.75
  Q 759.85 685.99 760.20 689.49
  Q 758.49 686.41 758.18 682.75
  Z"
/>
<rect fill="#cbc3cc" x="849.65" y="694.25" width="143.56" height="9.62" rx="2.54"/>
<path fill="#fc9590" d="
  M 762.01 694.52
  Q 764.01 698.24 764.48 702.45
  Q 762.16 698.77 762.01 694.52
  Z"
/>
<path fill="#fc9590" d="
  M 766.19 707.25
  Q 767.95 710.75 768.50 714.72
  Q 766.41 711.04 766.19 707.25
  Z"
/>
<path fill="#fc9590" d="
  M 770.18 719.49
  Q 772.21 723.14 772.59 727.23
  Q 770.24 723.43 770.18 719.49
  Z"
/>
<circle fill="#ffb113" cx="154.38" cy="747.26" r="26.56"/>
<path fill="#6483c7" d="
  M 983.05 724.89
  C 987.53 727.71 990.43 731.95 991.67 737.07
  Q 991.73 737.33 991.48 737.43
  L 991.24 737.52
  Q 991.18 737.54 991.16 737.48
  Q 989.28 732.74 986.54 729.50
  Q 984.97 727.65 982.60 725.71
  A 0.37 0.37 0.0 0 1 982.52 725.22
  L 982.70 724.96
  Q 982.84 724.76 983.05 724.89
  Z"
/>
<path fill="#fc9590" d="
  M 765.91 733.52
  Q 768.38 738.29 769.24 743.46
  Q 766.70 738.54 765.91 733.52
  Z"
/>
<path fill="#fc9590" d="
  M 774.86 733.40
  Q 776.13 735.89 776.18 738.25
  Q 774.83 736.33 774.86 733.40
  Z"
/>
<path fill="#152a52" d="
  M 1015.05 738.22
  A 0.44 0.44 0.0 0 1 1014.77 737.60
  L 1014.89 737.36
  Q 1015.17 736.79 1015.78 736.97
  Q 1018.97 737.92 1021.62 739.65
  Q 1023.21 740.69 1024.99 739.83
  Q 1031.01 736.95 1037.20 734.34
  Q 1037.75 734.11 1037.99 734.65
  L 1038.13 734.97
  Q 1038.25 735.24 1037.99 735.37
  Q 1031.53 738.71 1024.48 741.53
  C 1023.01 742.12 1021.55 742.22 1020.29 741.07
  Q 1018.07 739.04 1015.05 738.22
  Z"
/>
<path fill="#152a52" d="
  M 1007.07 741.63
  A 2.42 2.42 0.0 0 0 1007.58 744.17
  Q 1010.39 747.14 1012.53 751.20
  Q 1013.00 752.10 1012.04 752.41
  L 1011.75 752.50
  A 0.67 0.66 -20.7 0 1 1010.95 752.15
  Q 1008.95 747.87 1005.86 744.28
  Q 1004.27 742.43 1005.70 740.59
  Q 1008.29 737.23 1012.53 737.26
  Q 1013.47 737.27 1012.67 737.77
  C 1010.82 738.92 1007.91 739.43 1007.07 741.63
  Z"
/>
<path fill="#1a1a1a" d="
  M 956.96 742.55
  Q 943.28 752.27 933.88 765.29
  Q 933.42 765.94 932.65 765.71
  L 932.39 765.64
  A 0.51 0.51 0.0 0 1 932.12 764.87
  Q 942.13 750.23 956.80 740.80
  C 965.20 735.40 973.05 741.65 971.71 750.90
  A 0.40 0.40 0.0 0 1 971.02 751.10
  L 970.76 750.80
  A 0.95 0.91 -64.6 0 1 970.53 750.11
  Q 970.99 745.04 967.94 742.18
  C 964.44 738.90 960.59 739.97 956.96 742.55
  Z"
/>
<path fill="#fc9590" d="
  M 778.73 745.20
  Q 780.23 748.23 780.52 751.50
  Q 779.36 749.08 779.20 748.13
  Q 779.03 747.09 778.51 746.18
  Q 778.12 745.51 778.73 745.20
  Z"
/>
<ellipse fill="#1a1a1a" cx="0.00" cy="0.00" transform="translate(980.41,752.95) rotate(-24.1)" rx="5.53" ry="0.92"/>
<path fill="#1a1a1a" d="
  M 1003.88 763.27
  C 999.65 762.56 997.89 758.42 999.28 754.55
  Q 999.32 754.42 999.45 754.46
  L 999.75 754.54
  A 0.27 0.26 -78.0 0 1 999.94 754.84
  C 999.27 758.87 1001.55 760.05 1004.38 762.08
  Q 1006.69 763.75 1003.88 763.27
  Z"
/>
<path fill="#fc9590" d="
  M 783.17 759.00
  Q 784.74 761.94 784.98 764.96
  Q 783.33 762.19 783.17 759.00
  Z"
/>
<path fill="#fc9590" d="
  M 786.48 769.26
  Q 788.54 773.15 789.02 777.21
  Q 786.74 773.57 786.48 769.26
  Z"
/>
<path fill="#fc9590" d="
  M 791.01 783.02
  Q 792.38 785.52 792.57 788.22
  Q 791.12 785.73 791.01 783.02
  Z"
/>
<path fill="#cbc3cc" d="
  M 796.50 799.46
  Q 796.65 799.47 796.81 799.55
  Q 797.04 799.68 797.31 799.69
  L 812.46 800.24
  Q 805.49 800.19 797.17 800.43
  A 0.99 0.98 -11.3 0 1 796.22 799.80
  Q 796.19 799.73 796.50 799.46
  Z"
/>
<circle fill="#ef5668" cx="1297.93" cy="829.73" r="18.37"/>
<path fill="#152a52" d="
  M 765.59 811.58
  Q 764.55 813.89 765.83 815.67
  L 767.07 820.80
  Q 766.96 822.88 767.90 824.21
  Q 786.28 890.26 798.20 961.75
  Q 801.61 982.18 801.23 1001.32
  L 798.67 1007.03
  Q 795.51 1009.17 792.43 1010.93
  Q 789.28 1012.74 785.65 1013.61
  Q 767.62 1017.90 749.12 1015.53
  Q 747.70 1015.35 747.73 1015.62
  Q 743.66 1013.89 739.96 1011.46
  Q 737.53 1009.86 736.65 1007.60
  Q 735.20 1003.88 735.86 999.75
  Q 735.93 999.28 735.25 998.04
  L 734.55 995.97
  Q 734.50 993.45 733.58 991.28
  L 730.37 979.73
  Q 730.77 978.17 729.77 976.54
  L 727.18 967.49
  Q 727.15 964.84 726.00 962.52
  L 723.20 953.23
  Q 722.74 948.81 720.78 944.75
  L 718.99 938.47
  Q 718.48 934.23 716.59 930.29
  L 714.45 923.50
  Q 714.59 921.11 713.18 918.53
  L 710.44 910.22
  Q 710.42 907.81 709.21 905.55
  L 706.24 896.75
  Q 706.08 893.48 704.29 890.30
  L 702.45 884.72
  Q 701.98 881.00 700.20 877.55
  Q 698.92 873.79 697.58 870.01
  Q 697.45 869.64 697.44 868.98
  C 697.43 868.12 696.95 867.58 696.75 866.99
  Q 692.82 855.51 688.94 844.03
  Q 688.74 843.46 687.93 843.41
  C 688.13 842.86 688.29 842.47 688.08 841.87
  Q 683.08 827.86 678.19 813.80
  Q 677.75 812.53 676.68 811.80
  L 765.59 811.58
  Z"
/>
<path fill="#d7efff" d="
  M 881.66 811.98
  C 935.29 822.91 982.53 849.55 1018.73 890.13
  Q 1040.89 914.96 1057.27 943.85
  Q 1057.67 944.54 1058.43 944.33
  Q 1059.12 944.14 1059.56 943.52
  C 1084.56 908.12 1122.96 883.24 1166.36 881.66
  Q 1176.79 881.28 1186.18 882.89
  C 1211.98 887.31 1232.34 904.18 1245.56 926.70
  C 1270.48 969.15 1267.88 1021.69 1245.10 1064.62
  Q 1244.89 1065.02 1245.04 1065.31
  Q 1244.91 1065.93 1243.74 1065.41
  Q 1204.68 1047.99 1164.40 1039.42
  Q 1107.69 1027.35 1040.94 1018.82
  Q 967.79 1009.47 892.50 1005.16
  Q 846.96 1002.54 801.23 1001.32
  Q 801.61 982.18 798.20 961.75
  Q 786.28 890.26 767.90 824.21
  Q 768.11 822.46 767.07 820.80
  L 765.83 815.67
  L 783.65 811.85
  Q 804.89 811.66 826.25 811.68
  C 844.12 811.70 863.18 811.27 881.66 811.98
  Z"
/>
<path fill="#6483c7" d="
  M 767.07 820.80
  Q 768.11 822.46 767.90 824.21
  Q 766.96 822.88 767.07 820.80
  Z"
/>
<path fill="#d7efff" d="
  M 687.93 843.41
  Q 688.74 843.46 688.94 844.03
  Q 692.82 855.51 696.75 866.99
  C 696.95 867.58 697.43 868.12 697.44 868.98
  Q 697.45 869.64 697.58 870.01
  Q 698.92 873.79 700.20 877.55
  Q 700.62 881.25 702.45 884.72
  L 704.29 890.30
  Q 704.51 893.70 706.24 896.75
  L 709.21 905.55
  Q 709.08 907.83 710.44 910.22
  L 713.18 918.53
  Q 713.01 921.09 714.45 923.50
  L 716.59 930.29
  Q 716.50 932.04 716.86 932.75
  Q 717.49 933.97 717.82 935.98
  Q 718.01 937.11 718.99 938.47
  L 720.78 944.75
  Q 721.12 949.16 723.20 953.23
  L 726.00 962.52
  Q 725.60 965.12 727.18 967.49
  L 729.77 976.54
  Q 729.41 978.36 730.37 979.73
  L 733.58 991.28
  Q 733.17 993.40 734.55 995.97
  L 735.25 998.04
  Q 735.41 998.42 735.22 998.90
  A 0.80 0.78 11.2 0 1 734.47 999.39
  Q 705.97 998.92 677.49 998.97
  Q 648.86 999.02 614.75 999.34
  Q 572.05 999.75 505.68 1002.76
  Q 499.48 952.36 493.45 901.24
  Q 493.36 900.51 493.75 900.24
  Q 494.72 901.25 495.60 901.67
  Q 529.05 917.89 556.69 942.84
  A 1.29 1.27 41.8 0 0 558.50 942.75
  Q 613.66 881.62 687.13 844.30
  Q 687.42 844.15 687.59 843.92
  Q 687.80 843.66 687.93 843.41
  Z"
/>
<path fill="#339e7e" d="
  M 1373.83 954.95
  C 1373.35 962.96 1369.87 969.56 1361.41 970.70
  C 1356.05 971.43 1350.00 969.13 1346.47 964.85
  Q 1341.12 958.36 1344.71 949.38
  Q 1344.97 948.73 1344.63 948.14
  A 0.70 0.69 47.8 0 0 1343.47 948.08
  Q 1341.43 950.84 1339.26 952.81
  C 1329.58 961.57 1317.32 953.86 1315.22 942.69
  Q 1313.48 933.48 1319.92 925.59
  A 0.81 0.81 0.0 0 0 1319.56 924.31
  Q 1310.59 921.18 1308.27 913.06
  C 1305.41 903.04 1310.86 889.51 1323.22 891.56
  C 1325.68 891.97 1327.89 893.26 1330.10 894.38
  Q 1335.00 896.88 1331.37 892.75
  C 1329.94 891.12 1328.41 889.26 1327.55 887.20
  C 1321.41 872.63 1339.33 857.87 1351.70 869.79
  Q 1353.73 871.75 1355.38 874.00
  A 0.64 0.63 -60.1 0 0 1356.52 873.69
  Q 1356.85 870.68 1357.92 867.96
  C 1364.38 851.56 1388.77 858.82 1387.43 875.23
  Q 1387.31 876.76 1387.05 878.30
  Q 1386.51 881.51 1388.90 879.31
  C 1393.81 874.79 1399.95 870.56 1406.59 874.78
  C 1413.75 879.33 1419.08 887.33 1415.11 896.04
  Q 1413.26 900.10 1410.26 903.60
  A 0.92 0.92 0.0 0 0 1410.57 905.03
  Q 1416.59 907.85 1419.83 912.21
  C 1425.85 920.32 1423.45 931.68 1415.28 937.04
  C 1410.87 939.93 1406.49 938.96 1402.42 936.17
  Q 1401.47 935.52 1400.28 935.73
  A 0.54 0.54 0.0 0 0 1399.93 936.58
  Q 1404.51 943.04 1404.10 949.75
  C 1403.75 955.48 1399.88 960.88 1394.57 963.00
  Q 1384.80 966.89 1377.45 958.91
  C 1376.27 957.63 1375.75 955.96 1374.64 954.67
  Q 1373.90 953.81 1373.83 954.95
  Z
  M 1355.86 886.46
  C 1355.33 897.03 1358.73 907.82 1365.02 916.38
  A 0.57 0.56 -41.4 0 0 1365.89 916.43
  L 1366.08 916.22
  Q 1366.69 915.57 1366.17 914.85
  Q 1357.12 902.18 1357.01 886.60
  Q 1357.00 886.14 1356.54 886.14
  L 1356.18 886.14
  Q 1355.87 886.15 1355.86 886.46
  Z
  M 1344.8873 915.6974
  A 4.98 0.90 -17.2 0 0 1339.8639 916.3102
  A 4.98 0.90 -17.2 0 0 1335.3727 918.6426
  A 4.98 0.90 -17.2 0 0 1340.3961 918.0298
  A 4.98 0.90 -17.2 0 0 1344.8873 915.6974
  Z"
/>
<path fill="#6483c7" d="
  M 700.20 877.55
  Q 701.98 881.00 702.45 884.72
  Q 700.62 881.25 700.20 877.55
  Z"
/>
<path fill="#d7efff" d="
  M 405.82 877.96
  Q 406.81 878.55 406.95 880.25
  Q 408.35 897.99 409.89 915.73
  Q 411.17 930.40 412.82 945.03
  Q 412.40 947.13 413.37 949.22
  Q 415.29 966.55 416.89 975.75
  Q 417.27 977.92 417.41 979.33
  C 418.19 987.41 419.79 995.57 421.29 1003.55
  L 421.10 1006.97
  A 0.77 0.76 -0.4 0 1 420.38 1007.70
  Q 328.63 1014.17 238.09 1028.23
  C 234.64 1028.76 228.59 1030.46 223.50 1030.47
  C 223.89 1029.57 224.41 1028.66 224.54 1027.69
  Q 230.10 988.52 248.04 957.89
  C 280.79 902.02 339.89 875.17 403.76 878.27
  Q 404.83 878.32 405.82 877.96
  Z"
/>
<path fill="#127755" d="
  M 1365.02 916.38
  C 1358.73 907.82 1355.33 897.03 1355.86 886.46
  Q 1355.87 886.15 1356.18 886.14
  L 1356.54 886.14
  Q 1357.00 886.14 1357.01 886.60
  Q 1357.12 902.18 1366.17 914.85
  Q 1366.69 915.57 1366.08 916.22
  L 1365.89 916.43
  A 0.57 0.56 -41.4 0 1 1365.02 916.38
  Z"
/>
<path fill="#6483c7" d="
  M 704.29 890.30
  Q 706.08 893.48 706.24 896.75
  Q 704.51 893.70 704.29 890.30
  Z"
/>
<path fill="#6483c7" d="
  M 709.21 905.55
  Q 710.42 907.81 710.44 910.22
  Q 709.08 907.83 709.21 905.55
  Z"
/>
<ellipse fill="#127755" cx="0.00" cy="0.00" transform="translate(1340.13,917.17) rotate(-17.2)" rx="4.98" ry="0.90"/>
<path fill="#6483c7" d="
  M 713.18 918.53
  Q 714.59 921.11 714.45 923.50
  Q 713.01 921.09 713.18 918.53
  Z"
/>
<path fill="#6483c7" d="
  M 716.59 930.29
  Q 718.48 934.23 718.99 938.47
  Q 718.01 937.11 717.82 935.98
  Q 717.49 933.97 716.86 932.75
  Q 716.50 932.04 716.59 930.29
  Z"
/>
<path fill="#6483c7" d="
  M 720.78 944.75
  Q 722.74 948.81 723.20 953.23
  Q 721.12 949.16 720.78 944.75
  Z"
/>
<path fill="#6483c7" d="
  M 412.82 945.03
  Q 413.67 947.02 413.37 949.22
  Q 412.40 947.13 412.82 945.03
  Z"
/>
<path fill="#6483c7" d="
  M 726.00 962.52
  Q 727.15 964.84 727.18 967.49
  Q 725.60 965.12 726.00 962.52
  Z"
/>
<circle fill="#65affb" cx="43.67" cy="991.65" r="18.75"/>
<path fill="#6483c7" d="
  M 729.77 976.54
  Q 730.77 978.17 730.37 979.73
  Q 729.41 978.36 729.77 976.54
  Z"
/>
<path fill="#cbc3cc" d="
  M 733.58 991.28
  Q 734.50 993.45 734.55 995.97
  Q 733.17 993.40 733.58 991.28
  Z"
/>
<path fill="#65affb" d="
  M 735.25 998.04
  Q 735.93 999.28 735.86 999.75
  Q 735.20 1003.88 736.65 1007.60
  Q 737.53 1009.86 739.96 1011.46
  Q 743.66 1013.89 747.73 1015.62
  L 747.97 1031.46
  Q 747.43 1032.79 746.25 1032.74
  Q 627.33 1027.68 508.74 1035.03
  L 505.68 1002.76
  Q 572.05 999.75 614.75 999.34
  Q 648.86 999.02 677.49 998.97
  Q 705.97 998.92 734.47 999.39
  A 0.80 0.78 11.2 0 0 735.22 998.90
  Q 735.41 998.42 735.25 998.04
  Z"
/>
<path fill="#569ff8" d="
  M 801.23 1001.32
  Q 846.96 1002.54 892.50 1005.16
  Q 967.79 1009.47 1040.94 1018.82
  Q 1107.69 1027.35 1164.40 1039.42
  Q 1204.68 1047.99 1243.74 1065.41
  Q 1244.91 1065.93 1245.04 1065.31
  C 1245.25 1066.00 1245.51 1066.78 1246.12 1067.25
  Q 1251.89 1071.73 1257.01 1076.28
  C 1277.47 1094.50 1252.46 1110.80 1237.85 1117.81
  Q 1215.40 1128.58 1188.38 1135.51
  C 1158.77 1143.11 1128.10 1149.65 1097.37 1154.28
  Q 995.44 1169.64 892.44 1175.31
  Q 893.11 1174.51 892.07 1173.93
  C 884.88 1169.92 874.14 1169.46 865.71 1170.70
  A 1.01 1.00 -11.1 0 1 864.59 1169.95
  L 864.52 1169.63
  A 0.50 0.49 -22.3 0 1 864.76 1169.07
  Q 865.79 1168.48 867.00 1168.46
  Q 867.91 1168.45 867.29 1167.77
  Q 865.90 1166.26 863.89 1166.41
  Q 859.95 1166.71 856.14 1166.01
  Q 853.79 1165.59 851.30 1165.89
  Q 846.61 1166.46 842.10 1164.26
  Q 841.56 1164.00 840.98 1164.17
  L 837.16 1165.29
  A 1.56 1.56 0.0 0 1 835.17 1163.57
  Q 835.76 1159.49 836.15 1155.15
  Q 836.21 1154.53 835.92 1154.04
  A 1.40 1.40 0.0 0 0 833.56 1153.93
  Q 832.62 1155.27 831.13 1155.42
  Q 830.51 1155.49 830.05 1155.06
  Q 825.85 1151.11 826.36 1146.50
  Q 826.66 1143.77 826.55 1142.43
  C 869.45 1137.78 915.21 1131.70 956.22 1120.75
  Q 974.56 1115.85 990.43 1107.19
  Q 998.69 1102.68 1002.92 1096.64
  C 1011.61 1084.24 990.17 1072.87 981.74 1069.06
  Q 965.47 1061.73 943.60 1056.67
  Q 906.59 1048.11 869.69 1043.89
  Q 866.17 1043.49 864.96 1040.80
  Q 859.89 1029.59 848.26 1027.39
  Q 825.47 1023.08 802.92 1023.28
  A 1.78 1.78 0.0 0 1 801.14 1021.80
  L 798.67 1007.03
  L 801.23 1001.32
  Z"
/>
<path fill="#65affb" d="
  M 421.29 1003.55
  Q 422.90 1013.59 426.07 1023.25
  Q 425.40 1025.81 426.94 1028.18
  L 429.22 1036.75
  Q 429.03 1039.23 429.88 1041.48
  A 1.14 1.14 0.0 0 1 428.95 1043.02
  Q 393.62 1047.24 359.31 1054.83
  Q 358.53 1055.01 357.76 1055.29
  C 356.53 1055.73 355.12 1055.63 353.81 1055.91
  Q 347.75 1057.24 341.95 1059.05
  Q 340.53 1059.49 339.05 1059.84
  Q 334.34 1060.95 328.36 1063.36
  Q 327.41 1063.74 325.68 1064.16
  Q 324.23 1064.52 323.01 1064.99
  Q 312.84 1068.91 304.61 1073.12
  Q 303.03 1073.93 300.82 1075.43
  Q 299.08 1076.60 297.18 1077.79
  Q 293.99 1079.78 290.87 1083.96
  C 285.36 1091.35 290.83 1098.57 296.88 1103.01
  Q 308.23 1111.34 322.55 1116.04
  Q 340.14 1121.81 358.71 1126.17
  Q 367.13 1128.15 378.31 1130.19
  Q 425.29 1138.78 473.75 1142.93
  Q 650.15 1158.04 826.55 1142.43
  Q 826.66 1143.77 826.36 1146.50
  Q 825.85 1151.11 830.05 1155.06
  Q 830.51 1155.49 831.13 1155.42
  Q 832.62 1155.27 833.56 1153.93
  A 1.40 1.40 0.0 0 1 835.92 1154.04
  Q 836.21 1154.53 836.15 1155.15
  Q 835.76 1159.49 835.17 1163.57
  A 1.56 1.56 0.0 0 0 837.16 1165.29
  L 840.98 1164.17
  Q 841.56 1164.00 842.10 1164.26
  Q 846.61 1166.46 851.30 1165.89
  Q 853.79 1165.59 856.14 1166.01
  Q 859.95 1166.71 863.89 1166.41
  Q 865.90 1166.26 867.29 1167.77
  Q 867.91 1168.45 867.00 1168.46
  Q 865.79 1168.48 864.76 1169.07
  A 0.50 0.49 -22.3 0 0 864.52 1169.63
  L 864.59 1169.95
  A 1.01 1.00 -11.1 0 0 865.71 1170.70
  C 874.14 1169.46 884.88 1169.92 892.07 1173.93
  Q 893.11 1174.51 892.44 1175.31
  C 776.77 1182.13 660.66 1183.03 544.90 1179.69
  Q 478.40 1177.77 407.28 1172.09
  Q 330.58 1165.97 264.58 1156.68
  C 222.18 1150.71 179.01 1142.10 137.78 1129.25
  Q 125.71 1125.48 114.15 1120.43
  C 103.51 1115.78 92.35 1109.37 85.80 1100.35
  C 72.69 1082.30 98.39 1068.01 111.44 1062.14
  Q 129.75 1053.89 149.40 1048.23
  Q 185.95 1037.71 221.88 1031.65
  Q 222.69 1031.51 223.50 1030.47
  C 228.59 1030.46 234.64 1028.76 238.09 1028.23
  Q 328.63 1014.17 420.38 1007.70
  A 0.77 0.76 -0.4 0 0 421.10 1006.97
  L 421.29 1003.55
  Z"
/>
<path fill="#1a1a1a" d="
  M 798.67 1007.03
  L 801.14 1021.80
  A 1.78 1.78 0.0 0 0 802.92 1023.28
  Q 825.47 1023.08 848.26 1027.39
  Q 859.89 1029.59 864.96 1040.80
  Q 867.66 1049.08 866.31 1057.50
  A 1.75 1.75 0.0 0 1 864.73 1058.98
  C 831.35 1062.01 798.13 1064.22 764.77 1063.60
  Q 759.96 1063.52 757.74 1062.39
  Q 754.03 1060.53 752.42 1057.01
  Q 747.24 1045.70 747.97 1031.46
  L 747.73 1015.62
  Q 747.70 1015.35 749.12 1015.53
  Q 767.62 1017.90 785.65 1013.61
  Q 789.28 1012.74 792.43 1010.93
  Q 795.51 1009.17 798.67 1007.03
  Z"
/>
<path fill="#3261a5" d="
  M 426.07 1023.25
  Q 427.23 1025.66 426.94 1028.18
  Q 425.40 1025.81 426.07 1023.25
  Z"
/>
<path fill="#3261a5" d="
  M 747.97 1031.46
  Q 747.24 1045.70 752.42 1057.01
  Q 754.03 1060.53 757.74 1062.39
  Q 759.96 1063.52 764.77 1063.60
  C 798.13 1064.22 831.35 1062.01 864.73 1058.98
  A 1.75 1.75 0.0 0 0 866.31 1057.50
  Q 867.66 1049.08 864.96 1040.80
  Q 866.17 1043.49 869.69 1043.89
  Q 906.59 1048.11 943.60 1056.67
  Q 965.47 1061.73 981.74 1069.06
  C 990.17 1072.87 1011.61 1084.24 1002.92 1096.64
  Q 998.69 1102.68 990.43 1107.19
  Q 974.56 1115.85 956.22 1120.75
  C 915.21 1131.70 869.45 1137.78 826.55 1142.43
  Q 650.15 1158.04 473.75 1142.93
  Q 425.29 1138.78 378.31 1130.19
  Q 367.13 1128.15 358.71 1126.17
  Q 340.14 1121.81 322.55 1116.04
  Q 308.23 1111.34 296.88 1103.01
  C 290.83 1098.57 285.36 1091.35 290.87 1083.96
  Q 293.99 1079.78 297.18 1077.79
  Q 299.08 1076.60 300.82 1075.43
  Q 303.03 1073.93 304.61 1073.12
  Q 312.84 1068.91 323.01 1064.99
  Q 324.23 1064.52 325.68 1064.16
  Q 327.41 1063.74 328.36 1063.36
  Q 334.34 1060.95 339.05 1059.84
  Q 340.53 1059.49 341.95 1059.05
  Q 347.75 1057.24 353.81 1055.91
  C 355.12 1055.63 356.53 1055.73 357.76 1055.29
  Q 358.53 1055.01 359.31 1054.83
  Q 393.62 1047.24 428.95 1043.02
  A 1.14 1.14 0.0 0 0 429.88 1041.48
  Q 429.03 1039.23 429.22 1036.75
  Q 430.18 1038.86 431.30 1044.75
  Q 431.54 1046.00 432.91 1049.13
  Q 433.61 1050.74 434.45 1053.49
  Q 435.24 1056.08 436.37 1057.89
  Q 442.13 1067.16 455.03 1068.85
  Q 450.83 1071.33 447.18 1072.92
  C 444.56 1074.07 442.27 1075.63 439.71 1076.67
  Q 437.52 1077.55 435.36 1078.85
  C 434.36 1079.45 432.85 1079.40 431.79 1080.10
  Q 426.98 1083.32 423.50 1084.87
  Q 420.59 1086.17 418.62 1087.19
  Q 415.84 1088.62 413.78 1089.57
  Q 411.93 1090.42 410.04 1091.53
  Q 408.17 1092.63 406.29 1093.48
  C 399.86 1096.37 388.90 1103.16 389.52 1111.42
  Q 389.70 1113.84 392.05 1116.85
  C 399.50 1126.39 410.07 1130.65 422.26 1129.68
  Q 426.32 1129.35 427.75 1129.11
  Q 435.27 1127.81 445.02 1124.54
  Q 445.96 1124.22 446.79 1124.17
  Q 447.61 1124.13 448.43 1123.88
  Q 452.76 1122.58 457.04 1120.74
  C 457.77 1120.43 458.41 1120.76 459.26 1120.39
  Q 464.60 1118.02 469.35 1116.18
  Q 473.80 1114.46 477.44 1112.37
  Q 477.87 1112.13 478.36 1112.06
  Q 478.85 1112.00 479.28 1111.79
  Q 491.76 1105.82 504.21 1098.14
  Q 511.46 1093.68 510.89 1085.25
  Q 509.63 1066.82 502.29 1047.78
  L 508.74 1035.03
  Q 627.33 1027.68 746.25 1032.74
  Q 747.43 1032.79 747.97 1031.46
  Z"
/>
<path fill="#1a1a1a" d="
  M 502.29 1047.78
  Q 509.63 1066.82 510.89 1085.25
  Q 511.46 1093.68 504.21 1098.14
  Q 491.76 1105.82 479.28 1111.79
  Q 478.85 1112.00 478.36 1112.06
  Q 477.87 1112.13 477.44 1112.37
  Q 473.80 1114.46 469.35 1116.18
  Q 464.60 1118.02 459.26 1120.39
  C 458.41 1120.76 457.77 1120.43 457.04 1120.74
  Q 452.76 1122.58 448.43 1123.88
  Q 447.61 1124.13 446.79 1124.17
  Q 445.96 1124.22 445.02 1124.54
  Q 435.27 1127.81 427.75 1129.11
  Q 426.32 1129.35 422.26 1129.68
  C 410.07 1130.65 399.50 1126.39 392.05 1116.85
  Q 389.70 1113.84 389.52 1111.42
  C 388.90 1103.16 399.86 1096.37 406.29 1093.48
  Q 408.17 1092.63 410.04 1091.53
  Q 411.93 1090.42 413.78 1089.57
  Q 415.84 1088.62 418.62 1087.19
  Q 420.59 1086.17 423.50 1084.87
  Q 426.98 1083.32 431.79 1080.10
  C 432.85 1079.40 434.36 1079.45 435.36 1078.85
  Q 437.52 1077.55 439.71 1076.67
  C 442.27 1075.63 444.56 1074.07 447.18 1072.92
  Q 450.83 1071.33 455.03 1068.85
  Q 460.75 1067.96 463.75 1067.16
  Q 481.71 1062.36 496.39 1051.17
  Q 497.95 1049.98 499.51 1047.62
  Q 499.82 1047.15 500.37 1047.01
  Q 501.75 1046.65 502.29 1047.78
  Z"
/>
</svg>
